0
SECTION
2
HEADER
9
$INSUNITS
70
1
0
ENDSEC
0
SECTION
2
TABLES
0
TABLE
2
LTYPE
0
LTYPE
72
65
70
64
2
CONTINUOUS
3
______
73
0
40
0
0
ENDTAB
0
TABLE
2
LAYER
0
ENDTAB
0
ENDSEC
0
SECTION
2
ENTITIES
0
LINE
8
front_outsideCutPath
10
0
20
5.32185
11
0
21
4.9138
0
LINE
8
front_outsideCutPath
10
0
20
4.9138
11
0.19685
21
4.9138
0
LINE
8
front_outsideCutPath
10
0.19685
20
4.9138
11
0.19685
21
4.42705
0
LINE
8
front_outsideCutPath
10
0.19685
20
4.42705
11
0
21
4.42705
0
LINE
8
front_outsideCutPath
10
0
20
4.42705
11
0
21
3.9403
0
LINE
8
front_outsideCutPath
10
0
20
3.9403
11
0.19685
21
3.9403
0
LINE
8
front_outsideCutPath
10
0.19685
20
3.9403
11
0.19685
21
3.45355
0
LINE
8
front_outsideCutPath
10
0.19685
20
3.45355
11
0
21
3.45355
0
LINE
8
front_outsideCutPath
10
0
20
3.45355
11
0
21
2.9668
0
LINE
8
front_outsideCutPath
10
0
20
2.9668
11
0.19685
21
2.9668
0
LINE
8
front_outsideCutPath
10
0.19685
20
2.9668
11
0.19685
21
2.48005
0
LINE
8
front_outsideCutPath
10
0.19685
20
2.48005
11
0
21
2.48005
0
LINE
8
front_outsideCutPath
10
0
20
2.48005
11
0
21
1.9933
0
LINE
8
front_outsideCutPath
10
0
20
1.9933
11
0.19685
21
1.9933
0
LINE
8
front_outsideCutPath
10
0.19685
20
1.9933
11
0.19685
21
1.50655
0
LINE
8
front_outsideCutPath
10
0.19685
20
1.50655
11
0
21
1.50655
0
LINE
8
front_outsideCutPath
10
0
20
1.50655
11
0
21
1.0198
0
LINE
8
front_outsideCutPath
10
0
20
1.0198
11
0.19685
21
1.0198
0
LINE
8
front_outsideCutPath
10
0.19685
20
1.0198
11
0.19685
21
0.53305
0
LINE
8
front_outsideCutPath
10
0.19685
20
0.53305
11
0
21
0.53305
0
LINE
8
front_outsideCutPath
10
0
20
0.53305
11
0
21
0.125
0
LINE
8
front_outsideCutPath
10
0
20
0.125
11
0.657975
21
0.125
0
LINE
8
front_outsideCutPath
10
0.657975
20
0.125
11
0.657975
21
0.32185
0
LINE
8
front_outsideCutPath
10
0.657975
20
0.32185
11
1.144725
21
0.32185
0
LINE
8
front_outsideCutPath
10
1.144725
20
0.32185
11
1.144725
21
0.125
0
LINE
8
front_outsideCutPath
10
1.144725
20
0.125
11
1.631475
21
0.125
0
LINE
8
front_outsideCutPath
10
1.631475
20
0.125
11
1.631475
21
0.32185
0
LINE
8
front_outsideCutPath
10
1.631475
20
0.32185
11
2.118225
21
0.32185
0
LINE
8
front_outsideCutPath
10
2.118225
20
0.32185
11
2.118225
21
0.125
0
LINE
8
front_outsideCutPath
10
2.118225
20
0.125
11
2.604975
21
0.125
0
LINE
8
front_outsideCutPath
10
2.604975
20
0.125
11
2.604975
21
0.32185
0
LINE
8
front_outsideCutPath
10
2.604975
20
0.32185
11
3.091725
21
0.32185
0
LINE
8
front_outsideCutPath
10
3.091725
20
0.32185
11
3.091725
21
0.125
0
LINE
8
front_outsideCutPath
10
3.091725
20
0.125
11
3.578475
21
0.125
0
LINE
8
front_outsideCutPath
10
3.578475
20
0.125
11
3.578475
21
0.32185
0
LINE
8
front_outsideCutPath
10
3.578475
20
0.32185
11
4.065225
21
0.32185
0
LINE
8
front_outsideCutPath
10
4.065225
20
0.32185
11
4.065225
21
0.125
0
LINE
8
front_outsideCutPath
10
4.065225
20
0.125
11
4.551975
21
0.125
0
LINE
8
front_outsideCutPath
10
4.551975
20
0.125
11
4.551975
21
0.32185
0
LINE
8
front_outsideCutPath
10
4.551975
20
0.32185
11
5.038725
21
0.32185
0
LINE
8
front_outsideCutPath
10
5.038725
20
0.32185
11
5.038725
21
0.125
0
LINE
8
front_outsideCutPath
10
5.038725
20
0.125
11
5.525475
21
0.125
0
LINE
8
front_outsideCutPath
10
5.525475
20
0.125
11
5.525475
21
0.32185
0
LINE
8
front_outsideCutPath
10
5.525475
20
0.32185
11
6.012225
21
0.32185
0
LINE
8
front_outsideCutPath
10
6.012225
20
0.32185
11
6.012225
21
0.125
0
LINE
8
front_outsideCutPath
10
6.012225
20
0.125
11
6.498975
21
0.125
0
LINE
8
front_outsideCutPath
10
6.498975
20
0.125
11
6.498975
21
0.32185
0
LINE
8
front_outsideCutPath
10
6.498975
20
0.32185
11
6.985725
21
0.32185
0
LINE
8
front_outsideCutPath
10
6.985725
20
0.32185
11
6.985725
21
0.125
0
LINE
8
front_outsideCutPath
10
6.985725
20
0.125
11
7.472475
21
0.125
0
LINE
8
front_outsideCutPath
10
7.472475
20
0.125
11
7.6437
21
0.125
0
LINE
8
front_outsideCutPath
10
7.6437
20
0.125
11
7.6437
21
0.53305
0
LINE
8
front_outsideCutPath
10
7.6437
20
0.53305
11
7.44685
21
0.53305
0
LINE
8
front_outsideCutPath
10
7.44685
20
0.53305
11
7.44685
21
1.0198
0
LINE
8
front_outsideCutPath
10
7.44685
20
1.0198
11
7.6437
21
1.0198
0
LINE
8
front_outsideCutPath
10
7.6437
20
1.0198
11
7.6437
21
1.50655
0
LINE
8
front_outsideCutPath
10
7.6437
20
1.50655
11
7.44685
21
1.50655
0
LINE
8
front_outsideCutPath
10
7.44685
20
1.50655
11
7.44685
21
1.9933
0
LINE
8
front_outsideCutPath
10
7.44685
20
1.9933
11
7.6437
21
1.9933
0
LINE
8
front_outsideCutPath
10
7.6437
20
1.9933
11
7.6437
21
2.48005
0
LINE
8
front_outsideCutPath
10
7.6437
20
2.48005
11
7.44685
21
2.48005
0
LINE
8
front_outsideCutPath
10
7.44685
20
2.48005
11
7.44685
21
2.9668
0
LINE
8
front_outsideCutPath
10
7.44685
20
2.9668
11
7.6437
21
2.9668
0
LINE
8
front_outsideCutPath
10
7.6437
20
2.9668
11
7.6437
21
3.45355
0
LINE
8
front_outsideCutPath
10
7.6437
20
3.45355
11
7.44685
21
3.45355
0
LINE
8
front_outsideCutPath
10
7.44685
20
3.45355
11
7.44685
21
3.9403
0
LINE
8
front_outsideCutPath
10
7.44685
20
3.9403
11
7.6437
21
3.9403
0
LINE
8
front_outsideCutPath
10
7.6437
20
3.9403
11
7.6437
21
4.42705
0
LINE
8
front_outsideCutPath
10
7.6437
20
4.42705
11
7.44685
21
4.42705
0
LINE
8
front_outsideCutPath
10
7.44685
20
4.42705
11
7.44685
21
4.9138
0
LINE
8
front_outsideCutPath
10
7.44685
20
4.9138
11
7.6437
21
4.9138
0
LINE
8
front_outsideCutPath
10
7.6437
20
4.9138
11
7.6437
21
5.32185
0
LINE
8
front_outsideCutPath
10
7.6437
20
5.32185
11
0
21
5.32185
0
LINE
8
front_labelLayer
10
2.9608679
20
2.8871063
11
2.9608679
21
2.8216382
0
LINE
8
front_labelLayer
10
2.9608679
20
2.8216382
11
2.8192741
21
2.8216382
0
LINE
8
front_labelLayer
10
2.8192741
20
2.8216382
11
2.8192741
21
2.330881
0
LINE
8
front_labelLayer
10
2.8192741
20
2.330881
11
2.7350283
21
2.330881
0
LINE
8
front_labelLayer
10
2.7350283
20
2.330881
11
2.7350283
21
2.8216382
0
LINE
8
front_labelLayer
10
2.7350283
20
2.8216382
11
2.6355573
21
2.8216382
0
LINE
8
front_labelLayer
10
2.6355573
20
2.8216382
11
2.6355573
21
2.859701
0
LINE
8
front_labelLayer
10
2.6355573
20
2.859701
11
2.7350283
21
2.8901513
0
LINE
8
front_labelLayer
10
2.7350283
20
2.8901513
11
2.7350283
21
2.9211091
0
LINE
8
front_labelLayer
10
3.0177085
20
3.1083784
11
2.9958858
21
3.0408803
0
LINE
8
front_labelLayer
10
2.8192741
20
2.9231391
11
2.8192741
21
2.8871063
0
LINE
8
front_labelLayer
10
2.8192741
20
2.8871063
11
2.9608679
21
2.8871063
0
ARC
8
front_labelLayer
10
3.0764462
20
2.9250343
40
0.3414405
50
167.5775642
51
180.6586737
0
ARC
8
front_labelLayer
10
2.9158894
20
2.9624672
40
0.1766017
50
141.7433142
51
168.2322651
0
ARC
8
front_labelLayer
10
2.8897482
20
2.976111
40
0.1477278
50
98.2551303
51
139.6203304
0
ARC
8
front_labelLayer
10
2.9127002
20
2.870092
40
0.2560534
50
89.6694289
51
99.931785
0
ARC
8
front_labelLayer
10
2.912767
20
2.8548637
40
0.2712811
50
81.5641311
51
89.7020853
0
ARC
8
front_labelLayer
10
2.8936907
20
2.7217837
40
0.4057202
50
75.9740588
51
81.6563845
0
ARC
8
front_labelLayer
10
2.8609193
20
2.5858832
40
0.5455126
50
73.2966644
51
76.0940707
0
ARC
8
front_labelLayer
10
2.8692259
20
2.6519657
40
0.4090199
50
71.9608425
51
76.5921903
0
ARC
8
front_labelLayer
10
2.9009396
20
2.7865069
40
0.2707921
50
76.51853
51
83.0213302
0
ARC
8
front_labelLayer
10
2.9119994
20
2.875417
40
0.181197
50
83.0767778
51
89.7927104
0
ARC
8
front_labelLayer
10
2.9116356
20
2.9430039
40
0.1136136
50
89.4859238
51
103.4198788
0
ARC
8
front_labelLayer
10
2.9013919
20
2.9823567
40
0.0729627
50
102.7674089
51
144.3381576
0
ARC
8
front_labelLayer
10
2.9220263
20
2.9690801
40
0.0974756
50
145.06884
51
162.1805494
0
ARC
8
front_labelLayer
10
2.9927679
20
2.9452766
40
0.1721109
50
161.8431993
51
171.7849105
0
ARC
8
front_labelLayer
10
3.1082073
20
2.9279385
40
0.2888438
50
171.6529786
51
178.4379153
0
ARC
8
front_labelLayer
10
3.2170636
20
2.9233001
40
0.3977895
50
178.1974863
51
180.0231772
0
LINE
8
front_labelLayer
10
3.3826045
20
2.8911663
11
3.3709319
21
2.8130106
0
LINE
8
front_labelLayer
10
3.1466147
20
2.6292938
11
3.1466147
21
2.330881
0
LINE
8
front_labelLayer
10
3.1466147
20
2.330881
11
3.0623689
21
2.330881
0
LINE
8
front_labelLayer
10
3.0623689
20
2.330881
11
3.0623689
21
2.8871063
0
LINE
8
front_labelLayer
10
3.0623689
20
2.8871063
11
3.1318971
21
2.8871063
0
LINE
8
front_labelLayer
10
3.1318971
20
2.8871063
11
3.1415397
21
2.7840828
0
LINE
8
front_labelLayer
10
3.1415397
20
2.7840828
11
3.1455997
21
2.7840828
0
ARC
8
front_labelLayer
10
3.316986
20
2.510469
40
0.3867884
50
84.9926612
51
90.1280861
0
ARC
8
front_labelLayer
10
3.3262727
20
2.6145532
40
0.2822907
50
78.489222
51
85.0264426
0
ARC
8
front_labelLayer
10
3.2902243
20
2.4506087
40
0.37128
50
77.4450083
51
81.6358204
0
ARC
8
front_labelLayer
10
3.3063984
20
2.5620958
40
0.258626
50
81.5880956
51
87.191236
0
ARC
8
front_labelLayer
10
3.3099185
20
2.6231362
40
0.1974869
50
87.3434827
51
89.9672676
0
ARC
8
front_labelLayer
10
3.3090977
20
2.6746526
40
0.1459735
50
89.633538
51
137.0879475
0
ARC
8
front_labelLayer
10
3.3449841
20
2.6343116
40
0.1997892
50
135.6218642
51
138.8373375
0
ARC
8
front_labelLayer
10
3.3396731
20
2.6394915
40
0.1923819
50
138.9576679
51
174.5422643
0
ARC
8
front_labelLayer
10
3.4023409
20
2.629686
40
0.2557266
50
173.6906997
51
180.0878761
0
ARC
8
front_labelLayer
10
3.3934548
20
2.6444441
40
0.2844839
50
139.4135568
51
150.6035814
0
ARC
8
front_labelLayer
10
3.342456
20
2.6881473
40
0.2173212
50
124.2320244
51
139.4161413
0
ARC
8
front_labelLayer
10
3.3151824
20
2.7293169
40
0.167942
50
89.679659
51
124.4404324
0
ARC
8
front_labelLayer
10
3.5315894
20
2.6065675
40
0.4351631
50
349.1761631
51
0.3862609
0
ARC
8
front_labelLayer
10
3.6780981
20
2.5773604
40
0.2857786
50
330.2507022
51
349.4116557
0
ARC
8
front_labelLayer
10
3.7231852
20
2.5539259
40
0.2350141
50
318.1440522
51
329.7566506
0
ARC
8
front_labelLayer
10
3.7313241
20
2.5474035
40
0.2246006
50
278.8958725
51
317.9979431
0
ARC
8
front_labelLayer
10
3.7103559
20
2.6478703
40
0.3271424
50
269.7502836
51
279.8031037
0
ARC
8
front_labelLayer
10
3.7069559
20
2.5912661
40
0.2705424
50
253.5438986
51
270.4181056
0
ARC
8
front_labelLayer
10
3.6979504
20
2.5564264
40
0.234582
50
238.8116333
51
253.242787
0
ARC
8
front_labelLayer
10
3.6950434
20
2.5505798
40
0.2280756
50
207.7946966
51
238.6757643
0
ARC
8
front_labelLayer
10
3.7367282
20
2.5761083
40
0.2768729
50
205.6552577
51
208.4456121
0
ARC
8
front_labelLayer
10
3.7688722
20
2.5895071
40
0.3116547
50
188.9102868
51
205.3171553
0
ARC
8
front_labelLayer
10
3.877141
20
2.6078434
40
0.4214591
50
179.7746421
51
189.0932063
0
ARC
8
front_labelLayer
10
3.8930936
20
2.6124649
40
0.4374184
50
169.2442899
51
180.3882176
0
ARC
8
front_labelLayer
10
3.7445513
20
2.6418264
40
0.2860084
50
150.7110032
51
169.4695402
0
ARC
8
front_labelLayer
10
3.6971363
20
2.6661751
40
0.2327514
50
138.1759276
51
150.2284968
0
ARC
8
front_labelLayer
10
3.6892457
20
2.6722301
40
0.222835
50
99.1760654
51
137.9831714
0
ARC
8
front_labelLayer
10
3.7109568
20
2.5700464
40
0.3272136
50
89.7328137
51
100.0758003
0
ARC
8
front_labelLayer
10
3.7152943
20
2.6141821
40
0.2830883
50
73.5221862
51
90.5690711
0
ARC
8
front_labelLayer
10
3.7318958
20
2.6744992
40
0.2205429
50
41.1446663
51
73.2132969
0
ARC
8
front_labelLayer
10
3.7002045
20
2.6472622
40
0.2623292
50
13.5014534
51
41.0702237
0
ARC
8
front_labelLayer
10
3.5777609
20
2.6152213
40
0.388878
50
1.1278757
51
13.8798911
0
ARC
8
front_labelLayer
10
3.4716372
20
2.6095636
40
0.4951054
50
359.9927717
51
1.5407502
0
ARC
8
front_labelLayer
10
3.9695994
20
2.6073131
40
0.4266289
50
179.7061512
51
187.9160768
0
ARC
8
front_labelLayer
10
3.8131204
20
2.5848348
40
0.2685463
50
187.763855
51
200.0975543
0
ARC
8
front_labelLayer
10
3.7269187
20
2.5532515
40
0.1767409
50
200.084741
51
216.9134071
0
ARC
8
front_labelLayer
10
3.6954431
20
2.5307758
40
0.138079
50
217.3010265
51
261.709889
0
ARC
8
front_labelLayer
10
3.7100558
20
2.6005046
40
0.2092325
50
260.5032399
51
270.2476438
0
ARC
8
front_labelLayer
10
3.7128441
20
2.5869523
40
0.1956874
50
269.4483815
51
284.7253181
0
ARC
8
front_labelLayer
10
3.7283353
20
2.5294961
40
0.1361811
50
284.566358
51
322.6332883
0
ARC
8
front_labelLayer
10
3.6921179
20
2.5556615
40
0.1808496
50
323.0088598
51
342.6390683
0
ARC
8
front_labelLayer
10
3.5885425
20
2.589515
40
0.2898115
50
342.3612131
51
353.7541382
0
ARC
8
front_labelLayer
10
3.4356779
20
2.6079427
40
0.4437767
50
353.536282
51
0.2012106
0
ARC
8
front_labelLayer
10
3.459111
20
2.6116478
40
0.4203463
50
359.7073907
51
7.8971884
0
ARC
8
front_labelLayer
10
3.6130525
20
2.633717
40
0.2648334
50
7.7438056
51
20.0689298
0
ARC
8
front_labelLayer
10
3.6988322
20
2.6651936
40
0.1734609
50
20.0259802
51
37.4350496
0
ARC
8
front_labelLayer
10
3.7272965
20
2.6853911
40
0.1385876
50
37.9579345
51
80.4005698
0
ARC
8
front_labelLayer
10
3.7111225
20
2.6132255
40
0.212476
50
79.3452732
51
90.3174947
0
ARC
8
front_labelLayer
10
3.7081269
20
2.6252169
40
0.2004895
50
89.4803808
51
103.8807012
0
ARC
8
front_labelLayer
10
3.6912813
20
2.6893636
40
0.1341783
50
103.4686885
51
142.3119646
0
ARC
8
front_labelLayer
10
3.7240323
20
2.6663302
40
0.174187
50
142.902466
51
162.3748406
0
ARC
8
front_labelLayer
10
3.827231
20
2.6319397
40
0.2829584
50
162.0652971
51
173.1675209
0
ARC
8
front_labelLayer
10
3.9881462
20
2.611414
40
0.4451745
50
173.0084
51
180.2461999
0
LINE
8
front_labelLayer
10
4.579301
20
2.330881
11
4.4950552
21
2.330881
0
LINE
8
front_labelLayer
10
4.4950552
20
2.330881
11
4.4950552
21
2.6907019
0
LINE
8
front_labelLayer
10
4.1986724
20
2.6226963
11
4.1986724
21
2.330881
0
LINE
8
front_labelLayer
10
4.1986724
20
2.330881
11
4.1144265
21
2.330881
0
LINE
8
front_labelLayer
10
4.1144265
20
2.330881
11
4.1144265
21
2.8871063
0
LINE
8
front_labelLayer
10
4.1144265
20
2.8871063
11
4.1829397
21
2.8871063
0
LINE
8
front_labelLayer
10
4.1829397
20
2.8871063
11
4.1966423
21
2.8109806
0
LINE
8
front_labelLayer
10
4.1966423
20
2.8109806
11
4.2007024
21
2.8109806
0
LINE
8
front_labelLayer
10
4.579301
20
2.6937469
11
4.579301
21
2.330881
0
ARC
8
front_labelLayer
10
4.256914
20
2.6920665
40
0.2381452
50
359.6716965
51
8.6878759
0
ARC
8
front_labelLayer
10
4.3451768
20
2.7060648
40
0.1487816
50
8.4932255
51
22.6578117
0
ARC
8
front_labelLayer
10
4.3900222
20
2.724701
40
0.1002181
50
22.7022435
51
42.34169
0
ARC
8
front_labelLayer
10
4.3950629
20
2.7269677
40
0.094981
50
43.3792061
51
71.5385099
0
ARC
8
front_labelLayer
10
4.376213
20
2.6742953
40
0.1509166
50
71.0828199
51
84.3688313
0
ARC
8
front_labelLayer
10
4.3677545
20
2.6023803
40
0.2233186
50
84.0196365
51
90.1515107
0
ARC
8
front_labelLayer
10
4.3653551
20
2.5707214
40
0.2549833
50
89.593536
51
100.3715928
0
ARC
8
front_labelLayer
10
4.3473343
20
2.6652724
40
0.1587344
50
100.1174231
51
118.1603502
0
ARC
8
front_labelLayer
10
4.3291763
20
2.7008781
40
0.1187764
50
118.5438902
51
139.1928679
0
ARC
8
front_labelLayer
10
4.3450075
20
2.6902547
40
0.1377212
50
140.1518358
51
160.3150332
0
ARC
8
front_labelLayer
10
4.4406293
20
2.6544394
40
0.239824
50
159.9537698
51
171.3800308
0
ARC
8
front_labelLayer
10
4.5967998
20
2.6293347
40
0.3979957
50
171.1764245
51
178.3216527
0
ARC
8
front_labelLayer
10
4.7380684
20
2.6229248
40
0.5393961
50
178.0805711
51
180.0242767
0
ARC
8
front_labelLayer
10
4.3448175
20
2.7197078
40
0.1705869
50
116.9442853
51
147.6526136
0
ARC
8
front_labelLayer
10
4.3625783
20
2.690004
40
0.2051278
50
115.8076754
51
117.6072005
0
ARC
8
front_labelLayer
10
4.3716506
20
2.6688461
40
0.2281274
50
94.3226036
51
115.545546
0
ARC
8
front_labelLayer
10
4.3771137
20
2.6213437
40
0.2759127
50
89.9583926
51
94.7103501
0
ARC
8
front_labelLayer
10
4.3793692
20
2.5646602
40
0.3326025
50
80.5583177
51
90.354031
0
ARC
8
front_labelLayer
10
4.4001534
20
2.685044
40
0.2104415
50
65.1097179
51
80.7637253
0
ARC
8
front_labelLayer
10
4.4244525
20
2.7388681
40
0.1513908
50
46.5586513
51
64.8782738
0
ARC
8
front_labelLayer
10
4.4263968
20
2.7444751
40
0.1460031
50
19.3850112
51
45.5996461
0
ARC
8
front_labelLayer
10
4.3419304
20
2.7127824
40
0.2362077
50
6.9633323
51
19.8362807
0
ARC
8
front_labelLayer
10
4.2116566
20
2.6952682
40
0.3676474
50
359.762926
51
7.211343
0
LINE
8
front_labelLayer
10
5.0081426
20
2.4004091
11
5.0081426
21
2.335956
0
LINE
8
front_labelLayer
10
4.7584502
20
2.490745
11
4.7584502
21
2.8216382
0
LINE
8
front_labelLayer
10
4.7584502
20
2.8216382
11
4.678772
21
2.8216382
0
LINE
8
front_labelLayer
10
4.678772
20
2.8216382
11
4.678772
21
2.8622386
0
LINE
8
front_labelLayer
10
4.678772
20
2.8622386
11
4.7584502
21
2.8972564
0
LINE
8
front_labelLayer
10
4.7584502
20
2.8972564
11
4.7939756
21
3.0160125
0
LINE
8
front_labelLayer
10
4.7939756
20
3.0160125
11
4.8426961
21
3.0160125
0
LINE
8
front_labelLayer
10
4.8426961
20
3.0160125
11
4.8426961
21
2.8871063
0
LINE
8
front_labelLayer
10
4.8426961
20
2.8871063
11
5.0040826
21
2.8871063
0
LINE
8
front_labelLayer
10
5.0040826
20
2.8871063
11
5.0040826
21
2.8216382
0
LINE
8
front_labelLayer
10
5.0040826
20
2.8216382
11
4.8426961
21
2.8216382
0
LINE
8
front_labelLayer
10
4.8426961
20
2.8216382
11
4.8426961
21
2.4942975
0
ARC
8
front_labelLayer
10
4.9325946
20
2.6669457
40
0.2766873
50
269.8803714
51
278.3024696
0
ARC
8
front_labelLayer
10
4.9349955
20
2.6468549
40
0.2564607
50
278.4198481
51
279.0090569
0
ARC
8
front_labelLayer
10
4.9041828
20
2.8437729
40
0.4557748
50
278.9584056
51
280.5097177
0
ARC
8
front_labelLayer
10
4.9337809
20
2.6849424
40
0.2942099
50
280.4842908
51
282.6266914
0
ARC
8
front_labelLayer
10
4.959734
20
2.5696362
40
0.1760191
50
282.5877228
51
285.580893
0
ARC
8
front_labelLayer
10
4.9719505
20
2.5246007
40
0.1293578
50
285.7265469
51
286.2472589
0
ARC
8
front_labelLayer
10
4.9727342
20
2.410844
40
0.082837
50
287.9872402
51
295.3056811
0
ARC
8
front_labelLayer
10
4.9527507
20
2.4712854
40
0.1464958
50
283.3064578
51
288.1210641
0
ARC
8
front_labelLayer
10
4.9316146
20
2.5594632
40
0.2371711
50
280.0068478
51
283.3725675
0
ARC
8
front_labelLayer
10
4.9172781
20
2.6373736
40
0.3163881
50
279.1877822
51
280.1119331
0
ARC
8
front_labelLayer
10
4.9088333
20
2.6853245
40
0.3650728
50
275.5258748
51
279.2945115
0
ARC
8
front_labelLayer
10
4.9185956
20
2.5833697
40
0.2626517
50
270.8934749
51
275.5478876
0
ARC
8
front_labelLayer
10
4.9198096
20
2.5392321
40
0.2185012
50
270.0071302
51
270.7556444
0
ARC
8
front_labelLayer
10
4.9164377
20
2.5407437
40
0.2200391
50
253.7847706
51
270.8851188
0
ARC
8
front_labelLayer
10
4.8903687
20
2.4518384
40
0.1273911
50
190.3817478
51
253.8772084
0
ARC
8
front_labelLayer
10
5.0232408
20
2.4877644
40
0.2648073
50
179.3550936
51
192.8477142
0
ARC
8
front_labelLayer
10
5.0123418
20
2.4932365
40
0.1696491
50
179.6416687
51
189.7502505
0
ARC
8
front_labelLayer
10
4.9524525
20
2.4825565
40
0.1088167
50
189.5484161
51
205.7871992
0
ARC
8
front_labelLayer
10
4.9278352
20
2.4712045
40
0.081714
50
206.1291921
51
221.4086474
0
ARC
8
front_labelLayer
10
4.9250778
20
2.4691122
40
0.0782625
50
221.5950458
51
262.350572
0
ARC
8
front_labelLayer
10
4.9316409
20
2.5028519
40
0.1125936
50
261.3258573
51
270.1913335
0
LINE
8
left_outsideCutPath
10
7.96555
20
5.32185
11
7.96555
21
4.9138
0
LINE
8
left_outsideCutPath
10
7.96555
20
4.9138
11
7.7687
21
4.9138
0
LINE
8
left_outsideCutPath
10
7.7687
20
4.9138
11
7.7687
21
4.42705
0
LINE
8
left_outsideCutPath
10
7.7687
20
4.42705
11
7.96555
21
4.42705
0
LINE
8
left_outsideCutPath
10
7.96555
20
4.42705
11
7.96555
21
3.9403
0
LINE
8
left_outsideCutPath
10
7.96555
20
3.9403
11
7.7687
21
3.9403
0
LINE
8
left_outsideCutPath
10
7.7687
20
3.9403
11
7.7687
21
3.45355
0
LINE
8
left_outsideCutPath
10
7.7687
20
3.45355
11
7.96555
21
3.45355
0
LINE
8
left_outsideCutPath
10
7.96555
20
3.45355
11
7.96555
21
2.9668
0
LINE
8
left_outsideCutPath
10
7.96555
20
2.9668
11
7.7687
21
2.9668
0
LINE
8
left_outsideCutPath
10
7.7687
20
2.9668
11
7.7687
21
2.48005
0
LINE
8
left_outsideCutPath
10
7.7687
20
2.48005
11
7.96555
21
2.48005
0
LINE
8
left_outsideCutPath
10
7.96555
20
2.48005
11
7.96555
21
1.9933
0
LINE
8
left_outsideCutPath
10
7.96555
20
1.9933
11
7.7687
21
1.9933
0
LINE
8
left_outsideCutPath
10
7.7687
20
1.9933
11
7.7687
21
1.50655
0
LINE
8
left_outsideCutPath
10
7.7687
20
1.50655
11
7.96555
21
1.50655
0
LINE
8
left_outsideCutPath
10
7.96555
20
1.50655
11
7.96555
21
1.0198
0
LINE
8
left_outsideCutPath
10
7.96555
20
1.0198
11
7.7687
21
1.0198
0
LINE
8
left_outsideCutPath
10
7.7687
20
1.0198
11
7.7687
21
0.53305
0
LINE
8
left_outsideCutPath
10
7.7687
20
0.53305
11
7.96555
21
0.53305
0
LINE
8
left_outsideCutPath
10
7.96555
20
0.53305
11
7.96555
21
0.125
0
LINE
8
left_outsideCutPath
10
7.96555
20
0.125
11
8.341425
21
0.125
0
LINE
8
left_outsideCutPath
10
8.341425
20
0.125
11
8.341425
21
0.32185
0
LINE
8
left_outsideCutPath
10
8.341425
20
0.32185
11
8.828175
21
0.32185
0
LINE
8
left_outsideCutPath
10
8.828175
20
0.32185
11
8.828175
21
0.125
0
LINE
8
left_outsideCutPath
10
8.828175
20
0.125
11
9.314925
21
0.125
0
LINE
8
left_outsideCutPath
10
9.314925
20
0.125
11
9.314925
21
0.32185
0
LINE
8
left_outsideCutPath
10
9.314925
20
0.32185
11
9.801675
21
0.32185
0
LINE
8
left_outsideCutPath
10
9.801675
20
0.32185
11
9.801675
21
0.125
0
LINE
8
left_outsideCutPath
10
9.801675
20
0.125
11
10.288425
21
0.125
0
LINE
8
left_outsideCutPath
10
10.288425
20
0.125
11
10.288425
21
0.32185
0
LINE
8
left_outsideCutPath
10
10.288425
20
0.32185
11
10.775175
21
0.32185
0
LINE
8
left_outsideCutPath
10
10.775175
20
0.32185
11
10.775175
21
0.125
0
LINE
8
left_outsideCutPath
10
10.775175
20
0.125
11
11.261925
21
0.125
0
LINE
8
left_outsideCutPath
10
11.261925
20
0.125
11
11.261925
21
0.32185
0
LINE
8
left_outsideCutPath
10
11.261925
20
0.32185
11
11.748675
21
0.32185
0
LINE
8
left_outsideCutPath
10
11.748675
20
0.32185
11
11.748675
21
0.125
0
LINE
8
left_outsideCutPath
10
11.748675
20
0.125
11
12.235425
21
0.125
0
LINE
8
left_outsideCutPath
10
12.235425
20
0.125
11
12.235425
21
0.32185
0
LINE
8
left_outsideCutPath
10
12.235425
20
0.32185
11
12.722175
21
0.32185
0
LINE
8
left_outsideCutPath
10
12.722175
20
0.32185
11
12.722175
21
0.125
0
LINE
8
left_outsideCutPath
10
12.722175
20
0.125
11
13.208925
21
0.125
0
LINE
8
left_outsideCutPath
10
13.208925
20
0.125
11
13.208925
21
0.32185
0
LINE
8
left_outsideCutPath
10
13.208925
20
0.32185
11
13.695675
21
0.32185
0
LINE
8
left_outsideCutPath
10
13.695675
20
0.32185
11
13.695675
21
0.125
0
LINE
8
left_outsideCutPath
10
13.695675
20
0.125
11
14.182425
21
0.125
0
LINE
8
left_outsideCutPath
10
14.182425
20
0.125
11
14.182425
21
0.32185
0
LINE
8
left_outsideCutPath
10
14.182425
20
0.32185
11
14.669175
21
0.32185
0
LINE
8
left_outsideCutPath
10
14.669175
20
0.32185
11
14.669175
21
0.125
0
LINE
8
left_outsideCutPath
10
14.669175
20
0.125
11
15.155925
21
0.125
0
LINE
8
left_outsideCutPath
10
15.155925
20
0.125
11
15.155925
21
0.32185
0
LINE
8
left_outsideCutPath
10
15.155925
20
0.32185
11
15.642675
21
0.32185
0
LINE
8
left_outsideCutPath
10
15.642675
20
0.32185
11
15.642675
21
0.125
0
LINE
8
left_outsideCutPath
10
15.642675
20
0.125
11
16.129425
21
0.125
0
LINE
8
left_outsideCutPath
10
16.129425
20
0.125
11
16.129425
21
0.32185
0
LINE
8
left_outsideCutPath
10
16.129425
20
0.32185
11
16.616175
21
0.32185
0
LINE
8
left_outsideCutPath
10
16.616175
20
0.32185
11
16.616175
21
0.125
0
LINE
8
left_outsideCutPath
10
16.616175
20
0.125
11
17.102925
21
0.125
0
LINE
8
left_outsideCutPath
10
17.102925
20
0.125
11
17.102925
21
0.32185
0
LINE
8
left_outsideCutPath
10
17.102925
20
0.32185
11
17.589675
21
0.32185
0
LINE
8
left_outsideCutPath
10
17.589675
20
0.32185
11
17.589675
21
0.125
0
LINE
8
left_outsideCutPath
10
17.589675
20
0.125
11
17.96555
21
0.125
0
LINE
8
left_outsideCutPath
10
17.96555
20
0.125
11
17.96555
21
0.53305
0
LINE
8
left_outsideCutPath
10
17.96555
20
0.53305
11
18.1624
21
0.53305
0
LINE
8
left_outsideCutPath
10
18.1624
20
0.53305
11
18.1624
21
1.0198
0
LINE
8
left_outsideCutPath
10
18.1624
20
1.0198
11
17.96555
21
1.0198
0
LINE
8
left_outsideCutPath
10
17.96555
20
1.0198
11
17.96555
21
1.50655
0
LINE
8
left_outsideCutPath
10
17.96555
20
1.50655
11
18.1624
21
1.50655
0
LINE
8
left_outsideCutPath
10
18.1624
20
1.50655
11
18.1624
21
1.9933
0
LINE
8
left_outsideCutPath
10
18.1624
20
1.9933
11
17.96555
21
1.9933
0
LINE
8
left_outsideCutPath
10
17.96555
20
1.9933
11
17.96555
21
2.48005
0
LINE
8
left_outsideCutPath
10
17.96555
20
2.48005
11
18.1624
21
2.48005
0
LINE
8
left_outsideCutPath
10
18.1624
20
2.48005
11
18.1624
21
2.9668
0
LINE
8
left_outsideCutPath
10
18.1624
20
2.9668
11
17.96555
21
2.9668
0
LINE
8
left_outsideCutPath
10
17.96555
20
2.9668
11
17.96555
21
3.45355
0
LINE
8
left_outsideCutPath
10
17.96555
20
3.45355
11
18.1624
21
3.45355
0
LINE
8
left_outsideCutPath
10
18.1624
20
3.45355
11
18.1624
21
3.9403
0
LINE
8
left_outsideCutPath
10
18.1624
20
3.9403
11
17.96555
21
3.9403
0
LINE
8
left_outsideCutPath
10
17.96555
20
3.9403
11
17.96555
21
4.42705
0
LINE
8
left_outsideCutPath
10
17.96555
20
4.42705
11
18.1624
21
4.42705
0
LINE
8
left_outsideCutPath
10
18.1624
20
4.42705
11
18.1624
21
4.9138
0
LINE
8
left_outsideCutPath
10
18.1624
20
4.9138
11
17.96555
21
4.9138
0
LINE
8
left_outsideCutPath
10
17.96555
20
4.9138
11
17.96555
21
5.32185
0
LINE
8
left_outsideCutPath
10
17.96555
20
5.32185
11
7.96555
21
5.32185
0
LINE
8
left_labelLayer
10
12.322795
20
3.1205585
11
12.322795
21
2.330881
0
LINE
8
left_labelLayer
10
12.322795
20
2.330881
11
12.2385492
21
2.330881
0
LINE
8
left_labelLayer
10
12.2385492
20
2.330881
11
12.2385492
21
3.1205585
0
LINE
8
left_labelLayer
10
12.2385492
20
3.1205585
11
12.322795
21
3.1205585
0
LINE
8
left_labelLayer
10
12.940936
20
2.6470565
11
12.940936
21
2.5937685
0
LINE
8
left_labelLayer
10
12.940936
20
2.5937685
11
12.5577698
21
2.5937685
0
LINE
8
left_labelLayer
10
12.9170833
20
2.4318744
11
12.9170833
21
2.3567637
0
LINE
8
left_labelLayer
10
12.5597998
20
2.6622816
11
12.8506001
21
2.6622816
0
ARC
8
left_labelLayer
10
12.7336423
20
2.648101
40
0.3273818
50
256.0089277
51
270.4846593
0
ARC
8
left_labelLayer
10
12.7098028
20
2.5555463
40
0.2318105
50
223.5466589
51
256.1955949
0
ARC
8
left_labelLayer
10
12.7229558
20
2.5651049
40
0.2479386
50
194.0878933
51
223.0536311
0
ARC
8
left_labelLayer
10
12.8434586
20
2.5980565
40
0.3728471
50
181.3575559
51
194.4918877
0
ARC
8
left_labelLayer
10
12.9517264
20
2.6043376
40
0.4812476
50
179.9894657
51
181.7997698
0
ARC
8
left_labelLayer
10
12.912847
20
2.6073936
40
0.4423779
50
168.9540574
51
180.384345
0
ARC
8
left_labelLayer
10
12.7683597
20
2.6368136
40
0.2949331
50
149.406942
51
169.185597
0
ARC
8
left_labelLayer
10
12.7281163
20
2.6580749
40
0.2494802
50
140.1054876
51
148.9063631
0
ARC
8
left_labelLayer
10
12.7033809
20
2.6808802
40
0.2158821
50
92.4763058
51
140.5386669
0
ARC
8
left_labelLayer
10
12.7144036
20
2.5993443
40
0.2979121
50
89.9643756
51
93.9168778
0
ARC
8
left_labelLayer
10
12.7170302
20
2.6406041
40
0.2566639
50
74.2125384
51
90.5450068
0
ARC
8
left_labelLayer
10
12.7331053
20
2.6998322
40
0.1952976
50
41.2065722
51
74.0231854
0
ARC
8
left_labelLayer
10
12.702661
20
2.6734857
40
0.2355586
50
11.5994282
51
41.1495312
0
ARC
8
left_labelLayer
10
12.5980624
20
2.6493619
40
0.3428815
50
359.6147629
51
12.0338447
0
ARC
8
left_labelLayer
10
12.8958468
20
2.6005252
40
0.3381445
50
181.1449501
51
190.8005824
0
ARC
8
left_labelLayer
10
12.7765461
20
2.5769971
40
0.2165496
50
190.600707
51
206.0275553
0
ARC
8
left_labelLayer
10
12.7237607
20
2.5520414
40
0.1581687
50
206.294751
51
222.5563062
0
ARC
8
left_labelLayer
10
12.7190906
20
2.5495967
40
0.1530813
50
223.0644719
51
258.1401517
0
ARC
8
left_labelLayer
10
12.7377081
20
2.6262609
40
0.2319484
50
257.5314409
51
270.4319113
0
ARC
8
left_labelLayer
10
12.7379152
20
2.8392661
40
0.4449497
50
270.1984775
51
292.2090567
0
ARC
8
left_labelLayer
10
12.7167079
20
2.9002396
40
0.5094273
50
291.8251669
51
293.1621451
0
ARC
8
left_labelLayer
10
12.7155423
20
2.8205775
40
0.5057094
50
287.9020045
51
293.4863896
0
ARC
8
left_labelLayer
10
12.7522142
20
2.7074225
40
0.3867605
50
281.9935604
51
287.8851597
0
ARC
8
left_labelLayer
10
12.7611035
20
2.6754727
40
0.3536668
50
275.9056075
51
281.6604667
0
ARC
8
left_labelLayer
10
12.7433061
20
2.8415904
40
0.5207344
50
271.9119474
51
275.9728543
0
ARC
8
left_labelLayer
10
12.7368078
20
3.0070017
40
0.686271
50
269.9669181
51
271.9934298
0
ARC
8
left_labelLayer
10
12.7119578
20
2.6606495
40
0.1660716
50
89.4424695
51
106.208843
0
ARC
8
left_labelLayer
10
12.7019663
20
2.6970808
40
0.1283007
50
106.465624
51
137.9175218
0
ARC
8
left_labelLayer
10
12.7306112
20
2.6719261
40
0.1664198
50
138.0994702
51
160.5864879
0
ARC
8
left_labelLayer
10
12.8042321
20
2.6448415
40
0.2448597
50
160.3351158
51
172.5316886
0
ARC
8
left_labelLayer
10
12.8767159
20
2.63323
40
0.3182446
50
172.1550988
51
174.7623493
0
ARC
8
left_labelLayer
10
12.5635203
20
2.6639113
40
0.2870845
50
359.6747501
51
8.922531
0
ARC
8
left_labelLayer
10
12.6661103
20
2.6806278
40
0.1831444
50
8.7340224
51
23.2774103
0
ARC
8
left_labelLayer
10
12.7148067
20
2.7010709
40
0.1303338
50
23.4818074
51
39.7072856
0
ARC
8
left_labelLayer
10
12.7267666
20
2.7100213
40
0.115417
50
40.0821198
51
80.6244972
0
ARC
8
left_labelLayer
10
12.7144522
20
2.6535627
40
0.1731527
50
79.6474359
51
90.2906508
0
LINE
8
left_labelLayer
10
13.3352673
20
2.8871063
11
13.3352673
21
2.8216382
0
LINE
8
left_labelLayer
10
13.3352673
20
2.8216382
11
13.1936734
21
2.8216382
0
LINE
8
left_labelLayer
10
13.1936734
20
2.8216382
11
13.1936734
21
2.330881
0
LINE
8
left_labelLayer
10
13.1936734
20
2.330881
11
13.1094276
21
2.330881
0
LINE
8
left_labelLayer
10
13.1094276
20
2.330881
11
13.1094276
21
2.8216382
0
LINE
8
left_labelLayer
10
13.1094276
20
2.8216382
11
13.0099567
21
2.8216382
0
LINE
8
left_labelLayer
10
13.0099567
20
2.8216382
11
13.0099567
21
2.859701
0
LINE
8
left_labelLayer
10
13.0099567
20
2.859701
11
13.1094276
21
2.8901513
0
LINE
8
left_labelLayer
10
13.1094276
20
2.8901513
11
13.1094276
21
2.9211091
0
LINE
8
left_labelLayer
10
13.3921078
20
3.1083784
11
13.3702851
21
3.0408803
0
LINE
8
left_labelLayer
10
13.1936734
20
2.9231391
11
13.1936734
21
2.8871063
0
LINE
8
left_labelLayer
10
13.1936734
20
2.8871063
11
13.3352673
21
2.8871063
0
ARC
8
left_labelLayer
10
13.4508456
20
2.9250343
40
0.3414405
50
167.5775642
51
180.6586737
0
ARC
8
left_labelLayer
10
13.2902887
20
2.9624672
40
0.1766017
50
141.7433142
51
168.2322651
0
ARC
8
left_labelLayer
10
13.2641475
20
2.976111
40
0.1477278
50
98.2551303
51
139.6203304
0
ARC
8
left_labelLayer
10
13.2870995
20
2.870092
40
0.2560534
50
89.6694289
51
99.931785
0
ARC
8
left_labelLayer
10
13.2871663
20
2.8548637
40
0.2712811
50
81.5641311
51
89.7020853
0
ARC
8
left_labelLayer
10
13.26809
20
2.7217837
40
0.4057202
50
75.9740588
51
81.6563845
0
ARC
8
left_labelLayer
10
13.2353186
20
2.5858832
40
0.5455126
50
73.2966644
51
76.0940707
0
ARC
8
left_labelLayer
10
13.2436252
20
2.6519657
40
0.4090199
50
71.9608425
51
76.5921903
0
ARC
8
left_labelLayer
10
13.2753389
20
2.7865069
40
0.2707921
50
76.51853
51
83.0213302
0
ARC
8
left_labelLayer
10
13.2863988
20
2.875417
40
0.181197
50
83.0767778
51
89.7927104
0
ARC
8
left_labelLayer
10
13.286035
20
2.9430039
40
0.1136136
50
89.4859238
51
103.4198788
0
ARC
8
left_labelLayer
10
13.2757912
20
2.9823567
40
0.0729627
50
102.7674089
51
144.3381576
0
ARC
8
left_labelLayer
10
13.2964256
20
2.9690801
40
0.0974756
50
145.06884
51
162.1805494
0
ARC
8
left_labelLayer
10
13.3671672
20
2.9452766
40
0.1721109
50
161.8431993
51
171.7849105
0
ARC
8
left_labelLayer
10
13.4826066
20
2.9279385
40
0.2888438
50
171.6529786
51
178.4379153
0
ARC
8
left_labelLayer
10
13.591463
20
2.9233001
40
0.3977895
50
178.1974863
51
180.0231772
0
LINE
8
left_labelLayer
10
13.6925507
20
2.4004091
11
13.6925507
21
2.335956
0
LINE
8
left_labelLayer
10
13.4428583
20
2.490745
11
13.4428583
21
2.8216382
0
LINE
8
left_labelLayer
10
13.4428583
20
2.8216382
11
13.3631801
21
2.8216382
0
LINE
8
left_labelLayer
10
13.3631801
20
2.8216382
11
13.3631801
21
2.8622386
0
LINE
8
left_labelLayer
10
13.3631801
20
2.8622386
11
13.4428583
21
2.8972564
0
LINE
8
left_labelLayer
10
13.4428583
20
2.8972564
11
13.4783837
21
3.0160125
0
LINE
8
left_labelLayer
10
13.4783837
20
3.0160125
11
13.5271041
21
3.0160125
0
LINE
8
left_labelLayer
10
13.5271041
20
3.0160125
11
13.5271041
21
2.8871063
0
LINE
8
left_labelLayer
10
13.5271041
20
2.8871063
11
13.6884907
21
2.8871063
0
LINE
8
left_labelLayer
10
13.6884907
20
2.8871063
11
13.6884907
21
2.8216382
0
LINE
8
left_labelLayer
10
13.6884907
20
2.8216382
11
13.5271041
21
2.8216382
0
LINE
8
left_labelLayer
10
13.5271041
20
2.8216382
11
13.5271041
21
2.4942975
0
ARC
8
left_labelLayer
10
13.6170027
20
2.6669457
40
0.2766873
50
269.8803714
51
278.3024696
0
ARC
8
left_labelLayer
10
13.6194035
20
2.6468549
40
0.2564607
50
278.4198481
51
279.0090569
0
ARC
8
left_labelLayer
10
13.5885908
20
2.8437729
40
0.4557748
50
278.9584056
51
280.5097177
0
ARC
8
left_labelLayer
10
13.618189
20
2.6849424
40
0.2942099
50
280.4842908
51
282.6266914
0
ARC
8
left_labelLayer
10
13.6441421
20
2.5696362
40
0.1760191
50
282.5877228
51
285.580893
0
ARC
8
left_labelLayer
10
13.6563586
20
2.5246007
40
0.1293578
50
285.7265469
51
286.2472589
0
ARC
8
left_labelLayer
10
13.6571423
20
2.410844
40
0.082837
50
287.9872402
51
295.3056811
0
ARC
8
left_labelLayer
10
13.6371588
20
2.4712854
40
0.1464958
50
283.3064578
51
288.1210641
0
ARC
8
left_labelLayer
10
13.6160227
20
2.5594632
40
0.2371711
50
280.0068478
51
283.3725675
0
ARC
8
left_labelLayer
10
13.6016862
20
2.6373736
40
0.3163881
50
279.1877822
51
280.1119331
0
ARC
8
left_labelLayer
10
13.5932414
20
2.6853245
40
0.3650728
50
275.5258748
51
279.2945115
0
ARC
8
left_labelLayer
10
13.6030037
20
2.5833697
40
0.2626517
50
270.8934749
51
275.5478876
0
ARC
8
left_labelLayer
10
13.6042177
20
2.5392321
40
0.2185012
50
270.0071302
51
270.7556444
0
ARC
8
left_labelLayer
10
13.6008458
20
2.5407437
40
0.2200391
50
253.7847706
51
270.8851188
0
ARC
8
left_labelLayer
10
13.5747767
20
2.4518384
40
0.1273911
50
190.3817478
51
253.8772084
0
ARC
8
left_labelLayer
10
13.7076489
20
2.4877644
40
0.2648073
50
179.3550936
51
192.8477142
0
ARC
8
left_labelLayer
10
13.6967499
20
2.4932365
40
0.1696491
50
179.6416687
51
189.7502505
0
ARC
8
left_labelLayer
10
13.6368606
20
2.4825565
40
0.1088167
50
189.5484161
51
205.7871992
0
ARC
8
left_labelLayer
10
13.6122433
20
2.4712045
40
0.081714
50
206.1291921
51
221.4086474
0
ARC
8
left_labelLayer
10
13.6094859
20
2.4691122
40
0.0782625
50
221.5950458
51
262.350572
0
ARC
8
left_labelLayer
10
13.616049
20
2.5028519
40
0.1125936
50
261.3258573
51
270.1913335
0
LINE
8
back_outsideCutPath
10
0
20
10.6437
11
0
21
10.23565
0
LINE
8
back_outsideCutPath
10
0
20
10.23565
11
0.19685
21
10.23565
0
LINE
8
back_outsideCutPath
10
0.19685
20
10.23565
11
0.19685
21
9.7489
0
LINE
8
back_outsideCutPath
10
0.19685
20
9.7489
11
0
21
9.7489
0
LINE
8
back_outsideCutPath
10
0
20
9.7489
11
0
21
9.26215
0
LINE
8
back_outsideCutPath
10
0
20
9.26215
11
0.19685
21
9.26215
0
LINE
8
back_outsideCutPath
10
0.19685
20
9.26215
11
0.19685
21
8.7754
0
LINE
8
back_outsideCutPath
10
0.19685
20
8.7754
11
0
21
8.7754
0
LINE
8
back_outsideCutPath
10
0
20
8.7754
11
0
21
8.28865
0
LINE
8
back_outsideCutPath
10
0
20
8.28865
11
0.19685
21
8.28865
0
LINE
8
back_outsideCutPath
10
0.19685
20
8.28865
11
0.19685
21
7.8019
0
LINE
8
back_outsideCutPath
10
0.19685
20
7.8019
11
0
21
7.8019
0
LINE
8
back_outsideCutPath
10
0
20
7.8019
11
0
21
7.31515
0
LINE
8
back_outsideCutPath
10
0
20
7.31515
11
0.19685
21
7.31515
0
LINE
8
back_outsideCutPath
10
0.19685
20
7.31515
11
0.19685
21
6.8284
0
LINE
8
back_outsideCutPath
10
0.19685
20
6.8284
11
0
21
6.8284
0
LINE
8
back_outsideCutPath
10
0
20
6.8284
11
0
21
6.34165
0
LINE
8
back_outsideCutPath
10
0
20
6.34165
11
0.19685
21
6.34165
0
LINE
8
back_outsideCutPath
10
0.19685
20
6.34165
11
0.19685
21
5.8549
0
LINE
8
back_outsideCutPath
10
0.19685
20
5.8549
11
0
21
5.8549
0
LINE
8
back_outsideCutPath
10
0
20
5.8549
11
0
21
5.44685
0
LINE
8
back_outsideCutPath
10
0
20
5.44685
11
0.657975
21
5.44685
0
LINE
8
back_outsideCutPath
10
0.657975
20
5.44685
11
0.657975
21
5.6437
0
LINE
8
back_outsideCutPath
10
0.657975
20
5.6437
11
1.144725
21
5.6437
0
LINE
8
back_outsideCutPath
10
1.144725
20
5.6437
11
1.144725
21
5.44685
0
LINE
8
back_outsideCutPath
10
1.144725
20
5.44685
11
1.631475
21
5.44685
0
LINE
8
back_outsideCutPath
10
1.631475
20
5.44685
11
1.631475
21
5.6437
0
LINE
8
back_outsideCutPath
10
1.631475
20
5.6437
11
2.118225
21
5.6437
0
LINE
8
back_outsideCutPath
10
2.118225
20
5.6437
11
2.118225
21
5.44685
0
LINE
8
back_outsideCutPath
10
2.118225
20
5.44685
11
2.604975
21
5.44685
0
LINE
8
back_outsideCutPath
10
2.604975
20
5.44685
11
2.604975
21
5.6437
0
LINE
8
back_outsideCutPath
10
2.604975
20
5.6437
11
3.091725
21
5.6437
0
LINE
8
back_outsideCutPath
10
3.091725
20
5.6437
11
3.091725
21
5.44685
0
LINE
8
back_outsideCutPath
10
3.091725
20
5.44685
11
3.578475
21
5.44685
0
LINE
8
back_outsideCutPath
10
3.578475
20
5.44685
11
3.578475
21
5.6437
0
LINE
8
back_outsideCutPath
10
3.578475
20
5.6437
11
4.065225
21
5.6437
0
LINE
8
back_outsideCutPath
10
4.065225
20
5.6437
11
4.065225
21
5.44685
0
LINE
8
back_outsideCutPath
10
4.065225
20
5.44685
11
4.551975
21
5.44685
0
LINE
8
back_outsideCutPath
10
4.551975
20
5.44685
11
4.551975
21
5.6437
0
LINE
8
back_outsideCutPath
10
4.551975
20
5.6437
11
5.038725
21
5.6437
0
LINE
8
back_outsideCutPath
10
5.038725
20
5.6437
11
5.038725
21
5.44685
0
LINE
8
back_outsideCutPath
10
5.038725
20
5.44685
11
5.525475
21
5.44685
0
LINE
8
back_outsideCutPath
10
5.525475
20
5.44685
11
5.525475
21
5.6437
0
LINE
8
back_outsideCutPath
10
5.525475
20
5.6437
11
6.012225
21
5.6437
0
LINE
8
back_outsideCutPath
10
6.012225
20
5.6437
11
6.012225
21
5.44685
0
LINE
8
back_outsideCutPath
10
6.012225
20
5.44685
11
6.498975
21
5.44685
0
LINE
8
back_outsideCutPath
10
6.498975
20
5.44685
11
6.498975
21
5.6437
0
LINE
8
back_outsideCutPath
10
6.498975
20
5.6437
11
6.985725
21
5.6437
0
LINE
8
back_outsideCutPath
10
6.985725
20
5.6437
11
6.985725
21
5.44685
0
LINE
8
back_outsideCutPath
10
6.985725
20
5.44685
11
7.472475
21
5.44685
0
LINE
8
back_outsideCutPath
10
7.472475
20
5.44685
11
7.6437
21
5.44685
0
LINE
8
back_outsideCutPath
10
7.6437
20
5.44685
11
7.6437
21
5.8549
0
LINE
8
back_outsideCutPath
10
7.6437
20
5.8549
11
7.44685
21
5.8549
0
LINE
8
back_outsideCutPath
10
7.44685
20
5.8549
11
7.44685
21
6.34165
0
LINE
8
back_outsideCutPath
10
7.44685
20
6.34165
11
7.6437
21
6.34165
0
LINE
8
back_outsideCutPath
10
7.6437
20
6.34165
11
7.6437
21
6.8284
0
LINE
8
back_outsideCutPath
10
7.6437
20
6.8284
11
7.44685
21
6.8284
0
LINE
8
back_outsideCutPath
10
7.44685
20
6.8284
11
7.44685
21
7.31515
0
LINE
8
back_outsideCutPath
10
7.44685
20
7.31515
11
7.6437
21
7.31515
0
LINE
8
back_outsideCutPath
10
7.6437
20
7.31515
11
7.6437
21
7.8019
0
LINE
8
back_outsideCutPath
10
7.6437
20
7.8019
11
7.44685
21
7.8019
0
LINE
8
back_outsideCutPath
10
7.44685
20
7.8019
11
7.44685
21
8.28865
0
LINE
8
back_outsideCutPath
10
7.44685
20
8.28865
11
7.6437
21
8.28865
0
LINE
8
back_outsideCutPath
10
7.6437
20
8.28865
11
7.6437
21
8.7754
0
LINE
8
back_outsideCutPath
10
7.6437
20
8.7754
11
7.44685
21
8.7754
0
LINE
8
back_outsideCutPath
10
7.44685
20
8.7754
11
7.44685
21
9.26215
0
LINE
8
back_outsideCutPath
10
7.44685
20
9.26215
11
7.6437
21
9.26215
0
LINE
8
back_outsideCutPath
10
7.6437
20
9.26215
11
7.6437
21
9.7489
0
LINE
8
back_outsideCutPath
10
7.6437
20
9.7489
11
7.44685
21
9.7489
0
LINE
8
back_outsideCutPath
10
7.44685
20
9.7489
11
7.44685
21
10.23565
0
LINE
8
back_outsideCutPath
10
7.44685
20
10.23565
11
7.6437
21
10.23565
0
LINE
8
back_outsideCutPath
10
7.6437
20
10.23565
11
7.6437
21
10.6437
0
LINE
8
back_outsideCutPath
10
7.6437
20
10.6437
11
0
21
10.6437
0
LINE
8
back_labelLayer
10
2.8286629
20
7.7270752
11
2.8225729
21
7.7270752
0
LINE
8
back_labelLayer
10
2.8225729
20
7.7270752
11
2.8048102
21
7.655517
0
LINE
8
back_labelLayer
10
2.8048102
20
7.655517
11
2.7444171
21
7.655517
0
LINE
8
back_labelLayer
10
2.7444171
20
7.655517
11
2.7444171
21
8.4451946
0
LINE
8
back_labelLayer
10
2.7444171
20
8.4451946
11
2.8286629
21
8.4451946
0
LINE
8
back_labelLayer
10
2.8286629
20
8.4451946
11
2.8286629
21
8.2533577
0
LINE
8
back_labelLayer
10
2.8246029
20
8.1376466
11
2.8286629
21
8.1376466
0
ARC
8
back_labelLayer
10
3.0057713
20
7.9634013
40
0.2574886
50
74.2394541
51
90.5622372
0
ARC
8
back_labelLayer
10
3.0227985
20
8.0258664
40
0.1927478
50
38.5629745
51
74.0671687
0
ARC
8
back_labelLayer
10
2.9789825
20
7.9917959
40
0.2482481
50
16.471029
51
38.4075923
0
ARC
8
back_labelLayer
10
2.8527558
20
7.9522167
40
0.3805228
50
5.1337432
51
16.7971562
0
ARC
8
back_labelLayer
10
2.6933804
20
7.9352873
40
0.5407802
50
359.8781382
51
5.4092529
0
ARC
8
back_labelLayer
10
2.740219
20
7.931222
40
0.493949
50
350.6563235
51
0.3381514
0
ARC
8
back_labelLayer
10
2.9124215
20
7.9019316
40
0.319277
50
335.8304542
51
350.8256545
0
ARC
8
back_labelLayer
10
2.9881726
20
7.8692339
40
0.2367816
50
321.3157808
51
335.5439377
0
ARC
8
back_labelLayer
10
3.0171218
20
7.8456429
40
0.1994391
50
274.0639787
51
321.408071
0
ARC
8
back_labelLayer
10
3.0036308
20
7.9310794
40
0.2857129
50
269.9225565
51
275.5485388
0
ARC
8
back_labelLayer
10
3.0018232
20
7.9008942
40
0.2555313
50
255.7754579
51
270.3187256
0
ARC
8
back_labelLayer
10
2.9945361
20
7.8685116
40
0.2223527
50
245.9803556
51
255.5452322
0
ARC
8
back_labelLayer
10
2.980406
20
7.8356518
40
0.1865873
50
215.5848548
51
245.836321
0
ARC
8
back_labelLayer
10
1.0719238
20
8.2518784
40
1.7567397
50
358.1124403
51
0.0482482
0
ARC
8
back_labelLayer
10
1.5611488
20
8.2354554
40
1.2672394
50
355.7237877
51
358.1260002
0
ARC
8
back_labelLayer
10
1.8157133
20
8.217596
40
1.0120525
50
355.4690688
51
355.6574455
0
ARC
8
back_labelLayer
10
2.9857781
20
8.0280857
40
0.1915432
50
95.1836248
51
145.1108223
0
ARC
8
back_labelLayer
10
3.0026135
20
7.9331497
40
0.2877284
50
89.8743153
51
96.8145733
0
ARC
8
back_labelLayer
10
2.9892999
20
7.9136149
40
0.2367259
50
89.5728957
51
100.7327484
0
ARC
8
back_labelLayer
10
2.9717763
20
8.0021444
40
0.1464836
50
100.4470773
51
119.6699329
0
ARC
8
back_labelLayer
10
2.9555228
20
8.0325314
40
0.1120388
50
120.1399819
51
142.4250293
0
ARC
8
back_labelLayer
10
2.9824102
20
8.0147442
40
0.1442135
50
143.3382973
51
161.2561229
0
ARC
8
back_labelLayer
10
3.0948438
20
7.9748263
40
0.2635165
50
160.8926588
51
171.2334453
0
ARC
8
back_labelLayer
10
3.2825364
20
7.9445466
40
0.4536333
50
171.0667348
51
177.8456562
0
ARC
8
back_labelLayer
10
3.4777617
20
7.9346189
40
0.6490989
50
177.6177546
51
180.0425253
0
ARC
8
back_labelLayer
10
3.3856821
20
7.9319638
40
0.5570234
50
179.7764501
51
185.7077391
0
ARC
8
back_labelLayer
10
3.1660421
20
7.9093291
40
0.3362221
50
185.5921274
51
194.2054232
0
ARC
8
back_labelLayer
10
3.0253951
20
7.8728249
40
0.1909197
50
193.943333
51
208.0214095
0
ARC
8
back_labelLayer
10
2.9684643
20
7.8438656
40
0.1270631
50
208.5542751
51
217.5611418
0
ARC
8
back_labelLayer
10
2.9638273
20
7.8419351
40
0.1222176
50
218.1689592
51
253.8047117
0
ARC
8
back_labelLayer
10
2.9864976
20
7.9118344
40
0.1956792
50
253.1385934
51
266.8480953
0
ARC
8
back_labelLayer
10
2.9928502
20
7.9867451
40
0.270835
50
266.3775656
51
270.0516901
0
ARC
8
back_labelLayer
10
2.994891
20
7.8838439
40
0.1679434
50
269.3870863
51
285.8632304
0
ARC
8
back_labelLayer
10
3.0073688
20
7.8387495
40
0.1211563
50
286.0162846
51
326.849772
0
ARC
8
back_labelLayer
10
2.9471497
20
7.8786433
40
0.1933901
50
326.7103267
51
343.6661823
0
ARC
8
back_labelLayer
10
2.8344298
20
7.9130884
40
0.3112505
50
343.4168682
51
353.6370586
0
ARC
8
back_labelLayer
10
2.6641433
20
7.933294
40
0.4827287
50
353.4935737
51
0.2205524
0
ARC
8
back_labelLayer
10
2.6491399
20
7.9371653
40
0.4977326
50
359.768259
51
6.3096873
0
ARC
8
back_labelLayer
10
2.8366242
20
7.9586814
40
0.3090206
50
6.1649285
51
16.0396349
0
ARC
8
back_labelLayer
10
2.9573977
20
7.9942733
40
0.1831165
50
15.7779393
51
32.0147865
0
ARC
8
back_labelLayer
10
2.9950503
20
8.0158349
40
0.1397697
50
32.702949
51
35.5234818
0
ARC
8
back_labelLayer
10
3.0088384
20
8.025633
40
0.1228548
50
35.5407613
51
79.8013393
0
ARC
8
back_labelLayer
10
2.9923404
20
7.9554973
40
0.194841
50
78.6782375
51
90.3752042
0
LINE
8
back_labelLayer
10
3.7858172
20
7.655517
11
3.7233941
21
7.655517
0
LINE
8
back_labelLayer
10
3.7233941
20
7.655517
11
3.7066464
21
7.7346877
0
LINE
8
back_labelLayer
10
3.7066464
20
7.7346877
11
3.7025864
21
7.7346877
0
LINE
8
back_labelLayer
10
3.6092055
20
7.9859027
11
3.7036014
21
7.9889477
0
LINE
8
back_labelLayer
10
3.7036014
20
7.9889477
11
3.7036014
21
8.023458
0
LINE
8
back_labelLayer
10
3.4280262
20
8.1087188
11
3.4021435
21
8.173172
0
LINE
8
back_labelLayer
10
3.7858172
20
8.0351306
11
3.7858172
21
7.655517
0
LINE
8
back_labelLayer
10
3.7015713
20
7.8788191
11
3.7015713
21
7.9290621
0
LINE
8
back_labelLayer
10
3.7015713
20
7.9290621
11
3.6173255
21
7.9255096
0
ARC
8
back_labelLayer
10
3.428506
20
7.9510863
40
0.3492111
50
314.7440821
51
321.7073463
0
ARC
8
back_labelLayer
10
3.514295
20
7.8639121
40
0.226905
50
304.8483488
51
314.8534717
0
ARC
8
back_labelLayer
10
3.5554969
20
7.805267
40
0.1552341
50
294.3937203
51
304.736554
0
ARC
8
back_labelLayer
10
3.5414238
20
7.8417373
40
0.1942739
50
281.297803
51
293.7314276
0
ARC
8
back_labelLayer
10
3.5228078
20
7.931952
40
0.2863881
50
272.9334871
51
281.4141248
0
ARC
8
back_labelLayer
10
3.5166405
20
8.0244766
40
0.3791097
50
269.9533791
51
273.1487109
0
ARC
8
back_labelLayer
10
3.5145067
20
7.9039109
40
0.2585505
50
258.6722606
51
270.404511
0
ARC
8
back_labelLayer
10
3.4965466
20
7.8179925
40
0.1707796
50
238.3273323
51
258.9185241
0
ARC
8
back_labelLayer
10
3.4841819
20
7.7954281
40
0.1450896
50
227.7693002
51
237.8042525
0
ARC
8
back_labelLayer
10
3.4803007
20
7.7900119
40
0.1384728
50
192.0828038
51
227.4520994
0
ARC
8
back_labelLayer
10
3.5516827
20
7.8076095
40
0.2119691
50
179.5454957
51
192.6952472
0
ARC
8
back_labelLayer
10
3.4853698
20
7.8152857
40
0.1457728
50
115.4904106
51
182.3568721
0
ARC
8
back_labelLayer
10
3.5583732
20
7.6813854
40
0.2981714
50
101.3567357
51
117.0800811
0
ARC
8
back_labelLayer
10
3.6170044
20
7.4073973
40
0.578351
50
92.4696326
51
101.7064734
0
ARC
8
back_labelLayer
10
3.6338575
20
7.1632964
40
0.8229756
50
91.7165398
51
92.9095794
0
ARC
8
back_labelLayer
10
3.4616396
20
8.0247532
40
0.2419652
50
359.6933185
51
8.0038704
0
ARC
8
back_labelLayer
10
3.5531689
20
8.0380886
40
0.1494715
50
7.8271454
51
20.6044185
0
ARC
8
back_labelLayer
10
3.6049625
20
8.0579027
40
0.0940188
50
20.4095715
51
41.4481173
0
ARC
8
back_labelLayer
10
3.6126157
20
8.0621099
40
0.0855188
50
42.7295145
51
71.0381188
0
ARC
8
back_labelLayer
10
3.5945978
20
8.0131161
40
0.1377133
50
70.5720612
51
83.9930952
0
ARC
8
back_labelLayer
10
3.585988
20
7.9431643
40
0.2081859
50
83.6512272
51
90.174828
0
ARC
8
back_labelLayer
10
3.5875006
20
7.877066
40
0.2742917
50
90.4486745
51
103.7664832
0
ARC
8
back_labelLayer
10
3.6197517
20
7.7410594
40
0.4140673
50
103.6225432
51
112.4320439
0
ARC
8
back_labelLayer
10
3.6750326
20
7.6014731
40
0.5641902
50
112.2120342
51
115.9640481
0
ARC
8
back_labelLayer
10
3.5865022
20
7.8312824
40
0.3884284
50
106.3568905
51
118.3350881
0
ARC
8
back_labelLayer
10
3.6029752
20
7.780423
40
0.4418708
50
104.515266
51
106.5492214
0
ARC
8
back_labelLayer
10
3.590915
20
7.8307258
40
0.3901521
50
90.0715472
51
104.6522117
0
ARC
8
back_labelLayer
10
3.5924466
20
7.8650765
40
0.3558067
50
81.5681365
51
90.3250993
0
ARC
8
back_labelLayer
10
3.6130197
20
7.9991041
40
0.220212
50
68.2272308
51
81.7497019
0
ARC
8
back_labelLayer
10
3.641672
20
8.0703922
40
0.1433816
50
47.8681571
51
68.2934002
0
ARC
8
back_labelLayer
10
3.6463231
20
8.0796774
40
0.1334045
50
19.2330319
51
46.674261
0
ARC
8
back_labelLayer
10
3.5688469
20
8.0508569
40
0.2160568
50
6.3379594
51
19.6813254
0
ARC
8
back_labelLayer
10
3.4543474
20
8.0362738
40
0.3314716
50
359.8024002
51
6.658439
0
ARC
8
back_labelLayer
10
3.5347824
20
7.9468484
40
0.2319596
50
269.5794198
51
282.0412296
0
ARC
8
back_labelLayer
10
3.5517033
20
7.8717932
40
0.1550284
50
281.7119519
51
306.4595406
0
ARC
8
back_labelLayer
10
3.5592033
20
7.8594595
40
0.1406578
50
306.9879764
51
313.8556475
0
ARC
8
back_labelLayer
10
3.5583134
20
7.8592009
40
0.1410902
50
314.18901
51
347.427057
0
ARC
8
back_labelLayer
10
3.4876408
20
7.8769125
40
0.2139319
50
346.9174587
51
0.2824445
0
ARC
8
back_labelLayer
10
3.3994312
20
7.8788896
40
0.3021402
50
359.8250713
51
359.9866443
0
ARC
8
back_labelLayer
10
3.637365
20
7.3072258
40
0.6186084
50
91.8563923
51
96.4475633
0
ARC
8
back_labelLayer
10
3.6094647
20
7.5486751
40
0.3755536
50
96.3544069
51
102.9957128
0
ARC
8
back_labelLayer
10
3.5715985
20
7.7095423
40
0.2102928
50
102.7993106
51
113.2436064
0
ARC
8
back_labelLayer
10
3.5403761
20
7.7842083
40
0.1293677
50
113.5882383
51
121.6813277
0
ARC
8
back_labelLayer
10
3.5186971
20
7.817221
40
0.0898958
50
120.9735811
51
172.4177513
0
ARC
8
back_labelLayer
10
3.5610849
20
7.8087552
40
0.1330594
50
171.2125313
51
180.2063746
0
ARC
8
back_labelLayer
10
3.5484163
20
7.8072804
40
0.1203942
50
179.5261915
51
192.7786393
0
ARC
8
back_labelLayer
10
3.507689
20
7.7974075
40
0.0784942
50
192.3260453
51
222.0583915
0
ARC
8
back_labelLayer
10
3.5046614
20
7.7955964
40
0.0750362
50
222.580273
51
229.2544873
0
ARC
8
back_labelLayer
10
3.514899
20
7.8087776
40
0.0917085
50
229.783807
51
254.272287
0
ARC
8
back_labelLayer
10
3.5285334
20
7.8542162
40
0.1391441
50
253.9399254
51
266.4532704
0
ARC
8
back_labelLayer
10
3.5328818
20
7.9043621
40
0.189467
50
266.0789244
51
270.0598509
0
LINE
8
back_labelLayer
10
4.3303699
20
8.1929647
11
4.3044871
21
8.1214065
0
LINE
8
back_labelLayer
10
4.3222498
20
7.7488979
11
4.3222498
21
7.6742947
0
ARC
8
back_labelLayer
10
4.1789846
20
7.9602228
40
0.3148674
50
256.4245504
51
270.4888436
0
ARC
8
back_labelLayer
10
4.153824
20
7.8620176
40
0.2135047
50
221.7976337
51
256.8019648
0
ARC
8
back_labelLayer
10
4.1781883
20
7.8800191
40
0.2436828
50
196.0165656
51
221.1348559
0
ARC
8
back_labelLayer
10
4.3006484
20
7.9174493
40
0.3717234
50
183.5914944
51
196.3539261
0
ARC
8
back_labelLayer
10
4.437798
20
7.9295307
40
0.5093721
50
179.9385388
51
183.9813946
0
ARC
8
back_labelLayer
10
4.3932591
20
7.9330699
40
0.4648427
50
169.8980025
51
180.3688877
0
ARC
8
back_labelLayer
10
4.2314341
20
7.9630037
40
0.3002779
50
153.0876172
51
170.1051126
0
ARC
8
back_labelLayer
10
4.1700299
20
7.9923444
40
0.232249
50
138.6548265
51
152.6854752
0
ARC
8
back_labelLayer
10
4.1585741
20
8.0006936
40
0.2181371
50
101.4911929
51
138.313504
0
ARC
8
back_labelLayer
10
4.1848833
20
7.8911959
40
0.330705
50
89.5893429
51
102.1786683
0
ARC
8
back_labelLayer
10
4.1869064
20
7.8417169
40
0.3801757
50
77.770329
51
89.9476804
0
ARC
8
back_labelLayer
10
4.1797471
20
7.8021703
40
0.4203435
50
74.6791046
51
77.9584883
0
ARC
8
back_labelLayer
10
4.2185751
20
7.9428248
40
0.2744285
50
70.0944515
51
74.7383297
0
ARC
8
back_labelLayer
10
4.255553
20
8.0441611
40
0.1665569
50
63.5032901
51
70.1861853
0
ARC
8
back_labelLayer
10
4.2718343
20
8.0783816
40
0.1286689
50
62.9394527
51
63.1932558
0
ARC
8
back_labelLayer
10
4.1660906
20
7.7731103
40
0.374785
50
68.3294512
51
74.8830264
0
ARC
8
back_labelLayer
10
4.1463194
20
7.7029865
40
0.447639
50
74.7807099
51
77.4501413
0
ARC
8
back_labelLayer
10
4.1670754
20
7.8004158
40
0.3480289
50
77.3002749
51
81.734527
0
ARC
8
back_labelLayer
10
4.1822225
20
7.9059687
40
0.2413951
50
81.6907482
51
87.5081895
0
ARC
8
back_labelLayer
10
4.1851414
20
7.9603927
40
0.1868964
50
87.6767909
51
89.9748369
0
ARC
8
back_labelLayer
10
4.1810477
20
7.9604637
40
0.1868722
50
88.719573
51
112.5665955
0
ARC
8
back_labelLayer
10
4.1677689
20
8.0043677
40
0.1413083
50
114.4265719
51
161.663204
0
ARC
8
back_labelLayer
10
4.2996846
20
7.9527361
40
0.2828688
50
160.1420547
51
175.1365626
0
ARC
8
back_labelLayer
10
4.4812658
20
7.9323491
40
0.4655506
50
174.5311675
51
180.1546915
0
ARC
8
back_labelLayer
10
4.4237131
20
7.9289853
40
0.4080017
50
179.7041301
51
188.0743195
0
ARC
8
back_labelLayer
10
4.2767472
20
7.9074824
40
0.2594733
50
187.931408
51
200.3887789
0
ARC
8
back_labelLayer
10
4.1972903
20
7.8780455
40
0.1747389
50
200.4180233
51
216.6393457
0
ARC
8
back_labelLayer
10
4.1639822
20
7.8542347
40
0.1338046
50
216.9696782
51
261.3102558
0
ARC
8
back_labelLayer
10
4.1786843
20
7.9227759
40
0.2038232
50
260.1357654
51
270.2689164
0
ARC
8
back_labelLayer
10
4.1780039
20
8.0716209
40
0.3526696
50
270.2659618
51
286.2889651
0
ARC
8
back_labelLayer
10
4.1565641
20
8.1515768
40
0.4354333
50
286.0459353
51
292.3651436
0
ARC
8
back_labelLayer
10
4.213659
20
7.8879207
40
0.2396415
50
282.0346187
51
296.9452242
0
ARC
8
back_labelLayer
10
4.1890174
20
7.9989756
40
0.3533947
50
272.5978918
51
282.1877973
0
ARC
8
back_labelLayer
10
4.181953
20
8.1072881
40
0.4619212
50
269.96502
51
272.8643017
0
LINE
8
back_labelLayer
10
4.5333718
20
7.9402272
11
4.5374319
21
7.9402272
0
LINE
8
back_labelLayer
10
4.603915
20
8.021428
11
4.7835718
21
8.2117423
0
LINE
8
back_labelLayer
10
4.7835718
20
8.2117423
11
4.8835502
21
8.2117423
0
LINE
8
back_labelLayer
10
4.8835502
20
8.2117423
11
4.658218
21
7.9747376
0
LINE
8
back_labelLayer
10
4.658218
20
7.9747376
11
4.8992829
21
7.655517
0
LINE
8
back_labelLayer
10
4.8992829
20
7.655517
11
4.7972744
21
7.655517
0
LINE
8
back_labelLayer
10
4.7972744
20
7.655517
11
4.60087
21
7.9184045
0
LINE
8
back_labelLayer
10
4.60087
20
7.9184045
11
4.5374319
21
7.863594
0
LINE
8
back_labelLayer
10
4.5374319
20
7.863594
11
4.5374319
21
7.655517
0
LINE
8
back_labelLayer
10
4.5374319
20
7.655517
11
4.4542011
21
7.655517
0
LINE
8
back_labelLayer
10
4.4542011
20
7.655517
11
4.4542011
21
8.4451946
0
LINE
8
back_labelLayer
10
4.4542011
20
8.4451946
11
4.5374319
21
8.4451946
0
LINE
8
back_labelLayer
10
4.5374319
20
8.4451946
11
4.5374319
21
8.026503
0
ARC
8
back_labelLayer
10
4.9445529
20
7.6520455
40
0.4987948
50
142.3233123
51
144.7071278
0
ARC
8
back_labelLayer
10
5.2102846
20
7.447079
40
0.8343908
50
140.4335832
51
142.3364441
0
ARC
8
back_labelLayer
10
5.5550397
20
7.1632968
40
1.2809194
50
139.2791312
51
140.470955
0
ARC
8
back_labelLayer
10
5.9561879
20
6.8183634
40
1.8099742
50
138.3417546
51
139.2878363
0
ARC
8
back_labelLayer
10
3.9766338
20
8.0275457
40
0.5607991
50
358.2728792
51
359.8934785
0
ARC
8
back_labelLayer
10
3.5399079
20
8.0397049
40
0.9976936
50
357.5037297
51
358.3308202
0
ARC
8
back_labelLayer
10
2.8838041
20
8.0686941
40
1.6544375
50
356.6327981
51
357.4903795
0
ARC
8
back_labelLayer
10
1.8028382
20
8.1317309
40
2.7372398
50
356.0323642
51
356.6445709
0
ARC
8
back_labelLayer
10
0.144461
20
8.2451618
40
4.3994914
50
356.0255672
51
356.0530592
0
LINE
8
right_outsideCutPath
10
7.96555
20
10.6437
11
7.96555
21
10.23565
0
LINE
8
right_outsideCutPath
10
7.96555
20
10.23565
11
7.7687
21
10.23565
0
LINE
8
right_outsideCutPath
10
7.7687
20
10.23565
11
7.7687
21
9.7489
0
LINE
8
right_outsideCutPath
10
7.7687
20
9.7489
11
7.96555
21
9.7489
0
LINE
8
right_outsideCutPath
10
7.96555
20
9.7489
11
7.96555
21
9.26215
0
LINE
8
right_outsideCutPath
10
7.96555
20
9.26215
11
7.7687
21
9.26215
0
LINE
8
right_outsideCutPath
10
7.7687
20
9.26215
11
7.7687
21
8.7754
0
LINE
8
right_outsideCutPath
10
7.7687
20
8.7754
11
7.96555
21
8.7754
0
LINE
8
right_outsideCutPath
10
7.96555
20
8.7754
11
7.96555
21
8.28865
0
LINE
8
right_outsideCutPath
10
7.96555
20
8.28865
11
7.7687
21
8.28865
0
LINE
8
right_outsideCutPath
10
7.7687
20
8.28865
11
7.7687
21
7.8019
0
LINE
8
right_outsideCutPath
10
7.7687
20
7.8019
11
7.96555
21
7.8019
0
LINE
8
right_outsideCutPath
10
7.96555
20
7.8019
11
7.96555
21
7.31515
0
LINE
8
right_outsideCutPath
10
7.96555
20
7.31515
11
7.7687
21
7.31515
0
LINE
8
right_outsideCutPath
10
7.7687
20
7.31515
11
7.7687
21
6.8284
0
LINE
8
right_outsideCutPath
10
7.7687
20
6.8284
11
7.96555
21
6.8284
0
LINE
8
right_outsideCutPath
10
7.96555
20
6.8284
11
7.96555
21
6.34165
0
LINE
8
right_outsideCutPath
10
7.96555
20
6.34165
11
7.7687
21
6.34165
0
LINE
8
right_outsideCutPath
10
7.7687
20
6.34165
11
7.7687
21
5.8549
0
LINE
8
right_outsideCutPath
10
7.7687
20
5.8549
11
7.96555
21
5.8549
0
LINE
8
right_outsideCutPath
10
7.96555
20
5.8549
11
7.96555
21
5.44685
0
LINE
8
right_outsideCutPath
10
7.96555
20
5.44685
11
8.341425
21
5.44685
0
LINE
8
right_outsideCutPath
10
8.341425
20
5.44685
11
8.341425
21
5.6437
0
LINE
8
right_outsideCutPath
10
8.341425
20
5.6437
11
8.828175
21
5.6437
0
LINE
8
right_outsideCutPath
10
8.828175
20
5.6437
11
8.828175
21
5.44685
0
LINE
8
right_outsideCutPath
10
8.828175
20
5.44685
11
9.314925
21
5.44685
0
LINE
8
right_outsideCutPath
10
9.314925
20
5.44685
11
9.314925
21
5.6437
0
LINE
8
right_outsideCutPath
10
9.314925
20
5.6437
11
9.801675
21
5.6437
0
LINE
8
right_outsideCutPath
10
9.801675
20
5.6437
11
9.801675
21
5.44685
0
LINE
8
right_outsideCutPath
10
9.801675
20
5.44685
11
10.288425
21
5.44685
0
LINE
8
right_outsideCutPath
10
10.288425
20
5.44685
11
10.288425
21
5.6437
0
LINE
8
right_outsideCutPath
10
10.288425
20
5.6437
11
10.775175
21
5.6437
0
LINE
8
right_outsideCutPath
10
10.775175
20
5.6437
11
10.775175
21
5.44685
0
LINE
8
right_outsideCutPath
10
10.775175
20
5.44685
11
11.261925
21
5.44685
0
LINE
8
right_outsideCutPath
10
11.261925
20
5.44685
11
11.261925
21
5.6437
0
LINE
8
right_outsideCutPath
10
11.261925
20
5.6437
11
11.748675
21
5.6437
0
LINE
8
right_outsideCutPath
10
11.748675
20
5.6437
11
11.748675
21
5.44685
0
LINE
8
right_outsideCutPath
10
11.748675
20
5.44685
11
12.235425
21
5.44685
0
LINE
8
right_outsideCutPath
10
12.235425
20
5.44685
11
12.235425
21
5.6437
0
LINE
8
right_outsideCutPath
10
12.235425
20
5.6437
11
12.722175
21
5.6437
0
LINE
8
right_outsideCutPath
10
12.722175
20
5.6437
11
12.722175
21
5.44685
0
LINE
8
right_outsideCutPath
10
12.722175
20
5.44685
11
13.208925
21
5.44685
0
LINE
8
right_outsideCutPath
10
13.208925
20
5.44685
11
13.208925
21
5.6437
0
LINE
8
right_outsideCutPath
10
13.208925
20
5.6437
11
13.695675
21
5.6437
0
LINE
8
right_outsideCutPath
10
13.695675
20
5.6437
11
13.695675
21
5.44685
0
LINE
8
right_outsideCutPath
10
13.695675
20
5.44685
11
14.182425
21
5.44685
0
LINE
8
right_outsideCutPath
10
14.182425
20
5.44685
11
14.182425
21
5.6437
0
LINE
8
right_outsideCutPath
10
14.182425
20
5.6437
11
14.669175
21
5.6437
0
LINE
8
right_outsideCutPath
10
14.669175
20
5.6437
11
14.669175
21
5.44685
0
LINE
8
right_outsideCutPath
10
14.669175
20
5.44685
11
15.155925
21
5.44685
0
LINE
8
right_outsideCutPath
10
15.155925
20
5.44685
11
15.155925
21
5.6437
0
LINE
8
right_outsideCutPath
10
15.155925
20
5.6437
11
15.642675
21
5.6437
0
LINE
8
right_outsideCutPath
10
15.642675
20
5.6437
11
15.642675
21
5.44685
0
LINE
8
right_outsideCutPath
10
15.642675
20
5.44685
11
16.129425
21
5.44685
0
LINE
8
right_outsideCutPath
10
16.129425
20
5.44685
11
16.129425
21
5.6437
0
LINE
8
right_outsideCutPath
10
16.129425
20
5.6437
11
16.616175
21
5.6437
0
LINE
8
right_outsideCutPath
10
16.616175
20
5.6437
11
16.616175
21
5.44685
0
LINE
8
right_outsideCutPath
10
16.616175
20
5.44685
11
17.102925
21
5.44685
0
LINE
8
right_outsideCutPath
10
17.102925
20
5.44685
11
17.102925
21
5.6437
0
LINE
8
right_outsideCutPath
10
17.102925
20
5.6437
11
17.589675
21
5.6437
0
LINE
8
right_outsideCutPath
10
17.589675
20
5.6437
11
17.589675
21
5.44685
0
LINE
8
right_outsideCutPath
10
17.589675
20
5.44685
11
17.96555
21
5.44685
0
LINE
8
right_outsideCutPath
10
17.96555
20
5.44685
11
17.96555
21
5.8549
0
LINE
8
right_outsideCutPath
10
17.96555
20
5.8549
11
18.1624
21
5.8549
0
LINE
8
right_outsideCutPath
10
18.1624
20
5.8549
11
18.1624
21
6.34165
0
LINE
8
right_outsideCutPath
10
18.1624
20
6.34165
11
17.96555
21
6.34165
0
LINE
8
right_outsideCutPath
10
17.96555
20
6.34165
11
17.96555
21
6.8284
0
LINE
8
right_outsideCutPath
10
17.96555
20
6.8284
11
18.1624
21
6.8284
0
LINE
8
right_outsideCutPath
10
18.1624
20
6.8284
11
18.1624
21
7.31515
0
LINE
8
right_outsideCutPath
10
18.1624
20
7.31515
11
17.96555
21
7.31515
0
LINE
8
right_outsideCutPath
10
17.96555
20
7.31515
11
17.96555
21
7.8019
0
LINE
8
right_outsideCutPath
10
17.96555
20
7.8019
11
18.1624
21
7.8019
0
LINE
8
right_outsideCutPath
10
18.1624
20
7.8019
11
18.1624
21
8.28865
0
LINE
8
right_outsideCutPath
10
18.1624
20
8.28865
11
17.96555
21
8.28865
0
LINE
8
right_outsideCutPath
10
17.96555
20
8.28865
11
17.96555
21
8.7754
0
LINE
8
right_outsideCutPath
10
17.96555
20
8.7754
11
18.1624
21
8.7754
0
LINE
8
right_outsideCutPath
10
18.1624
20
8.7754
11
18.1624
21
9.26215
0
LINE
8
right_outsideCutPath
10
18.1624
20
9.26215
11
17.96555
21
9.26215
0
LINE
8
right_outsideCutPath
10
17.96555
20
9.26215
11
17.96555
21
9.7489
0
LINE
8
right_outsideCutPath
10
17.96555
20
9.7489
11
18.1624
21
9.7489
0
LINE
8
right_outsideCutPath
10
18.1624
20
9.7489
11
18.1624
21
10.23565
0
LINE
8
right_outsideCutPath
10
18.1624
20
10.23565
11
17.96555
21
10.23565
0
LINE
8
right_outsideCutPath
10
17.96555
20
10.23565
11
17.96555
21
10.6437
0
LINE
8
right_outsideCutPath
10
17.96555
20
10.6437
11
7.96555
21
10.6437
0
LINE
8
right_labelLayer
10
12.2106365
20
8.3355708
11
12.1989639
21
8.2574151
0
LINE
8
right_labelLayer
10
11.9746467
20
8.0736983
11
11.9746467
21
7.7752854
0
LINE
8
right_labelLayer
10
11.9746467
20
7.7752854
11
11.8904009
21
7.7752854
0
LINE
8
right_labelLayer
10
11.8904009
20
7.7752854
11
11.8904009
21
8.3315108
0
LINE
8
right_labelLayer
10
11.8904009
20
8.3315108
11
11.9599291
21
8.3315108
0
LINE
8
right_labelLayer
10
11.9599291
20
8.3315108
11
11.9695716
21
8.2284873
0
LINE
8
right_labelLayer
10
11.9695716
20
8.2284873
11
11.9736317
21
8.2284873
0
ARC
8
right_labelLayer
10
12.145018
20
7.9548734
40
0.3867884
50
84.9926612
51
90.1280861
0
ARC
8
right_labelLayer
10
12.1543047
20
8.0589577
40
0.2822907
50
78.489222
51
85.0264426
0
ARC
8
right_labelLayer
10
12.1182563
20
7.8950132
40
0.37128
50
77.4450083
51
81.6358204
0
ARC
8
right_labelLayer
10
12.1344303
20
8.0065003
40
0.258626
50
81.5880956
51
87.191236
0
ARC
8
right_labelLayer
10
12.1379504
20
8.0675407
40
0.1974869
50
87.3434827
51
89.9672676
0
ARC
8
right_labelLayer
10
12.1371296
20
8.1190571
40
0.1459735
50
89.633538
51
137.0879475
0
ARC
8
right_labelLayer
10
12.173016
20
8.078716
40
0.1997892
50
135.6218642
51
138.8373375
0
ARC
8
right_labelLayer
10
12.1677051
20
8.083896
40
0.1923819
50
138.9576679
51
174.5422643
0
ARC
8
right_labelLayer
10
12.2303728
20
8.0740905
40
0.2557266
50
173.6906997
51
180.0878761
0
ARC
8
right_labelLayer
10
12.2214867
20
8.0888486
40
0.2844839
50
139.4135568
51
150.6035814
0
ARC
8
right_labelLayer
10
12.170488
20
8.1325518
40
0.2173212
50
124.2320244
51
139.4161413
0
ARC
8
right_labelLayer
10
12.1432144
20
8.1737214
40
0.167942
50
89.679659
51
124.4404324
0
LINE
8
right_labelLayer
10
12.3989208
20
8.3315108
11
12.3989208
21
7.7752854
0
LINE
8
right_labelLayer
10
12.3989208
20
7.7752854
11
12.314675
21
7.7752854
0
LINE
8
right_labelLayer
10
12.314675
20
7.7752854
11
12.314675
21
8.3315108
0
LINE
8
right_labelLayer
10
12.314675
20
8.3315108
11
12.3989208
21
8.3315108
0
ARC
8
right_labelLayer
10
12.4009065
20
8.4828183
40
0.0933383
50
170.8442537
51
180.3551871
0
ARC
8
right_labelLayer
10
12.3659768
20
8.4886603
40
0.0579246
50
155.9683659
51
171.0514938
0
ARC
8
right_labelLayer
10
12.3490457
20
8.4961717
40
0.039402
50
133.78752
51
155.9178717
0
ARC
8
right_labelLayer
10
12.3552974
20
8.4892601
40
0.0487184
50
92.6451499
51
133.4705401
0
ARC
8
right_labelLayer
10
12.3572678
20
8.4737952
40
0.0642699
50
89.966486
51
93.7636814
0
ARC
8
right_labelLayer
10
12.3580749
20
8.4884354
40
0.0496358
50
46.3704691
51
90.8882854
0
ARC
8
right_labelLayer
10
12.3630152
20
8.4935353
40
0.0425357
50
17.724566
51
46.4473078
0
ARC
8
right_labelLayer
10
12.3399797
20
8.4856016
40
0.0668954
50
4.9429998
51
18.1906181
0
ARC
8
right_labelLayer
10
12.3107103
20
8.4824356
40
0.0963307
50
359.8834955
51
5.3190335
0
ARC
8
right_labelLayer
10
12.3198846
20
8.4816478
40
0.0871583
50
349.833726
51
0.3891221
0
ARC
8
right_labelLayer
10
12.3516161
20
8.4757263
40
0.0548803
50
332.6313802
51
350.0714692
0
ARC
8
right_labelLayer
10
12.3639623
20
8.4696293
40
0.041114
50
313.6149928
51
332.2674002
0
ARC
8
right_labelLayer
10
12.3580101
20
8.4750487
40
0.0491469
50
269.1784425
51
314.2807718
0
ARC
8
right_labelLayer
10
12.3567465
20
8.4794146
40
0.0535109
50
250.499299
51
270.5984547
0
ARC
8
right_labelLayer
10
12.3551279
20
8.4733627
40
0.0472684
50
225.1300678
51
249.8998188
0
ARC
8
right_labelLayer
10
12.3525925
20
8.4705616
40
0.0434949
50
197.7934466
51
224.8938755
0
ARC
8
right_labelLayer
10
12.376321
20
8.4786937
40
0.0685752
50
184.9924598
51
198.2045185
0
ARC
8
right_labelLayer
10
12.4070645
20
8.4820325
40
0.0994947
50
179.8806427
51
185.3671664
0
LINE
8
right_labelLayer
10
12.84045
20
8.3315108
11
13.0327944
21
8.3315108
0
LINE
8
right_labelLayer
10
13.0327944
20
8.3315108
11
13.0327944
21
8.2782228
0
LINE
8
right_labelLayer
10
13.0327944
20
8.2782228
11
12.9297709
21
8.2660426
0
LINE
8
right_labelLayer
10
12.7399641
20
7.8635913
11
12.83842
21
7.8635913
0
LINE
8
right_labelLayer
10
12.8115222
20
7.787973
11
12.7105288
21
7.787973
0
ARC
8
right_labelLayer
10
12.822422
20
8.1810868
40
0.1368988
50
29.4580685
51
38.3580514
0
ARC
8
right_labelLayer
10
12.7664557
20
8.1491381
40
0.2013417
50
23.1846619
51
29.5419637
0
ARC
8
right_labelLayer
10
12.7131805
20
8.1255079
40
0.2596186
50
21.2505635
51
23.3496518
0
ARC
8
right_labelLayer
10
12.803814
20
8.161555
40
0.1620843
50
6.8507239
51
20.9868091
0
ARC
8
right_labelLayer
10
12.7581622
20
8.1553659
40
0.2081497
50
359.8715079
51
7.0432485
0
ARC
8
right_labelLayer
10
12.7731909
20
8.152891
40
0.1931307
50
342.5650739
51
0.5957536
0
ARC
8
right_labelLayer
10
12.8088111
20
8.143055
40
0.1562052
50
310.609822
51
342.0924532
0
ARC
8
right_labelLayer
10
12.7888368
20
8.1662891
40
0.1868449
50
284.9316604
51
310.6222346
0
ARC
8
right_labelLayer
10
12.7638421
20
8.2538729
40
0.2779161
50
272.5335532
51
285.2580702
0
ARC
8
right_labelLayer
10
12.7574197
20
8.3415671
40
0.3658173
50
269.9685963
51
272.9313277
0
ARC
8
right_labelLayer
10
12.7566201
20
8.2465205
40
0.2707713
50
263.483762
51
270.1267675
0
ARC
8
right_labelLayer
10
12.7521953
20
8.2045208
40
0.2285411
50
259.4953539
51
263.3909766
0
ARC
8
right_labelLayer
10
12.7794997
20
7.8467132
40
0.1499057
50
117.393275
51
128.4097666
0
ARC
8
right_labelLayer
10
12.7409072
20
7.8945884
40
0.0884159
50
128.087928
51
147.1406116
0
ARC
8
right_labelLayer
10
12.7201165
20
7.9085388
40
0.063384
50
147.5363406
51
180.2595118
0
ARC
8
right_labelLayer
10
12.7003948
20
7.9077127
40
0.0436649
50
179.2926823
51
198.3582647
0
ARC
8
right_labelLayer
10
12.6922188
20
7.9055636
40
0.0352323
50
199.2289176
51
239.5684285
0
ARC
8
right_labelLayer
10
12.6987675
20
7.9145505
40
0.0463109
50
238.2141555
51
239.8554633
0
ARC
8
right_labelLayer
10
12.7044006
20
7.9260451
40
0.0590867
50
240.7292266
51
254.5039081
0
ARC
8
right_labelLayer
10
12.7205327
20
7.9816327
40
0.1169658
50
254.1638795
51
262.2126133
0
ARC
8
right_labelLayer
10
12.7333106
20
8.0708741
40
0.2071164
50
262.0554733
51
267.2080925
0
ARC
8
right_labelLayer
10
12.7394776
20
8.1840332
40
0.3204421
50
267.0922409
51
270.0869718
0
ARC
8
right_labelLayer
10
12.8402628
20
7.518752
40
0.3448442
50
81.5743954
51
90.3061834
0
ARC
8
right_labelLayer
10
12.8591778
20
7.642112
40
0.220045
50
68.3669177
51
81.7398779
0
ARC
8
right_labelLayer
10
12.8838803
20
7.7052435
40
0.1522537
50
52.1881756
51
68.2496437
0
ARC
8
right_labelLayer
10
12.9011714
20
7.7285426
40
0.1232479
50
8.6201442
51
51.8983113
0
ARC
8
right_labelLayer
10
12.8405843
20
7.7157224
40
0.1851069
50
359.7430703
51
9.7327738
0
ARC
8
right_labelLayer
10
12.8432938
20
7.7126003
40
0.1824099
50
340.5268878
51
0.7199724
0
ARC
8
right_labelLayer
10
12.8700957
20
7.7059268
40
0.1549391
50
302.9903529
51
339.5494544
0
ARC
8
right_labelLayer
10
12.8423899
20
7.7410394
40
0.1995185
50
303.1844552
51
304.17354
0
ARC
8
right_labelLayer
10
12.815746
20
7.7870665
40
0.2526389
50
286.2539585
51
302.528173
0
ARC
8
right_labelLayer
10
12.7680299
20
7.9444509
40
0.4170921
50
276.4938907
51
286.4954262
0
ARC
8
right_labelLayer
10
12.738259
20
8.1933121
40
0.6677251
50
269.7543773
51
276.6169693
0
ARC
8
right_labelLayer
10
12.733173
20
7.997603
40
0.4720152
50
262.5636113
51
270.2698979
0
ARC
8
right_labelLayer
10
12.710054
20
7.8262367
40
0.2990989
50
251.209901
51
262.706414
0
ARC
8
right_labelLayer
10
12.6767337
20
7.728443
40
0.1957847
50
235.9669104
51
251.2230328
0
ARC
8
right_labelLayer
10
12.6414181
20
7.6780602
40
0.1342708
50
208.9037206
51
236.422973
0
ARC
8
right_labelLayer
10
12.6446595
20
7.6767005
40
0.1364791
50
182.2080637
51
207.7461978
0
ARC
8
right_labelLayer
10
12.685839
20
7.6808188
40
0.1778046
50
179.9772121
51
183.0229389
0
ARC
8
right_labelLayer
10
12.6368305
20
7.6831497
40
0.128816
50
138.391699
51
181.0053429
0
ARC
8
right_labelLayer
10
12.6504353
20
7.670922
40
0.1471078
50
113.8124028
51
138.3494127
0
ARC
8
right_labelLayer
10
12.6762338
20
7.6152143
40
0.2084922
50
102.2868041
51
114.1176238
0
ARC
8
right_labelLayer
10
12.6681284
20
7.8984919
40
0.0874355
50
216.5861729
51
245.4971409
0
ARC
8
right_labelLayer
10
12.6806194
20
7.9090845
40
0.1037841
50
215.4613777
51
217.1715821
0
ARC
8
right_labelLayer
10
12.6597958
20
7.8940524
40
0.0781025
50
182.1764832
51
215.3419349
0
ARC
8
right_labelLayer
10
12.6783027
20
7.896044
40
0.0966802
50
179.9836756
51
182.9394376
0
ARC
8
right_labelLayer
10
12.677955
20
7.8968866
40
0.0963359
50
161.7221943
51
180.4847117
0
ARC
8
right_labelLayer
10
12.6673658
20
7.8997764
40
0.0853766
50
144.4960901
51
161.3349473
0
ARC
8
right_labelLayer
10
12.6956113
20
7.8787249
40
0.1205987
50
132.7265529
51
144.1475198
0
ARC
8
right_labelLayer
10
12.7408683
20
7.8303918
40
0.1868116
50
125.2215915
51
132.8651165
0
ARC
8
right_labelLayer
10
12.7863381
20
7.7672525
40
0.2646172
50
121.235089
51
125.3797754
0
ARC
8
right_labelLayer
10
12.7056982
20
8.1299339
40
0.1476882
50
215.1638983
51
247.4749381
0
ARC
8
right_labelLayer
10
12.7332562
20
8.1521781
40
0.1830426
50
212.4717313
51
215.8881317
0
ARC
8
right_labelLayer
10
12.7260178
20
8.1469974
40
0.174155
50
183.0159969
51
212.3123113
0
ARC
8
right_labelLayer
10
12.7641588
20
8.1512542
40
0.212479
50
179.9750917
51
183.62115
0
ARC
8
right_labelLayer
10
12.7950743
20
8.1534023
40
0.2434032
50
166.8197149
51
180.4839147
0
ARC
8
right_labelLayer
10
12.7143265
20
8.1737886
40
0.1601405
50
132.3288665
51
167.3340413
0
ARC
8
right_labelLayer
10
12.7251287
20
8.1582601
40
0.1789117
50
106.2188655
51
131.5376153
0
ARC
8
right_labelLayer
10
12.7524623
20
8.0697535
40
0.2715347
50
93.6330918
51
106.5407002
0
ARC
8
right_labelLayer
10
12.7613842
20
7.96962
40
0.3720412
50
89.9380043
51
94.0271682
0
ARC
8
right_labelLayer
10
12.7628305
20
8.0187647
40
0.3228979
50
82.5849776
51
90.1852063
0
ARC
8
right_labelLayer
10
12.7726996
20
8.095106
40
0.2459213
50
74.0084135
51
82.5696679
0
ARC
8
right_labelLayer
10
12.6738379
20
7.6807533
40
0.0846106
50
179.22042
51
200.9353266
0
ARC
8
right_labelLayer
10
12.6637755
20
7.6784234
40
0.0743933
50
202.0285448
51
236.1460728
0
ARC
8
right_labelLayer
10
12.679043
20
7.6978363
40
0.0990378
50
235.0673146
51
238.5014616
0
ARC
8
right_labelLayer
10
12.696568
20
7.7291627
40
0.1349123
50
239.1064192
51
254.4866697
0
ARC
8
right_labelLayer
10
12.7200781
20
7.810227
40
0.2193136
50
254.2327791
51
263.4934957
0
ARC
8
right_labelLayer
10
12.7348408
20
7.9352534
40
0.345208
50
263.4104784
51
270.1456657
0
LINE
8
right_labelLayer
10
12.7357185
20
7.5900467
11
12.7364115
21
7.5900461
0
ARC
8
right_labelLayer
10
12.7384324
20
8.1563494
40
0.5663069
50
269.795536
51
275.3992673
0
ARC
8
right_labelLayer
10
12.7596273
20
7.938775
40
0.3477041
50
275.29578
51
283.351888
0
ARC
8
right_labelLayer
10
12.7941639
20
7.796538
40
0.2013377
50
283.1367021
51
295.8575412
0
ARC
8
right_labelLayer
10
12.8197047
20
7.7407623
40
0.1400133
50
296.4067615
51
301.7994198
0
ARC
8
right_labelLayer
10
12.8297819
20
7.7268547
40
0.1228894
50
301.2230873
51
318.6240304
0
ARC
8
right_labelLayer
10
12.8524079
20
7.7059541
40
0.0920988
50
319.0768169
51
1.1404864
0
ARC
8
right_labelLayer
10
12.8305006
20
7.7086893
40
0.1139915
50
359.5466039
51
10.9900509
0
ARC
8
right_labelLayer
10
12.8745356
20
7.7176447
40
0.069058
50
10.6611779
51
30.9359684
0
ARC
8
right_labelLayer
10
12.8884964
20
7.7253923
40
0.053103
50
31.5094721
51
58.0774758
0
ARC
8
right_labelLayer
10
12.8754145
20
7.7019692
40
0.0799112
50
58.9967281
51
73.8587879
0
ARC
8
right_labelLayer
10
12.8489738
20
7.6154142
40
0.1704101
50
73.4097148
51
81.5914563
0
ARC
8
right_labelLayer
10
12.8265535
20
7.4703113
40
0.3172332
50
81.4179283
51
86.5750236
0
ARC
8
right_labelLayer
10
12.8128313
20
7.2519582
40
0.5360166
50
86.5052272
51
90.1399294
0
ARC
8
right_labelLayer
10
12.7093227
20
7.5943333
40
0.1936435
50
89.643151
51
100.0212491
0
ARC
8
right_labelLayer
10
12.6971499
20
7.6605404
40
0.1263291
50
99.8097997
51
116.8235111
0
ARC
8
right_labelLayer
10
12.6852957
20
7.6855362
40
0.0986762
50
117.230293
51
130.5021293
0
ARC
8
right_labelLayer
10
12.6792083
20
7.6933604
40
0.0887743
50
130.7944064
51
169.0411678
0
ARC
8
right_labelLayer
10
12.724035
20
7.6828042
40
0.1348027
50
168.2582135
51
180.3823771
0
ARC
8
right_labelLayer
10
12.7993571
20
8.1521196
40
0.1644514
50
179.5620705
51
191.6527933
0
ARC
8
right_labelLayer
10
12.7421778
20
8.1397669
40
0.105957
50
191.3558896
51
213.3659065
0
ARC
8
right_labelLayer
10
12.728448
20
8.1318399
40
0.0901354
50
213.9575702
51
227.7967034
0
ARC
8
right_labelLayer
10
12.7403902
20
8.1463251
40
0.1088914
50
228.2619782
51
254.7343326
0
ARC
8
right_labelLayer
10
12.755653
20
8.1986445
40
0.1633862
50
254.4016097
51
267.4348024
0
ARC
8
right_labelLayer
10
12.7596381
20
8.2521767
40
0.2170488
50
267.0163187
51
270.0313097
0
ARC
8
right_labelLayer
10
12.762237
20
8.2186466
40
0.1835354
50
269.2256923
51
284.3771904
0
ARC
8
right_labelLayer
10
12.7872525
20
8.1314909
40
0.0929339
50
282.7796444
51
346.48298
0
ARC
8
right_labelLayer
10
12.7124676
20
8.1526751
40
0.1706273
50
345.4360208
51
0.7468127
0
ARC
8
right_labelLayer
10
12.7019455
20
8.1574889
40
0.1811535
50
359.1808681
51
15.0429984
0
ARC
8
right_labelLayer
10
12.784032
20
8.1814338
40
0.0956826
50
13.9535202
51
77.6674125
0
ARC
8
right_labelLayer
10
12.7604811
20
8.0970398
40
0.1832269
50
76.1093186
51
90.7026199
0
ARC
8
right_labelLayer
10
12.7569567
20
8.1034877
40
0.1767697
50
89.58591
51
101.3335049
0
ARC
8
right_labelLayer
10
12.7443234
20
8.1637393
40
0.1152116
50
101.0617935
51
121.973883
0
ARC
8
right_labelLayer
10
12.7354481
20
8.1797082
40
0.09697
50
122.5217765
51
134.9970726
0
ARC
8
right_labelLayer
10
12.7391021
20
8.1775187
40
0.1011074
50
135.5840296
51
163.0013841
0
ARC
8
right_labelLayer
10
12.7924953
20
8.1600193
40
0.1572878
50
162.59141
51
175.7343571
0
ARC
8
right_labelLayer
10
12.856577
20
8.1537085
40
0.2216667
50
175.3396927
51
180.0858048
0
LINE
8
right_labelLayer
10
13.6118574
20
7.7752854
11
13.5276116
21
7.7752854
0
LINE
8
right_labelLayer
10
13.5276116
20
7.7752854
11
13.5276116
21
8.1351064
0
LINE
8
right_labelLayer
10
13.2312288
20
8.0660857
11
13.2312288
21
7.7752854
0
LINE
8
right_labelLayer
10
13.2312288
20
7.7752854
11
13.146983
21
7.7752854
0
LINE
8
right_labelLayer
10
13.146983
20
7.7752854
11
13.146983
21
8.564963
0
LINE
8
right_labelLayer
10
13.146983
20
8.564963
11
13.2312288
21
8.564963
0
LINE
8
right_labelLayer
10
13.2312288
20
8.564963
11
13.2312288
21
8.3259282
0
LINE
8
right_labelLayer
10
13.2271687
20
8.25437
11
13.2322438
21
8.25437
0
LINE
8
right_labelLayer
10
13.6118574
20
8.1381514
11
13.6118574
21
7.7752854
0
ARC
8
right_labelLayer
10
13.2894704
20
8.1364709
40
0.2381452
50
359.6716965
51
8.6878759
0
ARC
8
right_labelLayer
10
13.3777332
20
8.1504693
40
0.1487816
50
8.4932255
51
22.6578117
0
ARC
8
right_labelLayer
10
13.4225786
20
8.1691055
40
0.1002181
50
22.7022435
51
42.34169
0
ARC
8
right_labelLayer
10
13.4276194
20
8.1713722
40
0.094981
50
43.3792061
51
71.5385099
0
ARC
8
right_labelLayer
10
13.4087694
20
8.1186998
40
0.1509166
50
71.0828199
51
84.3688313
0
ARC
8
right_labelLayer
10
13.4003109
20
8.0467848
40
0.2233186
50
84.0196365
51
90.1515107
0
ARC
8
right_labelLayer
10
13.3979058
20
8.0151592
40
0.25495
50
89.5921923
51
100.35934
0
ARC
8
right_labelLayer
10
13.3798512
20
8.1100402
40
0.1583705
50
100.1065747
51
118.0851108
0
ARC
8
right_labelLayer
10
13.3614936
20
8.1460616
40
0.1179507
50
118.4553796
51
139.6705618
0
ARC
8
right_labelLayer
10
13.3799231
20
8.1334653
40
0.1401717
50
140.6207901
51
160.5052013
0
ARC
8
right_labelLayer
10
13.4770781
20
8.0974966
40
0.2437651
50
160.1564099
51
171.5313379
0
ARC
8
right_labelLayer
10
13.6342766
20
8.072589
40
0.4029204
50
171.3200779
51
178.3408122
0
ARC
8
right_labelLayer
10
13.7749403
20
8.0663094
40
0.5437113
50
178.1085338
51
180.0235696
0
ARC
8
right_labelLayer
10
12.4734291
20
8.32502
40
0.7578002
50
357.8676391
51
0.0686723
0
ARC
8
right_labelLayer
10
12.7308069
20
8.3152045
40
0.5002353
50
354.9828661
51
357.8942304
0
ARC
8
right_labelLayer
10
12.9007904
20
8.3004062
40
0.329609
50
351.9712995
51
354.9612817
0
ARC
8
right_labelLayer
10
13.3749411
20
8.1651084
40
0.1683157
50
119.8315244
51
147.9727263
0
ARC
8
right_labelLayer
10
13.3953348
20
8.1337782
40
0.20565
50
116.6662091
51
120.418303
0
ARC
8
right_labelLayer
10
13.3991295
20
8.1238006
40
0.216272
50
96.6653887
51
116.3783056
0
ARC
8
right_labelLayer
10
13.4073287
20
8.0672322
40
0.2734142
50
89.8927415
51
96.9960254
0
ARC
8
right_labelLayer
10
13.4099518
20
7.9988724
40
0.3417799
50
80.6860288
51
90.3539348
0
ARC
8
right_labelLayer
10
13.4312327
20
8.1240362
40
0.2148235
50
65.6021446
51
80.8842855
0
ARC
8
right_labelLayer
10
13.4567913
20
8.1815971
40
0.1518463
50
46.7399288
51
65.4132919
0
ARC
8
right_labelLayer
10
13.4585251
20
8.1870781
40
0.1466876
50
19.2205248
51
45.7658914
0
ARC
8
right_labelLayer
10
13.3739428
20
8.1557235
40
0.2368839
50
6.4734825
51
19.6467086
0
ARC
8
right_labelLayer
10
13.2475795
20
8.1394594
40
0.3642802
50
359.7942725
51
6.7744854
0
LINE
8
right_labelLayer
10
14.0406991
20
7.8448136
11
14.0406991
21
7.7803605
0
LINE
8
right_labelLayer
10
13.7910067
20
7.9351495
11
13.7910067
21
8.2660426
0
LINE
8
right_labelLayer
10
13.7910067
20
8.2660426
11
13.7113284
21
8.2660426
0
LINE
8
right_labelLayer
10
13.7113284
20
8.2660426
11
13.7113284
21
8.306643
0
LINE
8
right_labelLayer
10
13.7113284
20
8.306643
11
13.7910067
21
8.3416609
0
LINE
8
right_labelLayer
10
13.7910067
20
8.3416609
11
13.826532
21
8.460417
0
LINE
8
right_labelLayer
10
13.826532
20
8.460417
11
13.8752525
21
8.460417
0
LINE
8
right_labelLayer
10
13.8752525
20
8.460417
11
13.8752525
21
8.3315108
0
LINE
8
right_labelLayer
10
13.8752525
20
8.3315108
11
14.036639
21
8.3315108
0
LINE
8
right_labelLayer
10
14.036639
20
8.3315108
11
14.036639
21
8.2660426
0
LINE
8
right_labelLayer
10
14.036639
20
8.2660426
11
13.8752525
21
8.2660426
0
LINE
8
right_labelLayer
10
13.8752525
20
8.2660426
11
13.8752525
21
7.938702
0
ARC
8
right_labelLayer
10
13.965151
20
8.1113502
40
0.2766873
50
269.8803714
51
278.3024696
0
ARC
8
right_labelLayer
10
13.9675519
20
8.0912593
40
0.2564607
50
278.4198481
51
279.0090569
0
ARC
8
right_labelLayer
10
13.9367392
20
8.2881774
40
0.4557748
50
278.9584056
51
280.5097177
0
ARC
8
right_labelLayer
10
13.9663374
20
8.1293468
40
0.2942099
50
280.4842908
51
282.6266914
0
ARC
8
right_labelLayer
10
13.9922904
20
8.0140406
40
0.1760191
50
282.5877228
51
285.580893
0
ARC
8
right_labelLayer
10
14.004507
20
7.9690052
40
0.1293578
50
285.7265469
51
286.2472589
0
ARC
8
right_labelLayer
10
14.0052906
20
7.8552484
40
0.082837
50
287.9872402
51
295.3056811
0
ARC
8
right_labelLayer
10
13.9853071
20
7.9156899
40
0.1464958
50
283.3064578
51
288.1210641
0
ARC
8
right_labelLayer
10
13.9641711
20
8.0038677
40
0.2371711
50
280.0068478
51
283.3725675
0
ARC
8
right_labelLayer
10
13.9498345
20
8.0817781
40
0.3163881
50
279.1877822
51
280.1119331
0
ARC
8
right_labelLayer
10
13.9413898
20
8.129729
40
0.3650728
50
275.5258748
51
279.2945115
0
ARC
8
right_labelLayer
10
13.951152
20
8.0277742
40
0.2626517
50
270.8934749
51
275.5478876
0
ARC
8
right_labelLayer
10
13.952366
20
7.9836366
40
0.2185012
50
270.0071302
51
270.7556444
0
ARC
8
right_labelLayer
10
13.9489941
20
7.9851482
40
0.2200391
50
253.7847706
51
270.8851188
0
ARC
8
right_labelLayer
10
13.9229251
20
7.8962429
40
0.1273911
50
190.3817478
51
253.8772084
0
ARC
8
right_labelLayer
10
14.0557972
20
7.9321689
40
0.2648073
50
179.3550936
51
192.8477142
0
ARC
8
right_labelLayer
10
14.0448982
20
7.937641
40
0.1696491
50
179.6416687
51
189.7502505
0
ARC
8
right_labelLayer
10
13.9850089
20
7.9269609
40
0.1088167
50
189.5484161
51
205.7871992
0
ARC
8
right_labelLayer
10
13.9603916
20
7.9156089
40
0.081714
50
206.1291921
51
221.4086474
0
ARC
8
right_labelLayer
10
13.9576342
20
7.9135167
40
0.0782625
50
221.5950458
51
262.350572
0
ARC
8
right_labelLayer
10
13.9641973
20
7.9472564
40
0.1125936
50
261.3258573
51
270.1913335
0
LINE
8
bottom_outsideCutPath
10
18.48425
20
10.32185
11
18.48425
21
9.945975
0
LINE
8
bottom_outsideCutPath
10
18.48425
20
9.945975
11
18.2874
21
9.945975
0
LINE
8
bottom_outsideCutPath
10
18.2874
20
9.945975
11
18.2874
21
9.459225
0
LINE
8
bottom_outsideCutPath
10
18.2874
20
9.459225
11
18.48425
21
9.459225
0
LINE
8
bottom_outsideCutPath
10
18.48425
20
9.459225
11
18.48425
21
8.972475
0
LINE
8
bottom_outsideCutPath
10
18.48425
20
8.972475
11
18.2874
21
8.972475
0
LINE
8
bottom_outsideCutPath
10
18.2874
20
8.972475
11
18.2874
21
8.485725
0
LINE
8
bottom_outsideCutPath
10
18.2874
20
8.485725
11
18.48425
21
8.485725
0
LINE
8
bottom_outsideCutPath
10
18.48425
20
8.485725
11
18.48425
21
7.998975
0
LINE
8
bottom_outsideCutPath
10
18.48425
20
7.998975
11
18.2874
21
7.998975
0
LINE
8
bottom_outsideCutPath
10
18.2874
20
7.998975
11
18.2874
21
7.512225
0
LINE
8
bottom_outsideCutPath
10
18.2874
20
7.512225
11
18.48425
21
7.512225
0
LINE
8
bottom_outsideCutPath
10
18.48425
20
7.512225
11
18.48425
21
7.025475
0
LINE
8
bottom_outsideCutPath
10
18.48425
20
7.025475
11
18.2874
21
7.025475
0
LINE
8
bottom_outsideCutPath
10
18.2874
20
7.025475
11
18.2874
21
6.538725
0
LINE
8
bottom_outsideCutPath
10
18.2874
20
6.538725
11
18.48425
21
6.538725
0
LINE
8
bottom_outsideCutPath
10
18.48425
20
6.538725
11
18.48425
21
6.051975
0
LINE
8
bottom_outsideCutPath
10
18.48425
20
6.051975
11
18.2874
21
6.051975
0
LINE
8
bottom_outsideCutPath
10
18.2874
20
6.051975
11
18.2874
21
5.565225
0
LINE
8
bottom_outsideCutPath
10
18.2874
20
5.565225
11
18.48425
21
5.565225
0
LINE
8
bottom_outsideCutPath
10
18.48425
20
5.565225
11
18.48425
21
5.078475
0
LINE
8
bottom_outsideCutPath
10
18.48425
20
5.078475
11
18.2874
21
5.078475
0
LINE
8
bottom_outsideCutPath
10
18.2874
20
5.078475
11
18.2874
21
4.591725
0
LINE
8
bottom_outsideCutPath
10
18.2874
20
4.591725
11
18.48425
21
4.591725
0
LINE
8
bottom_outsideCutPath
10
18.48425
20
4.591725
11
18.48425
21
4.104975
0
LINE
8
bottom_outsideCutPath
10
18.48425
20
4.104975
11
18.2874
21
4.104975
0
LINE
8
bottom_outsideCutPath
10
18.2874
20
4.104975
11
18.2874
21
3.618225
0
LINE
8
bottom_outsideCutPath
10
18.2874
20
3.618225
11
18.48425
21
3.618225
0
LINE
8
bottom_outsideCutPath
10
18.48425
20
3.618225
11
18.48425
21
3.131475
0
LINE
8
bottom_outsideCutPath
10
18.48425
20
3.131475
11
18.2874
21
3.131475
0
LINE
8
bottom_outsideCutPath
10
18.2874
20
3.131475
11
18.2874
21
2.644725
0
LINE
8
bottom_outsideCutPath
10
18.2874
20
2.644725
11
18.48425
21
2.644725
0
LINE
8
bottom_outsideCutPath
10
18.48425
20
2.644725
11
18.48425
21
2.157975
0
LINE
8
bottom_outsideCutPath
10
18.48425
20
2.157975
11
18.2874
21
2.157975
0
LINE
8
bottom_outsideCutPath
10
18.2874
20
2.157975
11
18.2874
21
1.671225
0
LINE
8
bottom_outsideCutPath
10
18.2874
20
1.671225
11
18.48425
21
1.671225
0
LINE
8
bottom_outsideCutPath
10
18.48425
20
1.671225
11
18.48425
21
1.184475
0
LINE
8
bottom_outsideCutPath
10
18.48425
20
1.184475
11
18.2874
21
1.184475
0
LINE
8
bottom_outsideCutPath
10
18.2874
20
1.184475
11
18.2874
21
0.697725
0
LINE
8
bottom_outsideCutPath
10
18.2874
20
0.697725
11
18.48425
21
0.697725
0
LINE
8
bottom_outsideCutPath
10
18.48425
20
0.697725
11
18.48425
21
0.32185
0
LINE
8
bottom_outsideCutPath
10
18.48425
20
0.32185
11
18.945375
21
0.32185
0
LINE
8
bottom_outsideCutPath
10
18.945375
20
0.32185
11
18.945375
21
0.125
0
LINE
8
bottom_outsideCutPath
10
18.945375
20
0.125
11
19.432125
21
0.125
0
LINE
8
bottom_outsideCutPath
10
19.432125
20
0.125
11
19.432125
21
0.32185
0
LINE
8
bottom_outsideCutPath
10
19.432125
20
0.32185
11
19.918875
21
0.32185
0
LINE
8
bottom_outsideCutPath
10
19.918875
20
0.32185
11
19.918875
21
0.125
0
LINE
8
bottom_outsideCutPath
10
19.918875
20
0.125
11
20.405625
21
0.125
0
LINE
8
bottom_outsideCutPath
10
20.405625
20
0.125
11
20.405625
21
0.32185
0
LINE
8
bottom_outsideCutPath
10
20.405625
20
0.32185
11
20.892375
21
0.32185
0
LINE
8
bottom_outsideCutPath
10
20.892375
20
0.32185
11
20.892375
21
0.125
0
LINE
8
bottom_outsideCutPath
10
20.892375
20
0.125
11
21.379125
21
0.125
0
LINE
8
bottom_outsideCutPath
10
21.379125
20
0.125
11
21.379125
21
0.32185
0
LINE
8
bottom_outsideCutPath
10
21.379125
20
0.32185
11
21.865875
21
0.32185
0
LINE
8
bottom_outsideCutPath
10
21.865875
20
0.32185
11
21.865875
21
0.125
0
LINE
8
bottom_outsideCutPath
10
21.865875
20
0.125
11
22.352625
21
0.125
0
LINE
8
bottom_outsideCutPath
10
22.352625
20
0.125
11
22.352625
21
0.32185
0
LINE
8
bottom_outsideCutPath
10
22.352625
20
0.32185
11
22.839375
21
0.32185
0
LINE
8
bottom_outsideCutPath
10
22.839375
20
0.32185
11
22.839375
21
0.125
0
LINE
8
bottom_outsideCutPath
10
22.839375
20
0.125
11
23.326125
21
0.125
0
LINE
8
bottom_outsideCutPath
10
23.326125
20
0.125
11
23.326125
21
0.32185
0
LINE
8
bottom_outsideCutPath
10
23.326125
20
0.32185
11
23.812875
21
0.32185
0
LINE
8
bottom_outsideCutPath
10
23.812875
20
0.32185
11
23.812875
21
0.125
0
LINE
8
bottom_outsideCutPath
10
23.812875
20
0.125
11
24.299625
21
0.125
0
LINE
8
bottom_outsideCutPath
10
24.299625
20
0.125
11
24.299625
21
0.32185
0
LINE
8
bottom_outsideCutPath
10
24.299625
20
0.32185
11
24.786375
21
0.32185
0
LINE
8
bottom_outsideCutPath
10
24.786375
20
0.32185
11
24.786375
21
0.125
0
LINE
8
bottom_outsideCutPath
10
24.786375
20
0.125
11
25.273125
21
0.125
0
LINE
8
bottom_outsideCutPath
10
25.273125
20
0.125
11
25.273125
21
0.32185
0
LINE
8
bottom_outsideCutPath
10
25.273125
20
0.32185
11
25.73425
21
0.32185
0
LINE
8
bottom_outsideCutPath
10
25.73425
20
0.32185
11
25.73425
21
0.697725
0
LINE
8
bottom_outsideCutPath
10
25.73425
20
0.697725
11
25.9311
21
0.697725
0
LINE
8
bottom_outsideCutPath
10
25.9311
20
0.697725
11
25.9311
21
1.184475
0
LINE
8
bottom_outsideCutPath
10
25.9311
20
1.184475
11
25.73425
21
1.184475
0
LINE
8
bottom_outsideCutPath
10
25.73425
20
1.184475
11
25.73425
21
1.671225
0
LINE
8
bottom_outsideCutPath
10
25.73425
20
1.671225
11
25.9311
21
1.671225
0
LINE
8
bottom_outsideCutPath
10
25.9311
20
1.671225
11
25.9311
21
2.157975
0
LINE
8
bottom_outsideCutPath
10
25.9311
20
2.157975
11
25.73425
21
2.157975
0
LINE
8
bottom_outsideCutPath
10
25.73425
20
2.157975
11
25.73425
21
2.644725
0
LINE
8
bottom_outsideCutPath
10
25.73425
20
2.644725
11
25.9311
21
2.644725
0
LINE
8
bottom_outsideCutPath
10
25.9311
20
2.644725
11
25.9311
21
3.131475
0
LINE
8
bottom_outsideCutPath
10
25.9311
20
3.131475
11
25.73425
21
3.131475
0
LINE
8
bottom_outsideCutPath
10
25.73425
20
3.131475
11
25.73425
21
3.618225
0
LINE
8
bottom_outsideCutPath
10
25.73425
20
3.618225
11
25.9311
21
3.618225
0
LINE
8
bottom_outsideCutPath
10
25.9311
20
3.618225
11
25.9311
21
4.104975
0
LINE
8
bottom_outsideCutPath
10
25.9311
20
4.104975
11
25.73425
21
4.104975
0
LINE
8
bottom_outsideCutPath
10
25.73425
20
4.104975
11
25.73425
21
4.591725
0
LINE
8
bottom_outsideCutPath
10
25.73425
20
4.591725
11
25.9311
21
4.591725
0
LINE
8
bottom_outsideCutPath
10
25.9311
20
4.591725
11
25.9311
21
5.078475
0
LINE
8
bottom_outsideCutPath
10
25.9311
20
5.078475
11
25.73425
21
5.078475
0
LINE
8
bottom_outsideCutPath
10
25.73425
20
5.078475
11
25.73425
21
5.565225
0
LINE
8
bottom_outsideCutPath
10
25.73425
20
5.565225
11
25.9311
21
5.565225
0
LINE
8
bottom_outsideCutPath
10
25.9311
20
5.565225
11
25.9311
21
6.051975
0
LINE
8
bottom_outsideCutPath
10
25.9311
20
6.051975
11
25.73425
21
6.051975
0
LINE
8
bottom_outsideCutPath
10
25.73425
20
6.051975
11
25.73425
21
6.538725
0
LINE
8
bottom_outsideCutPath
10
25.73425
20
6.538725
11
25.9311
21
6.538725
0
LINE
8
bottom_outsideCutPath
10
25.9311
20
6.538725
11
25.9311
21
7.025475
0
LINE
8
bottom_outsideCutPath
10
25.9311
20
7.025475
11
25.73425
21
7.025475
0
LINE
8
bottom_outsideCutPath
10
25.73425
20
7.025475
11
25.73425
21
7.512225
0
LINE
8
bottom_outsideCutPath
10
25.73425
20
7.512225
11
25.9311
21
7.512225
0
LINE
8
bottom_outsideCutPath
10
25.9311
20
7.512225
11
25.9311
21
7.998975
0
LINE
8
bottom_outsideCutPath
10
25.9311
20
7.998975
11
25.73425
21
7.998975
0
LINE
8
bottom_outsideCutPath
10
25.73425
20
7.998975
11
25.73425
21
8.485725
0
LINE
8
bottom_outsideCutPath
10
25.73425
20
8.485725
11
25.9311
21
8.485725
0
LINE
8
bottom_outsideCutPath
10
25.9311
20
8.485725
11
25.9311
21
8.972475
0
LINE
8
bottom_outsideCutPath
10
25.9311
20
8.972475
11
25.73425
21
8.972475
0
LINE
8
bottom_outsideCutPath
10
25.73425
20
8.972475
11
25.73425
21
9.459225
0
LINE
8
bottom_outsideCutPath
10
25.73425
20
9.459225
11
25.9311
21
9.459225
0
LINE
8
bottom_outsideCutPath
10
25.9311
20
9.459225
11
25.9311
21
9.945975
0
LINE
8
bottom_outsideCutPath
10
25.9311
20
9.945975
11
25.73425
21
9.945975
0
LINE
8
bottom_outsideCutPath
10
25.73425
20
9.945975
11
25.73425
21
10.32185
0
LINE
8
bottom_outsideCutPath
10
25.73425
20
10.32185
11
25.273125
21
10.32185
0
LINE
8
bottom_outsideCutPath
10
25.273125
20
10.32185
11
25.273125
21
10.5187
0
LINE
8
bottom_outsideCutPath
10
25.273125
20
10.5187
11
24.786375
21
10.5187
0
LINE
8
bottom_outsideCutPath
10
24.786375
20
10.5187
11
24.786375
21
10.32185
0
LINE
8
bottom_outsideCutPath
10
24.786375
20
10.32185
11
24.299625
21
10.32185
0
LINE
8
bottom_outsideCutPath
10
24.299625
20
10.32185
11
24.299625
21
10.5187
0
LINE
8
bottom_outsideCutPath
10
24.299625
20
10.5187
11
23.812875
21
10.5187
0
LINE
8
bottom_outsideCutPath
10
23.812875
20
10.5187
11
23.812875
21
10.32185
0
LINE
8
bottom_outsideCutPath
10
23.812875
20
10.32185
11
23.326125
21
10.32185
0
LINE
8
bottom_outsideCutPath
10
23.326125
20
10.32185
11
23.326125
21
10.5187
0
LINE
8
bottom_outsideCutPath
10
23.326125
20
10.5187
11
22.839375
21
10.5187
0
LINE
8
bottom_outsideCutPath
10
22.839375
20
10.5187
11
22.839375
21
10.32185
0
LINE
8
bottom_outsideCutPath
10
22.839375
20
10.32185
11
22.352625
21
10.32185
0
LINE
8
bottom_outsideCutPath
10
22.352625
20
10.32185
11
22.352625
21
10.5187
0
LINE
8
bottom_outsideCutPath
10
22.352625
20
10.5187
11
21.865875
21
10.5187
0
LINE
8
bottom_outsideCutPath
10
21.865875
20
10.5187
11
21.865875
21
10.32185
0
LINE
8
bottom_outsideCutPath
10
21.865875
20
10.32185
11
21.379125
21
10.32185
0
LINE
8
bottom_outsideCutPath
10
21.379125
20
10.32185
11
21.379125
21
10.5187
0
LINE
8
bottom_outsideCutPath
10
21.379125
20
10.5187
11
20.892375
21
10.5187
0
LINE
8
bottom_outsideCutPath
10
20.892375
20
10.5187
11
20.892375
21
10.32185
0
LINE
8
bottom_outsideCutPath
10
20.892375
20
10.32185
11
20.405625
21
10.32185
0
LINE
8
bottom_outsideCutPath
10
20.405625
20
10.32185
11
20.405625
21
10.5187
0
LINE
8
bottom_outsideCutPath
10
20.405625
20
10.5187
11
19.918875
21
10.5187
0
LINE
8
bottom_outsideCutPath
10
19.918875
20
10.5187
11
19.918875
21
10.32185
0
LINE
8
bottom_outsideCutPath
10
19.918875
20
10.32185
11
19.432125
21
10.32185
0
LINE
8
bottom_outsideCutPath
10
19.432125
20
10.32185
11
19.432125
21
10.5187
0
LINE
8
bottom_outsideCutPath
10
19.432125
20
10.5187
11
18.945375
21
10.5187
0
LINE
8
bottom_outsideCutPath
10
18.945375
20
10.5187
11
18.945375
21
10.32185
0
LINE
8
bottom_outsideCutPath
10
18.945375
20
10.32185
11
18.48425
21
10.32185
0
LINE
8
bottom_labelLayer
10
19.7183508
20
4.853842
11
19.7093933
21
4.853842
0
LINE
8
bottom_labelLayer
10
19.7093933
20
4.853842
11
19.6832674
21
4.7485918
0
LINE
8
bottom_labelLayer
10
19.6832674
20
4.7485918
11
19.5944392
21
4.7485918
0
LINE
8
bottom_labelLayer
10
19.5944392
20
4.7485918
11
19.5944392
21
5.9100759
0
LINE
8
bottom_labelLayer
10
19.5944392
20
5.9100759
11
19.7183508
21
5.9100759
0
LINE
8
bottom_labelLayer
10
19.7183508
20
5.9100759
11
19.7183508
21
5.6279159
0
LINE
8
bottom_labelLayer
10
19.7123791
20
5.4577241
11
19.7183508
21
5.4577241
0
ARC
8
bottom_labelLayer
10
19.9788479
20
5.2014419
40
0.3787191
50
74.2393423
51
90.5622824
0
ARC
8
bottom_labelLayer
10
20.0038898
20
5.293311
40
0.2835033
50
38.5632013
51
74.0669472
0
ARC
8
bottom_labelLayer
10
19.939447
20
5.2432034
40
0.3651299
50
16.4708857
51
38.4075457
0
ARC
8
bottom_labelLayer
10
19.7537908
20
5.1849877
40
0.5596823
50
5.1337662
51
16.79725
0
ARC
8
bottom_labelLayer
10
19.5194555
20
5.1600922
40
0.7953147
50
359.8777788
51
5.4094702
0
ARC
8
bottom_labelLayer
10
19.58826
20
5.1541082
40
0.726521
50
350.6563529
51
0.3381209
0
ARC
8
bottom_labelLayer
10
19.8415395
20
5.1110287
40
0.4696096
50
335.8305378
51
350.8255325
0
ARC
8
bottom_labelLayer
10
19.9529462
20
5.0629441
40
0.3482858
50
321.3161888
51
335.5435464
0
ARC
8
bottom_labelLayer
10
19.9955425
20
5.0282345
40
0.293341
50
274.0639535
51
321.4081679
0
ARC
8
bottom_labelLayer
10
19.9756972
20
5.1539387
40
0.4202766
50
269.922862
51
275.5483021
0
ARC
8
bottom_labelLayer
10
19.9730417
20
5.1095058
40
0.3758489
50
255.7754832
51
270.3185523
0
ARC
8
bottom_labelLayer
10
19.9623228
20
5.0618731
40
0.3270454
50
245.980423
51
255.5452508
0
ARC
8
bottom_labelLayer
10
19.9415408
20
5.0135421
40
0.2744412
50
215.5850216
51
245.8362296
0
ARC
8
bottom_labelLayer
10
17.1351233
20
5.6257263
40
2.5832285
50
358.1122752
51
0.0485649
0
ARC
8
bottom_labelLayer
10
17.8541162
20
5.6015793
40
1.8638302
50
355.7237925
51
358.1260921
0
ARC
8
bottom_labelLayer
10
18.1332304
20
5.5827071
40
1.584087
50
355.4747141
51
355.6517309
0
ARC
8
bottom_labelLayer
10
19.9494403
20
5.2965792
40
0.2817269
50
95.1834951
51
145.1108995
0
ARC
8
bottom_labelLayer
10
19.9742031
20
5.1569503
40
0.4231936
50
89.8743283
51
96.8147001
0
ARC
8
bottom_labelLayer
10
19.9546231
20
5.1281938
40
0.3482013
50
89.5732743
51
100.7325793
0
ARC
8
bottom_labelLayer
10
19.9288448
20
5.258429
40
0.2154467
50
100.4468822
51
119.6702977
0
ARC
8
bottom_labelLayer
10
19.9049437
20
5.3031138
40
0.1647949
50
120.1403412
51
142.4247762
0
ARC
8
bottom_labelLayer
10
19.9444935
20
5.2769516
40
0.212121
50
143.3384971
51
161.2557284
0
ARC
8
bottom_labelLayer
10
20.1098568
20
5.2182434
40
0.3875871
50
160.8926867
51
171.2335203
0
ARC
8
bottom_labelLayer
10
20.3859225
20
5.1737069
40
0.6672184
50
171.0667818
51
177.8457086
0
ARC
8
bottom_labelLayer
10
20.6731164
20
5.1591043
40
0.9547658
50
177.6178805
51
180.0425253
0
ARC
8
bottom_labelLayer
10
20.5375949
20
5.1551946
40
0.8192504
50
179.7761274
51
185.7076943
0
ARC
8
bottom_labelLayer
10
20.2146061
20
5.1219117
40
0.4945538
50
185.5923608
51
194.2051838
0
ARC
8
bottom_labelLayer
10
20.0076963
20
5.0682097
40
0.2807954
50
193.9428991
51
208.0217693
0
ARC
8
bottom_labelLayer
10
19.9239814
20
5.0256227
40
0.1868947
50
208.5538068
51
217.5603864
0
ARC
8
bottom_labelLayer
10
19.9171554
20
5.022783
40
0.1797627
50
218.1691738
51
253.804697
0
ARC
8
bottom_labelLayer
10
19.9504968
20
5.1255796
40
0.2877989
50
253.1383407
51
266.8484437
0
ARC
8
bottom_labelLayer
10
19.9598504
20
5.2359748
40
0.398555
50
266.3783206
51
270.0505842
0
ARC
8
bottom_labelLayer
10
19.9628455
20
5.0844227
40
0.2470169
50
269.3868885
51
285.863033
0
ARC
8
bottom_labelLayer
10
19.9811974
20
5.0180961
40
0.1782005
50
286.0162733
51
326.8498091
0
ARC
8
bottom_labelLayer
10
19.8926194
20
5.0767756
40
0.2844504
50
326.7105626
51
343.6660617
0
ARC
8
bottom_labelLayer
10
19.7268112
20
5.1274407
40
0.4578195
50
343.4171389
51
353.6368374
0
ARC
8
bottom_labelLayer
10
19.4763955
20
5.1571555
40
0.709988
50
353.4933322
51
0.2205539
0
ARC
8
bottom_labelLayer
10
19.4543026
20
5.1628502
40
0.7320815
50
359.7682077
51
6.3096384
0
ARC
8
bottom_labelLayer
10
19.7300467
20
5.1944941
40
0.4545316
50
6.1649935
51
16.0393989
0
ARC
8
bottom_labelLayer
10
19.9077026
20
5.246847
40
0.2693292
50
15.7779595
51
32.0150821
0
ARC
8
bottom_labelLayer
10
19.9631118
20
5.2785822
40
0.2055379
50
32.7026029
51
35.523686
0
ARC
8
bottom_labelLayer
10
19.9833578
20
5.2929695
40
0.1807005
50
35.5408799
51
79.8010635
0
ARC
8
bottom_labelLayer
10
19.959091
20
5.1898107
40
0.2865812
50
78.6779205
51
90.3747912
0
ARC
8
bottom_labelLayer
10
20.5973452
20
5.1540816
40
0.6400562
50
349.1761511
51
0.386181
0
ARC
8
bottom_labelLayer
10
20.8128388
20
5.1111218
40
0.4203327
50
330.2507304
51
349.4116851
0
ARC
8
bottom_labelLayer
10
20.8791506
20
5.0766568
40
0.3456715
50
318.1440862
51
329.7565178
0
ARC
8
bottom_labelLayer
10
20.891125
20
5.0670616
40
0.3303512
50
278.8959121
51
317.9978298
0
ARC
8
bottom_labelLayer
10
20.8602838
20
5.214827
40
0.4811689
50
269.7504074
51
279.8032951
0
ARC
8
bottom_labelLayer
10
20.8552831
20
5.1315668
40
0.3979147
50
253.5436817
51
270.4182332
0
ARC
8
bottom_labelLayer
10
20.8420371
20
5.080327
40
0.3450263
50
238.8114196
51
253.2427696
0
ARC
8
bottom_labelLayer
10
20.837763
20
5.0717327
40
0.3354618
50
207.7947549
51
238.6757685
0
ARC
8
bottom_labelLayer
10
20.8990878
20
5.1092911
40
0.4072512
50
205.6557734
51
208.4460102
0
ARC
8
bottom_labelLayer
10
20.9463531
20
5.1289872
40
0.4583924
50
188.910197
51
205.3170531
0
ARC
8
bottom_labelLayer
10
21.1055821
20
5.1559555
40
0.6198803
50
179.7744602
51
189.0932621
0
ARC
8
bottom_labelLayer
10
21.1290603
20
5.1627543
40
0.6433685
50
169.2442205
51
180.3881653
0
ARC
8
bottom_labelLayer
10
20.9105822
20
5.2059407
40
0.4206723
50
150.7111197
51
169.4695861
0
ARC
8
bottom_labelLayer
10
20.8408363
20
5.2417581
40
0.3423322
50
138.1759607
51
150.2287533
0
ARC
8
bottom_labelLayer
10
20.8292344
20
5.2506606
40
0.3277518
50
99.1759691
51
137.9832279
0
ARC
8
bottom_labelLayer
10
20.8611682
20
5.1003684
40
0.4812725
50
89.7327634
51
100.0758387
0
ARC
8
bottom_labelLayer
10
20.8675495
20
5.1652849
40
0.4163713
50
73.5221702
51
90.569239
0
ARC
8
bottom_labelLayer
10
20.8919681
20
5.2539998
40
0.3243786
50
41.1445067
51
73.2134597
0
ARC
8
bottom_labelLayer
10
20.8453553
20
5.2139366
40
0.3858408
50
13.5014109
51
41.0703032
0
ARC
8
bottom_labelLayer
10
20.6652702
20
5.1668115
40
0.5719639
50
1.1276574
51
13.8799122
0
ARC
8
bottom_labelLayer
10
20.5108703
20
5.1585058
40
0.7265166
50
359.9913129
51
1.5429157
0
ARC
8
bottom_labelLayer
10
21.241568
20
5.1551755
40
0.6274793
50
179.7059628
51
187.9161602
0
ARC
8
bottom_labelLayer
10
21.011433
20
5.1221161
40
0.3949858
50
187.7639567
51
200.0976869
0
ARC
8
bottom_labelLayer
10
20.8846506
20
5.0756629
40
0.2599611
50
200.0845949
51
216.9129645
0
ARC
8
bottom_labelLayer
10
20.8383502
20
5.0426027
40
0.2030902
50
217.3008361
51
261.7099429
0
ARC
8
bottom_labelLayer
10
20.8598421
20
5.1451634
40
0.3077461
50
260.5034752
51
270.2478777
0
ARC
8
bottom_labelLayer
10
20.8639455
20
5.1252235
40
0.2878169
50
269.4481641
51
284.7254531
0
ARC
8
bottom_labelLayer
10
20.8867304
20
5.0407199
40
0.2002979
50
284.5662114
51
322.6334962
0
ARC
8
bottom_labelLayer
10
20.8334557
20
5.0792085
40
0.266004
50
323.0090335
51
342.6389141
0
ARC
8
bottom_labelLayer
10
20.681098
20
5.129004
40
0.4262844
50
342.3614169
51
353.7538059
0
ARC
8
bottom_labelLayer
10
20.4563333
20
5.1560995
40
0.6526674
50
353.536088
51
0.2015697
0
ARC
8
bottom_labelLayer
10
20.4907395
20
5.1615526
40
0.6182652
50
359.7074411
51
7.897161
0
ARC
8
bottom_labelLayer
10
20.7171725
20
5.1940132
40
0.3895208
50
7.7438969
51
20.0691724
0
ARC
8
bottom_labelLayer
10
20.8433405
20
5.2403137
40
0.2551258
50
20.0256178
51
37.4351233
0
ARC
8
bottom_labelLayer
10
20.8852018
20
5.2700179
40
0.2038386
50
37.9577921
51
80.4005849
0
ARC
8
bottom_labelLayer
10
20.8614123
20
5.1638706
40
0.3125197
50
79.3453642
51
90.3174806
0
ARC
8
bottom_labelLayer
10
20.8570065
20
5.1815105
40
0.2948871
50
89.4804301
51
103.8807269
0
ARC
8
bottom_labelLayer
10
20.832229
20
5.2758596
40
0.1973543
50
103.4686197
51
142.311838
0
ARC
8
bottom_labelLayer
10
20.880397
20
5.241984
40
0.256196
50
142.9024325
51
162.3751138
0
ARC
8
bottom_labelLayer
10
21.0321923
20
5.191398
40
0.4161886
50
162.0653211
51
173.1674419
0
ARC
8
bottom_labelLayer
10
21.2688462
20
5.1612127
40
0.6547554
50
173.0084722
51
180.2465154
0
LINE
8
bottom_labelLayer
10
21.8308187
20
4.8508562
11
21.8308187
21
4.7560564
0
LINE
8
bottom_labelLayer
10
21.4635628
20
4.9837252
11
21.4635628
21
5.4704139
0
LINE
8
bottom_labelLayer
10
21.4635628
20
5.4704139
11
21.3463693
21
5.4704139
0
LINE
8
bottom_labelLayer
10
21.3463693
20
5.4704139
11
21.3463693
21
5.5301303
0
LINE
8
bottom_labelLayer
10
21.3463693
20
5.5301303
11
21.4635628
21
5.5816357
0
LINE
8
bottom_labelLayer
10
21.4635628
20
5.5816357
11
21.5158146
21
5.7563062
0
LINE
8
bottom_labelLayer
10
21.5158146
20
5.7563062
11
21.5874743
21
5.7563062
0
LINE
8
bottom_labelLayer
10
21.5874743
20
5.7563062
11
21.5874743
21
5.5667066
0
LINE
8
bottom_labelLayer
10
21.5874743
20
5.5667066
11
21.824847
21
5.5667066
0
LINE
8
bottom_labelLayer
10
21.824847
20
5.5667066
11
21.824847
21
5.4704139
0
LINE
8
bottom_labelLayer
10
21.824847
20
5.4704139
11
21.5874743
21
5.4704139
0
LINE
8
bottom_labelLayer
10
21.5874743
20
5.4704139
11
21.5874743
21
4.9889503
0
ARC
8
bottom_labelLayer
10
21.7196988
20
5.2428716
40
0.4069454
50
269.8805526
51
278.3029671
0
ARC
8
bottom_labelLayer
10
21.7242723
20
5.2066299
40
0.370424
50
278.4124716
51
279.0124763
0
ARC
8
bottom_labelLayer
10
21.6778881
20
5.503047
40
0.670448
50
278.9593211
51
280.5104498
0
ARC
8
bottom_labelLayer
10
21.7214459
20
5.2693623
40
0.4327386
50
280.48404
51
282.6264164
0
ARC
8
bottom_labelLayer
10
21.7595714
20
5.0999677
40
0.2591066
50
282.5877401
51
285.5784636
0
ARC
8
bottom_labelLayer
10
21.7787734
20
5.0293301
40
0.1859077
50
285.7244477
51
286.2573606
0
ARC
8
bottom_labelLayer
10
21.778721
20
4.86625
40
0.1218885
50
287.9885072
51
295.3039927
0
ARC
8
bottom_labelLayer
10
21.749312
20
4.9552293
40
0.2156013
50
283.3076427
51
288.1193349
0
ARC
8
bottom_labelLayer
10
21.7182982
20
5.0845957
40
0.348633
50
280.0062485
51
283.3739598
0
ARC
8
bottom_labelLayer
10
21.6976814
20
5.1963864
40
0.4623064
50
279.1849351
51
280.1151786
0
ARC
8
bottom_labelLayer
10
21.6847326
20
5.2700744
40
0.5371175
50
275.5262628
51
279.2938028
0
ARC
8
bottom_labelLayer
10
21.6991148
20
5.1198357
40
0.386192
50
270.8930255
51
275.5489452
0
ARC
8
bottom_labelLayer
10
21.7009181
20
5.051041
40
0.3173783
50
270.0031407
51
270.7610901
0
ARC
8
bottom_labelLayer
10
21.6959359
20
5.0572686
40
0.3236445
50
253.7849711
51
270.8851294
0
ARC
8
bottom_labelLayer
10
21.6575926
20
4.9265001
40
0.187371
50
190.3817634
51
253.877247
0
ARC
8
bottom_labelLayer
10
21.8530225
20
4.9793413
40
0.3894844
50
179.3550892
51
192.8478158
0
ARC
8
bottom_labelLayer
10
21.8369852
20
4.9873888
40
0.2495158
50
179.6414245
51
189.7503993
0
ARC
8
bottom_labelLayer
10
21.7488965
20
4.9716771
40
0.1600395
50
189.5476329
51
205.7876213
0
ARC
8
bottom_labelLayer
10
21.7126984
20
4.9549832
40
0.1201859
50
206.1289997
51
221.4086779
0
ARC
8
bottom_labelLayer
10
21.7086442
20
4.9519067
40
0.1151109
50
221.5949267
51
262.3505228
0
ARC
8
bottom_labelLayer
10
21.7182962
20
5.0015416
40
0.1656153
50
261.3267348
51
270.1917255
0
LINE
8
bottom_labelLayer
10
22.3705057
20
4.8508562
11
22.3705057
21
4.7560564
0
LINE
8
bottom_labelLayer
10
22.0032498
20
4.9837252
11
22.0032498
21
5.4704139
0
LINE
8
bottom_labelLayer
10
22.0032498
20
5.4704139
11
21.8860563
21
5.4704139
0
LINE
8
bottom_labelLayer
10
21.8860563
20
5.4704139
11
21.8860563
21
5.5301303
0
LINE
8
bottom_labelLayer
10
21.8860563
20
5.5301303
11
22.0032498
21
5.5816357
0
LINE
8
bottom_labelLayer
10
22.0032498
20
5.5816357
11
22.0555016
21
5.7563062
0
LINE
8
bottom_labelLayer
10
22.0555016
20
5.7563062
11
22.1271613
21
5.7563062
0
LINE
8
bottom_labelLayer
10
22.1271613
20
5.7563062
11
22.1271613
21
5.5667066
0
LINE
8
bottom_labelLayer
10
22.1271613
20
5.5667066
11
22.364534
21
5.5667066
0
LINE
8
bottom_labelLayer
10
22.364534
20
5.5667066
11
22.364534
21
5.4704139
0
LINE
8
bottom_labelLayer
10
22.364534
20
5.4704139
11
22.1271613
21
5.4704139
0
LINE
8
bottom_labelLayer
10
22.1271613
20
5.4704139
11
22.1271613
21
4.9889503
0
ARC
8
bottom_labelLayer
10
22.2593858
20
5.2428716
40
0.4069454
50
269.8805526
51
278.3029671
0
ARC
8
bottom_labelLayer
10
22.2639593
20
5.2066299
40
0.370424
50
278.4124716
51
279.0124763
0
ARC
8
bottom_labelLayer
10
22.2175751
20
5.503047
40
0.670448
50
278.9593211
51
280.5104498
0
ARC
8
bottom_labelLayer
10
22.261133
20
5.2693623
40
0.4327386
50
280.48404
51
282.6264164
0
ARC
8
bottom_labelLayer
10
22.2992584
20
5.0999677
40
0.2591066
50
282.5877401
51
285.5784636
0
ARC
8
bottom_labelLayer
10
22.3184604
20
5.0293301
40
0.1859077
50
285.7244477
51
286.2573606
0
ARC
8
bottom_labelLayer
10
22.318408
20
4.86625
40
0.1218885
50
287.9885072
51
295.3039927
0
ARC
8
bottom_labelLayer
10
22.288999
20
4.9552293
40
0.2156013
50
283.3076427
51
288.1193349
0
ARC
8
bottom_labelLayer
10
22.2579852
20
5.0845957
40
0.348633
50
280.0062485
51
283.3739598
0
ARC
8
bottom_labelLayer
10
22.2373684
20
5.1963864
40
0.4623064
50
279.1849351
51
280.1151786
0
ARC
8
bottom_labelLayer
10
22.2244196
20
5.2700744
40
0.5371175
50
275.5262628
51
279.2938028
0
ARC
8
bottom_labelLayer
10
22.2388018
20
5.1198357
40
0.386192
50
270.8930255
51
275.5489452
0
ARC
8
bottom_labelLayer
10
22.2406051
20
5.051041
40
0.3173783
50
270.0031407
51
270.7610901
0
ARC
8
bottom_labelLayer
10
22.2356229
20
5.0572686
40
0.3236445
50
253.7849711
51
270.8851294
0
ARC
8
bottom_labelLayer
10
22.1972797
20
4.9265001
40
0.187371
50
190.3817634
51
253.877247
0
ARC
8
bottom_labelLayer
10
22.3927095
20
4.9793413
40
0.3894844
50
179.3550892
51
192.8478158
0
ARC
8
bottom_labelLayer
10
22.3766723
20
4.9873888
40
0.2495158
50
179.6414245
51
189.7503993
0
ARC
8
bottom_labelLayer
10
22.2885835
20
4.9716771
40
0.1600395
50
189.5476329
51
205.7876213
0
ARC
8
bottom_labelLayer
10
22.2523854
20
4.9549832
40
0.1201859
50
206.1289997
51
221.4086779
0
ARC
8
bottom_labelLayer
10
22.2483312
20
4.9519067
40
0.1151109
50
221.5949267
51
262.3505228
0
ARC
8
bottom_labelLayer
10
22.2579832
20
5.0015416
40
0.1656153
50
261.3267348
51
270.1917255
0
ARC
8
bottom_labelLayer
10
22.6000842
20
5.1540816
40
0.6400562
50
349.1761511
51
0.386181
0
ARC
8
bottom_labelLayer
10
22.8155778
20
5.1111218
40
0.4203327
50
330.2507304
51
349.4116851
0
ARC
8
bottom_labelLayer
10
22.8818896
20
5.0766568
40
0.3456715
50
318.1440862
51
329.7565178
0
ARC
8
bottom_labelLayer
10
22.893864
20
5.0670616
40
0.3303512
50
278.8959121
51
317.9978298
0
ARC
8
bottom_labelLayer
10
22.8630227
20
5.214827
40
0.4811689
50
269.7504074
51
279.8032951
0
ARC
8
bottom_labelLayer
10
22.8580221
20
5.1315668
40
0.3979147
50
253.5436817
51
270.4182332
0
ARC
8
bottom_labelLayer
10
22.8447761
20
5.080327
40
0.3450263
50
238.8114196
51
253.2427696
0
ARC
8
bottom_labelLayer
10
22.8405019
20
5.0717327
40
0.3354618
50
207.7947549
51
238.6757685
0
ARC
8
bottom_labelLayer
10
22.9018267
20
5.1092911
40
0.4072512
50
205.6557734
51
208.4460102
0
ARC
8
bottom_labelLayer
10
22.9490921
20
5.1289872
40
0.4583924
50
188.910197
51
205.3170531
0
ARC
8
bottom_labelLayer
10
23.1083211
20
5.1559555
40
0.6198803
50
179.7744602
51
189.0932621
0
ARC
8
bottom_labelLayer
10
23.1317993
20
5.1627543
40
0.6433685
50
169.2442205
51
180.3881653
0
ARC
8
bottom_labelLayer
10
22.9133211
20
5.2059407
40
0.4206723
50
150.7111197
51
169.4695861
0
ARC
8
bottom_labelLayer
10
22.8435752
20
5.2417581
40
0.3423322
50
138.1759607
51
150.2287533
0
ARC
8
bottom_labelLayer
10
22.8319734
20
5.2506606
40
0.3277518
50
99.1759691
51
137.9832279
0
ARC
8
bottom_labelLayer
10
22.8639071
20
5.1003684
40
0.4812725
50
89.7327634
51
100.0758387
0
ARC
8
bottom_labelLayer
10
22.8702885
20
5.1652849
40
0.4163713
50
73.5221702
51
90.569239
0
ARC
8
bottom_labelLayer
10
22.8947071
20
5.2539998
40
0.3243786
50
41.1445067
51
73.2134597
0
ARC
8
bottom_labelLayer
10
22.8480942
20
5.2139366
40
0.3858408
50
13.5014109
51
41.0703032
0
ARC
8
bottom_labelLayer
10
22.6680092
20
5.1668115
40
0.5719639
50
1.1276574
51
13.8799122
0
ARC
8
bottom_labelLayer
10
22.5136093
20
5.1585058
40
0.7265166
50
359.9913129
51
1.5429157
0
ARC
8
bottom_labelLayer
10
23.2443069
20
5.1551755
40
0.6274793
50
179.7059628
51
187.9161602
0
ARC
8
bottom_labelLayer
10
23.014172
20
5.1221161
40
0.3949858
50
187.7639567
51
200.0976869
0
ARC
8
bottom_labelLayer
10
22.8873896
20
5.0756629
40
0.2599611
50
200.0845949
51
216.9129645
0
ARC
8
bottom_labelLayer
10
22.8410892
20
5.0426027
40
0.2030902
50
217.3008361
51
261.7099429
0
ARC
8
bottom_labelLayer
10
22.8625811
20
5.1451634
40
0.3077461
50
260.5034752
51
270.2478777
0
ARC
8
bottom_labelLayer
10
22.8666845
20
5.1252235
40
0.2878169
50
269.4481641
51
284.7254531
0
ARC
8
bottom_labelLayer
10
22.8894693
20
5.0407199
40
0.2002979
50
284.5662114
51
322.6334962
0
ARC
8
bottom_labelLayer
10
22.8361946
20
5.0792085
40
0.266004
50
323.0090335
51
342.6389141
0
ARC
8
bottom_labelLayer
10
22.6838369
20
5.129004
40
0.4262844
50
342.3614169
51
353.7538059
0
ARC
8
bottom_labelLayer
10
22.4590723
20
5.1560995
40
0.6526674
50
353.536088
51
0.2015697
0
ARC
8
bottom_labelLayer
10
22.4934785
20
5.1615526
40
0.6182652
50
359.7074411
51
7.897161
0
ARC
8
bottom_labelLayer
10
22.7199115
20
5.1940132
40
0.3895208
50
7.7438969
51
20.0691724
0
ARC
8
bottom_labelLayer
10
22.8460795
20
5.2403137
40
0.2551258
50
20.0256178
51
37.4351233
0
ARC
8
bottom_labelLayer
10
22.8879407
20
5.2700179
40
0.2038386
50
37.9577921
51
80.4005849
0
ARC
8
bottom_labelLayer
10
22.8641513
20
5.1638706
40
0.3125197
50
79.3453642
51
90.3174806
0
ARC
8
bottom_labelLayer
10
22.8597455
20
5.1815105
40
0.2948871
50
89.4804301
51
103.8807269
0
ARC
8
bottom_labelLayer
10
22.834968
20
5.2758596
40
0.1973543
50
103.4686197
51
142.311838
0
ARC
8
bottom_labelLayer
10
22.883136
20
5.241984
40
0.256196
50
142.9024325
51
162.3751138
0
ARC
8
bottom_labelLayer
10
23.0349312
20
5.191398
40
0.4161886
50
162.0653211
51
173.1674419
0
ARC
8
bottom_labelLayer
10
23.2715852
20
5.1612127
40
0.6547554
50
173.0084722
51
180.2465154
0
LINE
8
bottom_labelLayer
10
24.6240536
20
4.7485918
11
24.500142
21
4.7485918
0
LINE
8
bottom_labelLayer
10
24.500142
20
4.7485918
11
24.500142
21
5.2808143
0
LINE
8
bottom_labelLayer
10
24.1022815
20
5.2054223
11
24.1022815
21
4.7485918
0
LINE
8
bottom_labelLayer
10
24.1022815
20
4.7485918
11
23.9783699
21
4.7485918
0
LINE
8
bottom_labelLayer
10
23.9783699
20
4.7485918
11
23.9783699
21
5.2808143
0
LINE
8
bottom_labelLayer
10
23.5812558
20
5.1778035
11
23.5812558
21
4.7485918
0
LINE
8
bottom_labelLayer
10
23.5812558
20
4.7485918
11
23.4573443
21
4.7485918
0
LINE
8
bottom_labelLayer
10
23.4573443
20
4.7485918
11
23.4573443
21
5.5667066
0
LINE
8
bottom_labelLayer
10
23.4573443
20
5.5667066
11
23.5581157
21
5.5667066
0
LINE
8
bottom_labelLayer
10
23.5581157
20
5.5667066
11
23.57827
21
5.4547383
0
LINE
8
bottom_labelLayer
10
23.57827
20
5.4547383
11
23.5842416
21
5.4547383
0
LINE
8
bottom_labelLayer
10
24.076902
20
5.442795
11
24.0828736
21
5.442795
0
LINE
8
bottom_labelLayer
10
24.6240536
20
5.2823072
11
24.6240536
21
4.7485918
0
ARC
8
bottom_labelLayer
10
24.134621
20
5.2827625
40
0.3655262
50
359.6946127
51
8.1474552
0
ARC
8
bottom_labelLayer
10
24.2692382
20
5.3026861
40
0.2294451
50
7.9865475
51
20.794859
0
ARC
8
bottom_labelLayer
10
24.3436679
20
5.3311965
40
0.1497423
50
20.7072813
51
40.0218265
0
ARC
8
bottom_labelLayer
10
24.3599962
20
5.3418802
40
0.1303883
50
41.0407969
51
73.1793183
0
ARC
8
bottom_labelLayer
10
24.3363695
20
5.2704226
40
0.2056348
50
72.639436
51
86.2566444
0
ARC
8
bottom_labelLayer
10
24.3287988
20
5.1887039
40
0.2876819
50
85.8146301
51
90.0680011
0
ARC
8
bottom_labelLayer
10
24.3260199
20
5.1575584
40
0.3188364
50
89.5619777
51
101.2962912
0
ARC
8
bottom_labelLayer
10
24.3020051
20
5.2725186
40
0.2014018
50
101.0030321
51
121.7841776
0
ARC
8
bottom_labelLayer
10
24.2837445
20
5.3051151
40
0.1640836
50
122.3593034
51
140.2888176
0
ARC
8
bottom_labelLayer
10
24.3165982
20
5.2810242
40
0.2047639
50
140.9767096
51
161.1698421
0
ARC
8
bottom_labelLayer
10
24.4403459
20
5.236987
40
0.3361068
50
160.8733837
51
172.5270239
0
ARC
8
bottom_labelLayer
10
24.6471048
20
5.2084345
40
0.5448249
50
172.3777808
51
180.1829825
0
ARC
8
bottom_labelLayer
10
24.7760796
20
5.2055289
40
0.6737979
50
179.9008773
51
180.0090617
0
ARC
8
bottom_labelLayer
10
23.6128489
20
5.2827625
40
0.3655262
50
359.6946127
51
8.1474552
0
ARC
8
bottom_labelLayer
10
23.7474661
20
5.3026861
40
0.2294451
50
7.9865475
51
20.794859
0
ARC
8
bottom_labelLayer
10
23.8218958
20
5.3311965
40
0.1497423
50
20.7072813
51
40.0218265
0
ARC
8
bottom_labelLayer
10
23.8385632
20
5.3421146
40
0.1299786
50
41.0610343
51
72.8992995
0
ARC
8
bottom_labelLayer
10
23.8144912
20
5.2704519
40
0.2055606
50
72.3598804
51
85.9564003
0
ARC
8
bottom_labelLayer
10
23.8063407
20
5.186237
40
0.2901488
50
85.5235988
51
90.0793677
0
ARC
8
bottom_labelLayer
10
23.8035611
20
5.1686316
40
0.3077631
50
89.5573363
51
101.4831342
0
ARC
8
bottom_labelLayer
10
23.7799385
20
5.2793088
40
0.1946017
50
101.1544989
51
123.0656677
0
ARC
8
bottom_labelLayer
10
23.7638786
20
5.3072809
40
0.1624075
50
123.7016465
51
142.3024322
0
ARC
8
bottom_labelLayer
10
23.8014942
20
5.2817604
40
0.2077953
50
143.0768786
51
161.3913083
0
ARC
8
bottom_labelLayer
10
23.9530947
20
5.2282181
40
0.3685632
50
161.0233487
51
171.4471439
0
ARC
8
bottom_labelLayer
10
24.2040706
20
5.1889002
40
0.6225974
50
171.304033
51
178.350283
0
ARC
8
bottom_labelLayer
10
24.4436454
20
5.1781905
40
0.8623896
50
178.0972774
51
180.0257129
0
ARC
8
bottom_labelLayer
10
23.7941648
20
5.3312933
40
0.2435291
50
117.1210223
51
149.5424147
0
ARC
8
bottom_labelLayer
10
23.8190176
20
5.2871226
40
0.2941793
50
93.834159
51
117.5074147
0
ARC
8
bottom_labelLayer
10
23.8258809
20
5.2263512
40
0.3552844
50
89.9657749
51
94.2831668
0
ARC
8
bottom_labelLayer
10
23.8299958
20
5.1759632
40
0.4056912
50
77.5572416
51
90.5511859
0
ARC
8
bottom_labelLayer
10
23.8676394
20
5.3378777
40
0.2394764
50
52.7026902
51
78.0052979
0
ARC
8
bottom_labelLayer
10
23.88105
20
5.3628299
40
0.2115476
50
22.2098919
51
51.4969166
0
ARC
8
bottom_labelLayer
10
24.3073446
20
5.3141503
40
0.2587212
50
119.4041568
51
150.1828991
0
ARC
8
bottom_labelLayer
10
24.3363275
20
5.2700037
40
0.311431
50
118.2606337
51
120.0618446
0
ARC
8
bottom_labelLayer
10
24.3359567
20
5.2673267
40
0.3136173
50
95.8635569
51
117.9693938
0
ARC
8
bottom_labelLayer
10
24.3465705
20
5.1906026
40
0.3910336
50
89.9196752
51
96.2621287
0
ARC
8
bottom_labelLayer
10
24.3499792
20
5.1509308
40
0.4307144
50
79.9360255
51
90.3805122
0
ARC
8
bottom_labelLayer
10
24.3786756
20
5.3063491
40
0.272675
50
62.9725972
51
80.1663103
0
ARC
8
bottom_labelLayer
10
24.4086791
20
5.3679079
40
0.2042087
50
44.2290037
51
62.6228416
0
ARC
8
bottom_labelLayer
10
24.3997581
20
5.3639678
40
0.2133766
50
19.5610321
51
43.316181
0
ARC
8
bottom_labelLayer
10
24.2701648
20
5.3152914
40
0.3517967
50
7.5041323
51
19.9645789
0
ARC
8
bottom_labelLayer
10
24.0557332
20
5.2851778
40
0.5683276
50
359.7105967
51
7.6907836
0
ENDSEC
0
EOF