  0
SECTION
  2
HEADER
  9
$ACADVER
  1
AC1032
  9
$ACADMAINTVER
 90
      230
  9
$DWGCODEPAGE
  3
ANSI_1252
  9
$LASTSAVEDBY
  1
jdski
  9
$REQUIREDVERSIONS
160
                 0
  9
$INSBASE
 10
0.0
 20
0.0
 30
0.0
  9
$EXTMIN
 10
0.0
 20
0.1070186979572609
 30
0.0
  9
$EXTMAX
 10
25.9311
 20
10.6437
 30
0.0
  9
$LIMMIN
 10
0.0
 20
0.0
  9
$LIMMAX
 10
12.0
 20
9.0
  9
$ORTHOMODE
 70
     0
  9
$REGENMODE
 70
     1
  9
$FILLMODE
 70
     1
  9
$QTEXTMODE
 70
     0
  9
$MIRRTEXT
 70
     0
  9
$LTSCALE
 40
1.0
  9
$ATTMODE
 70
     1
  9
$TEXTSIZE
 40
0.2
  9
$TRACEWID
 40
0.05
  9
$TEXTSTYLE
  7
Standard
  9
$CLAYER
  8
0
  9
$CELTYPE
  6
CONTINUOUS
  9
$CECOLOR
 62
   256
  9
$CELTSCALE
 40
1.0
  9
$DISPSILH
 70
     0
  9
$DIMSCALE
 40
1.0
  9
$DIMASZ
 40
0.18
  9
$DIMEXO
 40
0.0625
  9
$DIMDLI
 40
0.38
  9
$DIMRND
 40
0.0
  9
$DIMDLE
 40
0.0
  9
$DIMEXE
 40
0.18
  9
$DIMTP
 40
0.0
  9
$DIMTM
 40
0.0
  9
$DIMTXT
 40
0.18
  9
$DIMCEN
 40
0.09
  9
$DIMTSZ
 40
0.0
  9
$DIMTOL
 70
     0
  9
$DIMLIM
 70
     0
  9
$DIMTIH
 70
     1
  9
$DIMTOH
 70
     1
  9
$DIMSE1
 70
     0
  9
$DIMSE2
 70
     0
  9
$DIMTAD
 70
     0
  9
$DIMZIN
 70
     0
  9
$DIMBLK
  1

  9
$DIMASO
 70
     1
  9
$DIMSHO
 70
     1
  9
$DIMPOST
  1

  9
$DIMAPOST
  1

  9
$DIMALT
 70
     0
  9
$DIMALTD
 70
     2
  9
$DIMALTF
 40
25.4
  9
$DIMLFAC
 40
1.0
  9
$DIMTOFL
 70
     0
  9
$DIMTVP
 40
0.0
  9
$DIMTIX
 70
     0
  9
$DIMSOXD
 70
     0
  9
$DIMSAH
 70
     0
  9
$DIMBLK1
  1

  9
$DIMBLK2
  1

  9
$DIMSTYLE
  2
Standard
  9
$DIMCLRD
 70
     0
  9
$DIMCLRE
 70
     0
  9
$DIMCLRT
 70
     0
  9
$DIMTFAC
 40
1.0
  9
$DIMGAP
 40
0.09
  9
$DIMJUST
 70
     0
  9
$DIMSD1
 70
     0
  9
$DIMSD2
 70
     0
  9
$DIMTOLJ
 70
     1
  9
$DIMTZIN
 70
     0
  9
$DIMALTZ
 70
     0
  9
$DIMALTTZ
 70
     0
  9
$DIMUPT
 70
     0
  9
$DIMDEC
 70
     4
  9
$DIMTDEC
 70
     4
  9
$DIMALTU
 70
     2
  9
$DIMALTTD
 70
     2
  9
$DIMTXSTY
  7
Standard
  9
$DIMAUNIT
 70
     0
  9
$DIMADEC
 70
     0
  9
$DIMALTRND
 40
0.0
  9
$DIMAZIN
 70
     0
  9
$DIMDSEP
 70
    46
  9
$DIMATFIT
 70
     3
  9
$DIMFRAC
 70
     0
  9
$DIMLDRBLK
  1

  9
$DIMLUNIT
 70
     2
  9
$DIMLWD
 70
    -2
  9
$DIMLWE
 70
    -2
  9
$DIMTMOVE
 70
     0
  9
$DIMFXL
 40
1.0
  9
$DIMFXLON
 70
     0
  9
$DIMJOGANG
 40
0.7853981633974483
  9
$DIMTFILL
 70
     0
  9
$DIMTFILLCLR
 70
     0
  9
$DIMARCSYM
 70
     0
  9
$DIMLTYPE
  6

  9
$DIMLTEX1
  6

  9
$DIMLTEX2
  6

  9
$DIMTXTDIRECTION
 70
     0
  9
$LUNITS
 70
     2
  9
$LUPREC
 70
     4
  9
$SKETCHINC
 40
0.1
  9
$FILLETRAD
 40
0.0
  9
$AUNITS
 70
     0
  9
$AUPREC
 70
     0
  9
$MENU
  1
.
  9
$ELEVATION
 40
0.0
  9
$PELEVATION
 40
0.0
  9
$THICKNESS
 40
0.0
  9
$LIMCHECK
 70
     0
  9
$CHAMFERA
 40
0.0
  9
$CHAMFERB
 40
0.0
  9
$CHAMFERC
 40
0.0
  9
$CHAMFERD
 40
0.0
  9
$SKPOLY
 70
     0
  9
$TDCREATE
 40
2459978.692222222
  9
$TDUCREATE
 40
2459979.025555556
  9
$TDUPDATE
 40
2459978.693564815
  9
$TDUUPDATE
 40
2459979.026898148
  9
$TDINDWG
 40
0.0013425926
  9
$TDUSRTIMER
 40
0.0013425926
  9
$USRTIMER
 70
     1
  9
$ANGBASE
 50
0.0
  9
$ANGDIR
 70
     0
  9
$PDMODE
 70
     0
  9
$PDSIZE
 40
0.0
  9
$PLINEWID
 40
0.0
  9
$SPLFRAME
 70
     0
  9
$SPLINETYPE
 70
     6
  9
$SPLINESEGS
 70
     8
  9
$HANDSEED
  5
64C
  9
$SURFTAB1
 70
     6
  9
$SURFTAB2
 70
     6
  9
$SURFTYPE
 70
     6
  9
$SURFU
 70
     6
  9
$SURFV
 70
     6
  9
$UCSBASE
  2

  9
$UCSNAME
  2

  9
$UCSORG
 10
0.0
 20
0.0
 30
0.0
  9
$UCSXDIR
 10
1.0
 20
0.0
 30
0.0
  9
$UCSYDIR
 10
0.0
 20
1.0
 30
0.0
  9
$UCSORTHOREF
  2

  9
$UCSORTHOVIEW
 70
     0
  9
$UCSORGTOP
 10
0.0
 20
0.0
 30
0.0
  9
$UCSORGBOTTOM
 10
0.0
 20
0.0
 30
0.0
  9
$UCSORGLEFT
 10
0.0
 20
0.0
 30
0.0
  9
$UCSORGRIGHT
 10
0.0
 20
0.0
 30
0.0
  9
$UCSORGFRONT
 10
0.0
 20
0.0
 30
0.0
  9
$UCSORGBACK
 10
0.0
 20
0.0
 30
0.0
  9
$PUCSBASE
  2

  9
$PUCSNAME
  2

  9
$PUCSORG
 10
0.0
 20
0.0
 30
0.0
  9
$PUCSXDIR
 10
1.0
 20
0.0
 30
0.0
  9
$PUCSYDIR
 10
0.0
 20
1.0
 30
0.0
  9
$PUCSORTHOREF
  2

  9
$PUCSORTHOVIEW
 70
     0
  9
$PUCSORGTOP
 10
0.0
 20
0.0
 30
0.0
  9
$PUCSORGBOTTOM
 10
0.0
 20
0.0
 30
0.0
  9
$PUCSORGLEFT
 10
0.0
 20
0.0
 30
0.0
  9
$PUCSORGRIGHT
 10
0.0
 20
0.0
 30
0.0
  9
$PUCSORGFRONT
 10
0.0
 20
0.0
 30
0.0
  9
$PUCSORGBACK
 10
0.0
 20
0.0
 30
0.0
  9
$USERI1
 70
     0
  9
$USERI2
 70
     0
  9
$USERI3
 70
     0
  9
$USERI4
 70
     0
  9
$USERI5
 70
     0
  9
$USERR1
 40
0.0
  9
$USERR2
 40
0.0
  9
$USERR3
 40
0.0
  9
$USERR4
 40
0.0
  9
$USERR5
 40
0.0
  9
$WORLDVIEW
 70
     1
  9
$SHADEDGE
 70
     3
  9
$SHADEDIF
 70
    70
  9
$TILEMODE
 70
     1
  9
$MAXACTVP
 70
    64
  9
$PINSBASE
 10
0.0
 20
0.0
 30
0.0
  9
$PLIMCHECK
 70
     0
  9
$PEXTMIN
 10
1.000000000000000E+20
 20
1.000000000000000E+20
 30
1.000000000000000E+20
  9
$PEXTMAX
 10
-1.000000000000000E+20
 20
-1.000000000000000E+20
 30
-1.000000000000000E+20
  9
$PLIMMIN
 10
0.0
 20
0.0
  9
$PLIMMAX
 10
12.0
 20
9.0
  9
$UNITMODE
 70
     0
  9
$VISRETAIN
 70
     1
  9
$PLINEGEN
 70
     0
  9
$PSLTSCALE
 70
     1
  9
$TREEDEPTH
 70
  3020
  9
$CMLSTYLE
  2
Standard
  9
$CMLJUST
 70
     0
  9
$CMLSCALE
 40
1.0
  9
$PROXYGRAPHICS
 70
     1
  9
$MEASUREMENT
 70
     0
  9
$CELWEIGHT
370
    -1
  9
$ENDCAPS
280
     0
  9
$JOINSTYLE
280
     0
  9
$LWDISPLAY
290
     0
  9
$INSUNITS
 70
     1
  9
$HYPERLINKBASE
  1

  9
$STYLESHEET
  1

  9
$XEDIT
290
     1
  9
$CEPSNTYPE
380
     0
  9
$PSTYLEMODE
290
     1
  9
$FINGERPRINTGUID
  2
{BC6566DD-9958-5045-9378-14A180645B8E}
  9
$VERSIONGUID
  2
{2A4564B6-FEA0-8C43-82FE-F7CB35949E13}
  9
$EXTNAMES
290
     1
  9
$PSVPSCALE
 40
0.0
  9
$OLESTARTUP
290
     0
  9
$SORTENTS
280
   127
  9
$INDEXCTL
280
     0
  9
$HIDETEXT
280
     0
  9
$XCLIPFRAME
280
     2
  9
$HALOGAP
280
     0
  9
$OBSCOLOR
 70
   257
  9
$OBSLTYPE
280
     0
  9
$INTERSECTIONDISPLAY
280
     0
  9
$INTERSECTIONCOLOR
 70
   257
  9
$DIMASSOC
280
     1
  9
$PROJECTNAME
  1

  9
$CAMERADISPLAY
290
     0
  9
$LENSLENGTH
 40
50.0
  9
$CAMERAHEIGHT
 40
0.0
  9
$STEPSPERSEC
 40
2.0
  9
$STEPSIZE
 40
6.0
  9
$3DDWFPREC
 40
2.0
  9
$PSOLWIDTH
 40
0.25
  9
$PSOLHEIGHT
 40
4.0
  9
$LOFTANG1
 40
1.570796326794896
  9
$LOFTANG2
 40
1.570796326794896
  9
$LOFTMAG1
 40
0.0
  9
$LOFTMAG2
 40
0.0
  9
$LOFTPARAM
 70
     7
  9
$LOFTNORMALS
280
     1
  9
$LATITUDE
 40
37.795
  9
$LONGITUDE
 40
-122.394
  9
$NORTHDIRECTION
 40
0.0
  9
$TIMEZONE
 70
 -8000
  9
$LIGHTGLYPHDISPLAY
280
     1
  9
$TILEMODELIGHTSYNCH
280
     1
  9
$CMATERIAL
347
11
  9
$SOLIDHIST
280
     0
  9
$SHOWHIST
280
     1
  9
$DWFFRAME
280
     2
  9
$DGNFRAME
280
     0
  9
$REALWORLDSCALE
290
     1
  9
$INTERFERECOLOR
 62
     1
  9
$INTERFEREOBJVS
345
33
  9
$INTERFEREVPVS
346
30
  9
$CSHADOW
280
     0
  9
$SHADOWPLANELOCATION
 40
0.0
  0
ENDSEC
  0
SECTION
  2
CLASSES
  0
CLASS
  1
ACDBDICTIONARYWDFLT
  2
AcDbDictionaryWithDefault
  3
ObjectDBX Classes
 90
        0
 91
        1
280
     0
281
     0
  0
CLASS
  1
MATERIAL
  2
AcDbMaterial
  3
ObjectDBX Classes
 90
     1153
 91
        3
280
     0
281
     0
  0
CLASS
  1
VISUALSTYLE
  2
AcDbVisualStyle
  3
ObjectDBX Classes
 90
     4095
 91
       24
280
     0
281
     0
  0
CLASS
  1
SCALE
  2
AcDbScale
  3
ObjectDBX Classes
 90
     1153
 91
       17
280
     0
281
     0
  0
CLASS
  1
TABLESTYLE
  2
AcDbTableStyle
  3
ObjectDBX Classes
 90
     4095
 91
        1
280
     0
281
     0
  0
CLASS
  1
MLEADERSTYLE
  2
AcDbMLeaderStyle
  3
ACDB_MLEADERSTYLE_CLASS
 90
     4095
 91
        1
280
     0
281
     0
  0
CLASS
  1
ACDBSECTIONVIEWSTYLE
  2
AcDbSectionViewStyle
  3
ObjectDBX Classes
 90
     1025
 91
        1
280
     0
281
     0
  0
CLASS
  1
ACDBDETAILVIEWSTYLE
  2
AcDbDetailViewStyle
  3
ObjectDBX Classes
 90
     1025
 91
        1
280
     0
281
     0
  0
CLASS
  1
DICTIONARYVAR
  2
AcDbDictionaryVar
  3
ObjectDBX Classes
 90
        0
 91
       18
280
     0
281
     0
  0
CLASS
  1
CELLSTYLEMAP
  2
AcDbCellStyleMap
  3
ObjectDBX Classes
 90
     1152
 91
        1
280
     0
281
     0
  0
ENDSEC
  0
SECTION
  2
TABLES
  0
TABLE
  2
VPORT
  5
8
330
0
100
AcDbSymbolTable
 70
     1
  0
VPORT
  5
74
330
8
100
AcDbSymbolTableRecord
100
AcDbViewportTableRecord
  2
*Active
 70
     0
 10
0.0
 20
0.0
 11
1.0
 21
1.0
 12
15.62605544528455
 22
5.007018778356619
 13
0.0
 23
0.0
 14
1.0
 24
1.0
 15
0.0
 25
0.0
 16
0.0
 26
0.0
 36
1.0
 17
0.0
 27
0.0
 37
0.0
 40
15.31153813788163
 41
2.340243902439024
 42
50.0
 43
0.0
 44
0.0
 50
0.0
 51
0.0
 71
     0
 72
   100
 73
     1
 74
     1
 75
     0
 76
     0
 77
     0
 78
     0
281
     0
 65
     1
110
0.0
120
0.0
130
0.0
111
1.0
121
0.0
131
0.0
112
0.0
122
1.0
132
0.0
 79
     0
146
0.0
348
2F
 60
     3
 61
     5
292
     1
282
     1
141
0.0
142
0.0
 63
   250
421
  3355443
1001
ACAD_NAV_VCDISPLAY
1070
     3
  0
ENDTAB
  0
TABLE
  2
LTYPE
  5
5
330
0
100
AcDbSymbolTable
 70
     2
  0
LTYPE
  5
5A
330
5
100
AcDbSymbolTableRecord
100
AcDbLinetypeTableRecord
  2
ByBlock
 70
     0
  3

 72
    65
 73
     0
 40
0.0
  0
LTYPE
  5
5B
330
5
100
AcDbSymbolTableRecord
100
AcDbLinetypeTableRecord
  2
ByLayer
 70
     0
  3

 72
    65
 73
     0
 40
0.0
  0
LTYPE
  5
5C
330
5
100
AcDbSymbolTableRecord
100
AcDbLinetypeTableRecord
  2
CONTINUOUS
 70
     0
  3
______
 72
    65
 73
     0
 40
0.0
  0
ENDTAB
  0
TABLE
  2
LAYER
  5
2
330
0
100
AcDbSymbolTable
 70
    11
  0
LAYER
  5
54
102
{ACAD_XDICTIONARY
360
61E
102
}
330
2
100
AcDbSymbolTableRecord
100
AcDbLayerTableRecord
  2
0
 70
     0
 62
     7
  6
CONTINUOUS
370
    -3
390
F
347
21
348
0
  0
LAYER
  5
75
102
{ACAD_XDICTIONARY
360
620
102
}
330
2
100
AcDbSymbolTableRecord
100
AcDbLayerTableRecord
  2
front_outsideCutPath
 70
     0
 62
     7
  6
CONTINUOUS
370
    -3
390
F
347
21
348
0
  0
LAYER
  5
BF
102
{ACAD_XDICTIONARY
360
622
102
}
330
2
100
AcDbSymbolTableRecord
100
AcDbLayerTableRecord
  2
front_labelLayer
 70
     0
 62
     7
  6
CONTINUOUS
370
    -3
390
F
347
21
348
0
  0
LAYER
  5
159
102
{ACAD_XDICTIONARY
360
624
102
}
330
2
100
AcDbSymbolTableRecord
100
AcDbLayerTableRecord
  2
left_outsideCutPath
 70
     0
 62
     7
  6
CONTINUOUS
370
    -3
390
F
347
21
348
0
  0
LAYER
  5
1AE
102
{ACAD_XDICTIONARY
360
626
102
}
330
2
100
AcDbSymbolTableRecord
100
AcDbLayerTableRecord
  2
left_labelLayer
 70
     0
 62
     7
  6
CONTINUOUS
370
    -3
390
F
347
21
348
0
  0
LAYER
  5
218
102
{ACAD_XDICTIONARY
360
628
102
}
330
2
100
AcDbSymbolTableRecord
100
AcDbLayerTableRecord
  2
back_outsideCutPath
 70
     0
 62
     7
  6
CONTINUOUS
370
    -3
390
F
347
21
348
0
  0
LAYER
  5
262
102
{ACAD_XDICTIONARY
360
62A
102
}
330
2
100
AcDbSymbolTableRecord
100
AcDbLayerTableRecord
  2
back_labelLayer
 70
     0
 62
     7
  6
CONTINUOUS
370
    -3
390
F
347
21
348
0
  0
LAYER
  5
30B
102
{ACAD_XDICTIONARY
360
62C
102
}
330
2
100
AcDbSymbolTableRecord
100
AcDbLayerTableRecord
  2
right_outsideCutPath
 70
     0
 62
     7
  6
CONTINUOUS
370
    -3
390
F
347
21
348
0
  0
LAYER
  5
360
102
{ACAD_XDICTIONARY
360
62E
102
}
330
2
100
AcDbSymbolTableRecord
100
AcDbLayerTableRecord
  2
right_labelLayer
 70
     0
 62
     7
  6
CONTINUOUS
370
    -3
390
F
347
21
348
0
  0
LAYER
  5
43C
102
{ACAD_XDICTIONARY
360
630
102
}
330
2
100
AcDbSymbolTableRecord
100
AcDbLayerTableRecord
  2
bottom_outsideCutPath
 70
     0
 62
     7
  6
CONTINUOUS
370
    -3
390
F
347
21
348
0
  0
LAYER
  5
4C9
102
{ACAD_XDICTIONARY
360
632
102
}
330
2
100
AcDbSymbolTableRecord
100
AcDbLayerTableRecord
  2
bottom_labelLayer
 70
     0
 62
     7
  6
CONTINUOUS
370
    -3
390
F
347
21
348
0
  0
ENDTAB
  0
TABLE
  2
STYLE
  5
3
330
0
100
AcDbSymbolTable
 70
     2
  0
STYLE
  5
55
330
3
100
AcDbSymbolTableRecord
100
AcDbTextStyleTableRecord
  2
Standard
 70
     0
 40
0.0
 41
1.0
 50
0.0
 71
     0
 42
0.2
  3
txt
  4

  0
STYLE
  5
59
330
3
100
AcDbSymbolTableRecord
100
AcDbTextStyleTableRecord
  2
Annotative
 70
     0
 40
0.0
 41
1.0
 50
0.0
 71
     0
 42
0.2
  3
txt
  4

1001
AcadAnnotative
1000
AnnotativeData
1002
{
1070
     1
1070
     1
1002
}
  0
ENDTAB
  0
TABLE
  2
VIEW
  5
6
330
0
100
AcDbSymbolTable
 70
     0
  0
ENDTAB
  0
TABLE
  2
UCS
  5
7
330
0
100
AcDbSymbolTable
 70
     0
  0
ENDTAB
  0
TABLE
  2
APPID
  5
9
330
0
100
AcDbSymbolTable
 70
     4
  0
APPID
  5
56
330
9
100
AcDbSymbolTableRecord
100
AcDbRegAppTableRecord
  2
ACAD
 70
     0
  0
APPID
  5
5D
330
9
100
AcDbSymbolTableRecord
100
AcDbRegAppTableRecord
  2
AcadAnnotative
 70
     0
  0
APPID
  5
5C9
330
9
100
AcDbSymbolTableRecord
100
AcDbRegAppTableRecord
  2
ACAD_EXEMPT_FROM_CAD_STANDARDS
 70
     0
  0
APPID
  5
634
330
9
100
AcDbSymbolTableRecord
100
AcDbRegAppTableRecord
  2
ACAD_NAV_VCDISPLAY
 70
     0
  0
ENDTAB
  0
TABLE
  2
DIMSTYLE
  5
A
330
0
100
AcDbSymbolTable
 70
     3
100
AcDbDimStyleTable
 71
     1
340
57
  0
DIMSTYLE
105
57
330
A
100
AcDbSymbolTableRecord
100
AcDbDimStyleTableRecord
  2
Standard
 70
     0
340
55
  0
DIMSTYLE
105
58
330
A
100
AcDbSymbolTableRecord
100
AcDbDimStyleTableRecord
  2
Annotative
 70
     0
340
55
1001
AcadAnnotative
1000
AnnotativeData
1002
{
1070
     1
1070
     1
1002
}
  0
ENDTAB
  0
TABLE
  2
BLOCK_RECORD
  5
1
330
0
100
AcDbSymbolTable
 70
     1
  0
BLOCK_RECORD
  5
6F
330
1
100
AcDbSymbolTableRecord
100
AcDbBlockTableRecord
  2
*Model_Space
340
72
 70
     0
280
     1
281
     0
  0
BLOCK_RECORD
  5
6B
330
1
100
AcDbSymbolTableRecord
100
AcDbBlockTableRecord
  2
*Paper_Space
340
6E
 70
     0
280
     1
281
     0
  0
ENDTAB
  0
ENDSEC
  0
SECTION
  2
BLOCKS
  0
BLOCK
  5
70
330
6F
100
AcDbEntity
  8
0
100
AcDbBlockBegin
  2
*Model_Space
 70
     0
 10
0.0
 20
0.0
 30
0.0
  3
*Model_Space
  1

  0
ENDBLK
  5
71
330
6F
100
AcDbEntity
  8
0
100
AcDbBlockEnd
  0
BLOCK
  5
6C
330
6B
100
AcDbEntity
 67
     1
  8
0
100
AcDbBlockBegin
  2
*Paper_Space
 70
     0
 10
0.0
 20
0.0
 30
0.0
  3
*Paper_Space
  1

  0
ENDBLK
  5
6D
330
6B
100
AcDbEntity
 67
     1
  8
0
100
AcDbBlockEnd
  0
ENDSEC
  0
SECTION
  2
ENTITIES
  0
LINE
  5
76
330
6F
100
AcDbEntity
  8
front_outsideCutPath
100
AcDbLine
 10
0.0
 20
5.32185
 30
0.0
 11
0.0
 21
4.9138
 31
0.0
  0
LINE
  5
77
330
6F
100
AcDbEntity
  8
front_outsideCutPath
100
AcDbLine
 10
0.0
 20
4.9138
 30
0.0
 11
0.19685
 21
4.9138
 31
0.0
  0
LINE
  5
78
330
6F
100
AcDbEntity
  8
front_outsideCutPath
100
AcDbLine
 10
0.19685
 20
4.9138
 30
0.0
 11
0.19685
 21
4.42705
 31
0.0
  0
LINE
  5
79
330
6F
100
AcDbEntity
  8
front_outsideCutPath
100
AcDbLine
 10
0.19685
 20
4.42705
 30
0.0
 11
0.0
 21
4.42705
 31
0.0
  0
LINE
  5
7A
330
6F
100
AcDbEntity
  8
front_outsideCutPath
100
AcDbLine
 10
0.0
 20
4.42705
 30
0.0
 11
0.0
 21
3.9403
 31
0.0
  0
LINE
  5
7B
330
6F
100
AcDbEntity
  8
front_outsideCutPath
100
AcDbLine
 10
0.0
 20
3.9403
 30
0.0
 11
0.19685
 21
3.9403
 31
0.0
  0
LINE
  5
7C
330
6F
100
AcDbEntity
  8
front_outsideCutPath
100
AcDbLine
 10
0.19685
 20
3.9403
 30
0.0
 11
0.19685
 21
3.453549999999999
 31
0.0
  0
LINE
  5
7D
330
6F
100
AcDbEntity
  8
front_outsideCutPath
100
AcDbLine
 10
0.19685
 20
3.453549999999999
 30
0.0
 11
0.0
 21
3.453549999999999
 31
0.0
  0
LINE
  5
7E
330
6F
100
AcDbEntity
  8
front_outsideCutPath
100
AcDbLine
 10
0.0
 20
3.453549999999999
 30
0.0
 11
0.0
 21
2.9668
 31
0.0
  0
LINE
  5
7F
330
6F
100
AcDbEntity
  8
front_outsideCutPath
100
AcDbLine
 10
0.0
 20
2.9668
 30
0.0
 11
0.19685
 21
2.9668
 31
0.0
  0
LINE
  5
80
330
6F
100
AcDbEntity
  8
front_outsideCutPath
100
AcDbLine
 10
0.19685
 20
2.9668
 30
0.0
 11
0.19685
 21
2.480049999999999
 31
0.0
  0
LINE
  5
81
330
6F
100
AcDbEntity
  8
front_outsideCutPath
100
AcDbLine
 10
0.19685
 20
2.480049999999999
 30
0.0
 11
0.0
 21
2.480049999999999
 31
0.0
  0
LINE
  5
82
330
6F
100
AcDbEntity
  8
front_outsideCutPath
100
AcDbLine
 10
0.0
 20
2.480049999999999
 30
0.0
 11
0.0
 21
1.993299999999999
 31
0.0
  0
LINE
  5
83
330
6F
100
AcDbEntity
  8
front_outsideCutPath
100
AcDbLine
 10
0.0
 20
1.993299999999999
 30
0.0
 11
0.19685
 21
1.993299999999999
 31
0.0
  0
LINE
  5
84
330
6F
100
AcDbEntity
  8
front_outsideCutPath
100
AcDbLine
 10
0.19685
 20
1.993299999999999
 30
0.0
 11
0.19685
 21
1.50655
 31
0.0
  0
LINE
  5
85
330
6F
100
AcDbEntity
  8
front_outsideCutPath
100
AcDbLine
 10
0.19685
 20
1.50655
 30
0.0
 11
0.0
 21
1.50655
 31
0.0
  0
LINE
  5
86
330
6F
100
AcDbEntity
  8
front_outsideCutPath
100
AcDbLine
 10
0.0
 20
1.50655
 30
0.0
 11
0.0
 21
1.0198
 31
0.0
  0
LINE
  5
87
330
6F
100
AcDbEntity
  8
front_outsideCutPath
100
AcDbLine
 10
0.0
 20
1.0198
 30
0.0
 11
0.19685
 21
1.0198
 31
0.0
  0
LINE
  5
88
330
6F
100
AcDbEntity
  8
front_outsideCutPath
100
AcDbLine
 10
0.19685
 20
1.0198
 30
0.0
 11
0.19685
 21
0.5330500000000001
 31
0.0
  0
LINE
  5
89
330
6F
100
AcDbEntity
  8
front_outsideCutPath
100
AcDbLine
 10
0.19685
 20
0.5330500000000001
 30
0.0
 11
0.0
 21
0.5330500000000001
 31
0.0
  0
LINE
  5
8A
330
6F
100
AcDbEntity
  8
front_outsideCutPath
100
AcDbLine
 10
0.0
 20
0.5330500000000001
 30
0.0
 11
0.0
 21
0.125
 31
0.0
  0
LINE
  5
8B
330
6F
100
AcDbEntity
  8
front_outsideCutPath
100
AcDbLine
 10
0.0
 20
0.125
 30
0.0
 11
0.657975
 21
0.125
 31
0.0
  0
LINE
  5
8C
330
6F
100
AcDbEntity
  8
front_outsideCutPath
100
AcDbLine
 10
0.657975
 20
0.125
 30
0.0
 11
0.657975
 21
0.32185
 31
0.0
  0
LINE
  5
8D
330
6F
100
AcDbEntity
  8
front_outsideCutPath
100
AcDbLine
 10
0.657975
 20
0.32185
 30
0.0
 11
1.144724999999999
 21
0.32185
 31
0.0
  0
LINE
  5
8E
330
6F
100
AcDbEntity
  8
front_outsideCutPath
100
AcDbLine
 10
1.144724999999999
 20
0.32185
 30
0.0
 11
1.144724999999999
 21
0.125
 31
0.0
  0
LINE
  5
8F
330
6F
100
AcDbEntity
  8
front_outsideCutPath
100
AcDbLine
 10
1.144724999999999
 20
0.125
 30
0.0
 11
1.631475
 21
0.125
 31
0.0
  0
LINE
  5
90
330
6F
100
AcDbEntity
  8
front_outsideCutPath
100
AcDbLine
 10
1.631475
 20
0.125
 30
0.0
 11
1.631475
 21
0.32185
 31
0.0
  0
LINE
  5
91
330
6F
100
AcDbEntity
  8
front_outsideCutPath
100
AcDbLine
 10
1.631475
 20
0.32185
 30
0.0
 11
2.118224999999999
 21
0.32185
 31
0.0
  0
LINE
  5
92
330
6F
100
AcDbEntity
  8
front_outsideCutPath
100
AcDbLine
 10
2.118224999999999
 20
0.32185
 30
0.0
 11
2.118224999999999
 21
0.125
 31
0.0
  0
LINE
  5
93
330
6F
100
AcDbEntity
  8
front_outsideCutPath
100
AcDbLine
 10
2.118224999999999
 20
0.125
 30
0.0
 11
2.604975
 21
0.125
 31
0.0
  0
LINE
  5
94
330
6F
100
AcDbEntity
  8
front_outsideCutPath
100
AcDbLine
 10
2.604975
 20
0.125
 30
0.0
 11
2.604975
 21
0.32185
 31
0.0
  0
LINE
  5
95
330
6F
100
AcDbEntity
  8
front_outsideCutPath
100
AcDbLine
 10
2.604975
 20
0.32185
 30
0.0
 11
3.091724999999999
 21
0.32185
 31
0.0
  0
LINE
  5
96
330
6F
100
AcDbEntity
  8
front_outsideCutPath
100
AcDbLine
 10
3.091724999999999
 20
0.32185
 30
0.0
 11
3.091724999999999
 21
0.125
 31
0.0
  0
LINE
  5
97
330
6F
100
AcDbEntity
  8
front_outsideCutPath
100
AcDbLine
 10
3.091724999999999
 20
0.125
 30
0.0
 11
3.578475
 21
0.125
 31
0.0
  0
LINE
  5
98
330
6F
100
AcDbEntity
  8
front_outsideCutPath
100
AcDbLine
 10
3.578475
 20
0.125
 30
0.0
 11
3.578475
 21
0.32185
 31
0.0
  0
LINE
  5
99
330
6F
100
AcDbEntity
  8
front_outsideCutPath
100
AcDbLine
 10
3.578475
 20
0.32185
 30
0.0
 11
4.065224999999999
 21
0.32185
 31
0.0
  0
LINE
  5
9A
330
6F
100
AcDbEntity
  8
front_outsideCutPath
100
AcDbLine
 10
4.065224999999999
 20
0.32185
 30
0.0
 11
4.065224999999999
 21
0.125
 31
0.0
  0
LINE
  5
9B
330
6F
100
AcDbEntity
  8
front_outsideCutPath
100
AcDbLine
 10
4.065224999999999
 20
0.125
 30
0.0
 11
4.551974999999999
 21
0.125
 31
0.0
  0
LINE
  5
9C
330
6F
100
AcDbEntity
  8
front_outsideCutPath
100
AcDbLine
 10
4.551974999999999
 20
0.125
 30
0.0
 11
4.551974999999999
 21
0.32185
 31
0.0
  0
LINE
  5
9D
330
6F
100
AcDbEntity
  8
front_outsideCutPath
100
AcDbLine
 10
4.551974999999999
 20
0.32185
 30
0.0
 11
5.038725
 21
0.32185
 31
0.0
  0
LINE
  5
9E
330
6F
100
AcDbEntity
  8
front_outsideCutPath
100
AcDbLine
 10
5.038725
 20
0.32185
 30
0.0
 11
5.038725
 21
0.125
 31
0.0
  0
LINE
  5
9F
330
6F
100
AcDbEntity
  8
front_outsideCutPath
100
AcDbLine
 10
5.038725
 20
0.125
 30
0.0
 11
5.525475
 21
0.125
 31
0.0
  0
LINE
  5
A0
330
6F
100
AcDbEntity
  8
front_outsideCutPath
100
AcDbLine
 10
5.525475
 20
0.125
 30
0.0
 11
5.525475
 21
0.32185
 31
0.0
  0
LINE
  5
A1
330
6F
100
AcDbEntity
  8
front_outsideCutPath
100
AcDbLine
 10
5.525475
 20
0.32185
 30
0.0
 11
6.012224999999999
 21
0.32185
 31
0.0
  0
LINE
  5
A2
330
6F
100
AcDbEntity
  8
front_outsideCutPath
100
AcDbLine
 10
6.012224999999999
 20
0.32185
 30
0.0
 11
6.012224999999999
 21
0.125
 31
0.0
  0
LINE
  5
A3
330
6F
100
AcDbEntity
  8
front_outsideCutPath
100
AcDbLine
 10
6.012224999999999
 20
0.125
 30
0.0
 11
6.498974999999999
 21
0.125
 31
0.0
  0
LINE
  5
A4
330
6F
100
AcDbEntity
  8
front_outsideCutPath
100
AcDbLine
 10
6.498974999999999
 20
0.125
 30
0.0
 11
6.498974999999999
 21
0.32185
 31
0.0
  0
LINE
  5
A5
330
6F
100
AcDbEntity
  8
front_outsideCutPath
100
AcDbLine
 10
6.498974999999999
 20
0.32185
 30
0.0
 11
6.985725
 21
0.32185
 31
0.0
  0
LINE
  5
A6
330
6F
100
AcDbEntity
  8
front_outsideCutPath
100
AcDbLine
 10
6.985725
 20
0.32185
 30
0.0
 11
6.985725
 21
0.125
 31
0.0
  0
LINE
  5
A7
330
6F
100
AcDbEntity
  8
front_outsideCutPath
100
AcDbLine
 10
6.985725
 20
0.125
 30
0.0
 11
7.472475
 21
0.125
 31
0.0
  0
LINE
  5
A8
330
6F
100
AcDbEntity
  8
front_outsideCutPath
100
AcDbLine
 10
7.472475
 20
0.125
 30
0.0
 11
7.643699999999999
 21
0.125
 31
0.0
  0
LINE
  5
A9
330
6F
100
AcDbEntity
  8
front_outsideCutPath
100
AcDbLine
 10
7.643699999999999
 20
0.125
 30
0.0
 11
7.643699999999999
 21
0.5330500000000001
 31
0.0
  0
LINE
  5
AA
330
6F
100
AcDbEntity
  8
front_outsideCutPath
100
AcDbLine
 10
7.643699999999999
 20
0.5330500000000001
 30
0.0
 11
7.44685
 21
0.5330500000000001
 31
0.0
  0
LINE
  5
AB
330
6F
100
AcDbEntity
  8
front_outsideCutPath
100
AcDbLine
 10
7.44685
 20
0.5330500000000001
 30
0.0
 11
7.44685
 21
1.0198
 31
0.0
  0
LINE
  5
AC
330
6F
100
AcDbEntity
  8
front_outsideCutPath
100
AcDbLine
 10
7.44685
 20
1.0198
 30
0.0
 11
7.643699999999999
 21
1.0198
 31
0.0
  0
LINE
  5
AD
330
6F
100
AcDbEntity
  8
front_outsideCutPath
100
AcDbLine
 10
7.643699999999999
 20
1.0198
 30
0.0
 11
7.643699999999999
 21
1.50655
 31
0.0
  0
LINE
  5
AE
330
6F
100
AcDbEntity
  8
front_outsideCutPath
100
AcDbLine
 10
7.643699999999999
 20
1.50655
 30
0.0
 11
7.44685
 21
1.50655
 31
0.0
  0
LINE
  5
AF
330
6F
100
AcDbEntity
  8
front_outsideCutPath
100
AcDbLine
 10
7.44685
 20
1.50655
 30
0.0
 11
7.44685
 21
1.993299999999999
 31
0.0
  0
LINE
  5
B0
330
6F
100
AcDbEntity
  8
front_outsideCutPath
100
AcDbLine
 10
7.44685
 20
1.993299999999999
 30
0.0
 11
7.643699999999999
 21
1.993299999999999
 31
0.0
  0
LINE
  5
B1
330
6F
100
AcDbEntity
  8
front_outsideCutPath
100
AcDbLine
 10
7.643699999999999
 20
1.993299999999999
 30
0.0
 11
7.643699999999999
 21
2.480049999999999
 31
0.0
  0
LINE
  5
B2
330
6F
100
AcDbEntity
  8
front_outsideCutPath
100
AcDbLine
 10
7.643699999999999
 20
2.480049999999999
 30
0.0
 11
7.44685
 21
2.480049999999999
 31
0.0
  0
LINE
  5
B3
330
6F
100
AcDbEntity
  8
front_outsideCutPath
100
AcDbLine
 10
7.44685
 20
2.480049999999999
 30
0.0
 11
7.44685
 21
2.9668
 31
0.0
  0
LINE
  5
B4
330
6F
100
AcDbEntity
  8
front_outsideCutPath
100
AcDbLine
 10
7.44685
 20
2.9668
 30
0.0
 11
7.643699999999999
 21
2.9668
 31
0.0
  0
LINE
  5
B5
330
6F
100
AcDbEntity
  8
front_outsideCutPath
100
AcDbLine
 10
7.643699999999999
 20
2.9668
 30
0.0
 11
7.643699999999999
 21
3.453549999999999
 31
0.0
  0
LINE
  5
B6
330
6F
100
AcDbEntity
  8
front_outsideCutPath
100
AcDbLine
 10
7.643699999999999
 20
3.453549999999999
 30
0.0
 11
7.44685
 21
3.453549999999999
 31
0.0
  0
LINE
  5
B7
330
6F
100
AcDbEntity
  8
front_outsideCutPath
100
AcDbLine
 10
7.44685
 20
3.453549999999999
 30
0.0
 11
7.44685
 21
3.9403
 31
0.0
  0
LINE
  5
B8
330
6F
100
AcDbEntity
  8
front_outsideCutPath
100
AcDbLine
 10
7.44685
 20
3.9403
 30
0.0
 11
7.643699999999999
 21
3.9403
 31
0.0
  0
LINE
  5
B9
330
6F
100
AcDbEntity
  8
front_outsideCutPath
100
AcDbLine
 10
7.643699999999999
 20
3.9403
 30
0.0
 11
7.643699999999999
 21
4.42705
 31
0.0
  0
LINE
  5
BA
330
6F
100
AcDbEntity
  8
front_outsideCutPath
100
AcDbLine
 10
7.643699999999999
 20
4.42705
 30
0.0
 11
7.44685
 21
4.42705
 31
0.0
  0
LINE
  5
BB
330
6F
100
AcDbEntity
  8
front_outsideCutPath
100
AcDbLine
 10
7.44685
 20
4.42705
 30
0.0
 11
7.44685
 21
4.9138
 31
0.0
  0
LINE
  5
BC
330
6F
100
AcDbEntity
  8
front_outsideCutPath
100
AcDbLine
 10
7.44685
 20
4.9138
 30
0.0
 11
7.643699999999999
 21
4.9138
 31
0.0
  0
LINE
  5
BD
330
6F
100
AcDbEntity
  8
front_outsideCutPath
100
AcDbLine
 10
7.643699999999999
 20
4.9138
 30
0.0
 11
7.643699999999999
 21
5.32185
 31
0.0
  0
LINE
  5
BE
330
6F
100
AcDbEntity
  8
front_outsideCutPath
100
AcDbLine
 10
7.643699999999999
 20
5.32185
 30
0.0
 11
0.0
 21
5.32185
 31
0.0
  0
LINE
  5
221
330
6F
100
AcDbEntity
  8
back_outsideCutPath
100
AcDbLine
 10
0.0
 20
8.775399999999999
 30
0.0
 11
0.0
 21
8.28865
 31
0.0
  0
LINE
  5
222
330
6F
100
AcDbEntity
  8
back_outsideCutPath
100
AcDbLine
 10
0.0
 20
8.28865
 30
0.0
 11
0.19685
 21
8.28865
 31
0.0
  0
LINE
  5
223
330
6F
100
AcDbEntity
  8
back_outsideCutPath
100
AcDbLine
 10
0.19685
 20
8.28865
 30
0.0
 11
0.19685
 21
7.801899999999999
 31
0.0
  0
LINE
  5
224
330
6F
100
AcDbEntity
  8
back_outsideCutPath
100
AcDbLine
 10
0.19685
 20
7.801899999999999
 30
0.0
 11
0.0
 21
7.801899999999999
 31
0.0
  0
LINE
  5
225
330
6F
100
AcDbEntity
  8
back_outsideCutPath
100
AcDbLine
 10
0.0
 20
7.801899999999999
 30
0.0
 11
0.0
 21
7.31515
 31
0.0
  0
LINE
  5
226
330
6F
100
AcDbEntity
  8
back_outsideCutPath
100
AcDbLine
 10
0.0
 20
7.31515
 30
0.0
 11
0.19685
 21
7.31515
 31
0.0
  0
LINE
  5
227
330
6F
100
AcDbEntity
  8
back_outsideCutPath
100
AcDbLine
 10
0.19685
 20
7.31515
 30
0.0
 11
0.19685
 21
6.8284
 31
0.0
  0
LINE
  5
228
330
6F
100
AcDbEntity
  8
back_outsideCutPath
100
AcDbLine
 10
0.19685
 20
6.8284
 30
0.0
 11
0.0
 21
6.8284
 31
0.0
  0
LINE
  5
229
330
6F
100
AcDbEntity
  8
back_outsideCutPath
100
AcDbLine
 10
0.0
 20
6.8284
 30
0.0
 11
0.0
 21
6.341649999999999
 31
0.0
  0
LINE
  5
22A
330
6F
100
AcDbEntity
  8
back_outsideCutPath
100
AcDbLine
 10
0.0
 20
6.341649999999999
 30
0.0
 11
0.19685
 21
6.341649999999999
 31
0.0
  0
LINE
  5
22B
330
6F
100
AcDbEntity
  8
back_outsideCutPath
100
AcDbLine
 10
0.19685
 20
6.341649999999999
 30
0.0
 11
0.19685
 21
5.854899999999999
 31
0.0
  0
LINE
  5
22C
330
6F
100
AcDbEntity
  8
back_outsideCutPath
100
AcDbLine
 10
0.19685
 20
5.854899999999999
 30
0.0
 11
0.0
 21
5.854899999999999
 31
0.0
  0
LINE
  5
22D
330
6F
100
AcDbEntity
  8
back_outsideCutPath
100
AcDbLine
 10
0.0
 20
5.854899999999999
 30
0.0
 11
0.0
 21
5.44685
 31
0.0
  0
LINE
  5
22E
330
6F
100
AcDbEntity
  8
back_outsideCutPath
100
AcDbLine
 10
0.0
 20
5.44685
 30
0.0
 11
0.657975
 21
5.44685
 31
0.0
  0
LINE
  5
22F
330
6F
100
AcDbEntity
  8
back_outsideCutPath
100
AcDbLine
 10
0.657975
 20
5.44685
 30
0.0
 11
0.657975
 21
5.643699999999999
 31
0.0
  0
LINE
  5
230
330
6F
100
AcDbEntity
  8
back_outsideCutPath
100
AcDbLine
 10
0.657975
 20
5.643699999999999
 30
0.0
 11
1.144724999999999
 21
5.643699999999999
 31
0.0
  0
LINE
  5
231
330
6F
100
AcDbEntity
  8
back_outsideCutPath
100
AcDbLine
 10
1.144724999999999
 20
5.643699999999999
 30
0.0
 11
1.144724999999999
 21
5.44685
 31
0.0
  0
LINE
  5
232
330
6F
100
AcDbEntity
  8
back_outsideCutPath
100
AcDbLine
 10
1.144724999999999
 20
5.44685
 30
0.0
 11
1.631475
 21
5.44685
 31
0.0
  0
LINE
  5
233
330
6F
100
AcDbEntity
  8
back_outsideCutPath
100
AcDbLine
 10
1.631475
 20
5.44685
 30
0.0
 11
1.631475
 21
5.643699999999999
 31
0.0
  0
LINE
  5
234
330
6F
100
AcDbEntity
  8
back_outsideCutPath
100
AcDbLine
 10
1.631475
 20
5.643699999999999
 30
0.0
 11
2.118224999999999
 21
5.643699999999999
 31
0.0
  0
LINE
  5
235
330
6F
100
AcDbEntity
  8
back_outsideCutPath
100
AcDbLine
 10
2.118224999999999
 20
5.643699999999999
 30
0.0
 11
2.118224999999999
 21
5.44685
 31
0.0
  0
LINE
  5
236
330
6F
100
AcDbEntity
  8
back_outsideCutPath
100
AcDbLine
 10
2.118224999999999
 20
5.44685
 30
0.0
 11
2.604975
 21
5.44685
 31
0.0
  0
LINE
  5
237
330
6F
100
AcDbEntity
  8
back_outsideCutPath
100
AcDbLine
 10
2.604975
 20
5.44685
 30
0.0
 11
2.604975
 21
5.643699999999999
 31
0.0
  0
LINE
  5
238
330
6F
100
AcDbEntity
  8
back_outsideCutPath
100
AcDbLine
 10
2.604975
 20
5.643699999999999
 30
0.0
 11
3.091724999999999
 21
5.643699999999999
 31
0.0
  0
LINE
  5
239
330
6F
100
AcDbEntity
  8
back_outsideCutPath
100
AcDbLine
 10
3.091724999999999
 20
5.643699999999999
 30
0.0
 11
3.091724999999999
 21
5.44685
 31
0.0
  0
LINE
  5
23A
330
6F
100
AcDbEntity
  8
back_outsideCutPath
100
AcDbLine
 10
3.091724999999999
 20
5.44685
 30
0.0
 11
3.578475
 21
5.44685
 31
0.0
  0
LINE
  5
23B
330
6F
100
AcDbEntity
  8
back_outsideCutPath
100
AcDbLine
 10
3.578475
 20
5.44685
 30
0.0
 11
3.578475
 21
5.643699999999999
 31
0.0
  0
LINE
  5
23C
330
6F
100
AcDbEntity
  8
back_outsideCutPath
100
AcDbLine
 10
3.578475
 20
5.643699999999999
 30
0.0
 11
4.065224999999999
 21
5.643699999999999
 31
0.0
  0
LINE
  5
23D
330
6F
100
AcDbEntity
  8
back_outsideCutPath
100
AcDbLine
 10
4.065224999999999
 20
5.643699999999999
 30
0.0
 11
4.065224999999999
 21
5.44685
 31
0.0
  0
LINE
  5
23E
330
6F
100
AcDbEntity
  8
back_outsideCutPath
100
AcDbLine
 10
4.065224999999999
 20
5.44685
 30
0.0
 11
4.551974999999999
 21
5.44685
 31
0.0
  0
LINE
  5
23F
330
6F
100
AcDbEntity
  8
back_outsideCutPath
100
AcDbLine
 10
4.551974999999999
 20
5.44685
 30
0.0
 11
4.551974999999999
 21
5.643699999999999
 31
0.0
  0
LINE
  5
240
330
6F
100
AcDbEntity
  8
back_outsideCutPath
100
AcDbLine
 10
4.551974999999999
 20
5.643699999999999
 30
0.0
 11
5.038725
 21
5.643699999999999
 31
0.0
  0
LINE
  5
241
330
6F
100
AcDbEntity
  8
back_outsideCutPath
100
AcDbLine
 10
5.038725
 20
5.643699999999999
 30
0.0
 11
5.038725
 21
5.44685
 31
0.0
  0
LINE
  5
242
330
6F
100
AcDbEntity
  8
back_outsideCutPath
100
AcDbLine
 10
5.038725
 20
5.44685
 30
0.0
 11
5.525475
 21
5.44685
 31
0.0
  0
LINE
  5
243
330
6F
100
AcDbEntity
  8
back_outsideCutPath
100
AcDbLine
 10
5.525475
 20
5.44685
 30
0.0
 11
5.525475
 21
5.643699999999999
 31
0.0
  0
LINE
  5
244
330
6F
100
AcDbEntity
  8
back_outsideCutPath
100
AcDbLine
 10
5.525475
 20
5.643699999999999
 30
0.0
 11
6.012224999999999
 21
5.643699999999999
 31
0.0
  0
LINE
  5
245
330
6F
100
AcDbEntity
  8
back_outsideCutPath
100
AcDbLine
 10
6.012224999999999
 20
5.643699999999999
 30
0.0
 11
6.012224999999999
 21
5.44685
 31
0.0
  0
LINE
  5
246
330
6F
100
AcDbEntity
  8
back_outsideCutPath
100
AcDbLine
 10
6.012224999999999
 20
5.44685
 30
0.0
 11
6.498974999999999
 21
5.44685
 31
0.0
  0
LINE
  5
247
330
6F
100
AcDbEntity
  8
back_outsideCutPath
100
AcDbLine
 10
6.498974999999999
 20
5.44685
 30
0.0
 11
6.498974999999999
 21
5.643699999999999
 31
0.0
  0
LINE
  5
248
330
6F
100
AcDbEntity
  8
back_outsideCutPath
100
AcDbLine
 10
6.498974999999999
 20
5.643699999999999
 30
0.0
 11
6.985725
 21
5.643699999999999
 31
0.0
  0
LINE
  5
249
330
6F
100
AcDbEntity
  8
back_outsideCutPath
100
AcDbLine
 10
6.985725
 20
5.643699999999999
 30
0.0
 11
6.985725
 21
5.44685
 31
0.0
  0
LINE
  5
24A
330
6F
100
AcDbEntity
  8
back_outsideCutPath
100
AcDbLine
 10
6.985725
 20
5.44685
 30
0.0
 11
7.472475
 21
5.44685
 31
0.0
  0
LINE
  5
24B
330
6F
100
AcDbEntity
  8
back_outsideCutPath
100
AcDbLine
 10
7.472475
 20
5.44685
 30
0.0
 11
7.643699999999999
 21
5.44685
 31
0.0
  0
LINE
  5
24C
330
6F
100
AcDbEntity
  8
back_outsideCutPath
100
AcDbLine
 10
7.643699999999999
 20
5.44685
 30
0.0
 11
7.643699999999999
 21
5.854899999999999
 31
0.0
  0
LINE
  5
24D
330
6F
100
AcDbEntity
  8
back_outsideCutPath
100
AcDbLine
 10
7.643699999999999
 20
5.854899999999999
 30
0.0
 11
7.44685
 21
5.854899999999999
 31
0.0
  0
LINE
  5
24E
330
6F
100
AcDbEntity
  8
back_outsideCutPath
100
AcDbLine
 10
7.44685
 20
5.854899999999999
 30
0.0
 11
7.44685
 21
6.341649999999999
 31
0.0
  0
LINE
  5
24F
330
6F
100
AcDbEntity
  8
back_outsideCutPath
100
AcDbLine
 10
7.44685
 20
6.341649999999999
 30
0.0
 11
7.643699999999999
 21
6.341649999999999
 31
0.0
  0
LINE
  5
250
330
6F
100
AcDbEntity
  8
back_outsideCutPath
100
AcDbLine
 10
7.643699999999999
 20
6.341649999999999
 30
0.0
 11
7.643699999999999
 21
6.8284
 31
0.0
  0
LINE
  5
251
330
6F
100
AcDbEntity
  8
back_outsideCutPath
100
AcDbLine
 10
7.643699999999999
 20
6.8284
 30
0.0
 11
7.44685
 21
6.8284
 31
0.0
  0
LINE
  5
252
330
6F
100
AcDbEntity
  8
back_outsideCutPath
100
AcDbLine
 10
7.44685
 20
6.8284
 30
0.0
 11
7.44685
 21
7.31515
 31
0.0
  0
LINE
  5
253
330
6F
100
AcDbEntity
  8
back_outsideCutPath
100
AcDbLine
 10
7.44685
 20
7.31515
 30
0.0
 11
7.643699999999999
 21
7.31515
 31
0.0
  0
LINE
  5
254
330
6F
100
AcDbEntity
  8
back_outsideCutPath
100
AcDbLine
 10
7.643699999999999
 20
7.31515
 30
0.0
 11
7.643699999999999
 21
7.801899999999999
 31
0.0
  0
LINE
  5
255
330
6F
100
AcDbEntity
  8
back_outsideCutPath
100
AcDbLine
 10
7.643699999999999
 20
7.801899999999999
 30
0.0
 11
7.44685
 21
7.801899999999999
 31
0.0
  0
LINE
  5
256
330
6F
100
AcDbEntity
  8
back_outsideCutPath
100
AcDbLine
 10
7.44685
 20
7.801899999999999
 30
0.0
 11
7.44685
 21
8.28865
 31
0.0
  0
LINE
  5
257
330
6F
100
AcDbEntity
  8
back_outsideCutPath
100
AcDbLine
 10
7.44685
 20
8.28865
 30
0.0
 11
7.643699999999999
 21
8.28865
 31
0.0
  0
LINE
  5
258
330
6F
100
AcDbEntity
  8
back_outsideCutPath
100
AcDbLine
 10
7.643699999999999
 20
8.28865
 30
0.0
 11
7.643699999999999
 21
8.775399999999999
 31
0.0
  0
LINE
  5
261
330
6F
100
AcDbEntity
  8
back_outsideCutPath
100
AcDbLine
 10
7.643699999999999
 20
8.775399999999999
 30
0.0
 11
0.0
 21
8.775399999999999
 31
0.0
  0
LINE
  5
314
330
6F
100
AcDbEntity
  8
right_outsideCutPath
100
AcDbLine
 10
7.96555
 20
8.775399999999999
 30
0.0
 11
7.96555
 21
8.28865
 31
0.0
  0
LINE
  5
315
330
6F
100
AcDbEntity
  8
right_outsideCutPath
100
AcDbLine
 10
7.96555
 20
8.28865
 30
0.0
 11
7.768699999999999
 21
8.28865
 31
0.0
  0
LINE
  5
316
330
6F
100
AcDbEntity
  8
right_outsideCutPath
100
AcDbLine
 10
7.768699999999999
 20
8.28865
 30
0.0
 11
7.768699999999999
 21
7.801899999999999
 31
0.0
  0
LINE
  5
317
330
6F
100
AcDbEntity
  8
right_outsideCutPath
100
AcDbLine
 10
7.768699999999999
 20
7.801899999999999
 30
0.0
 11
7.96555
 21
7.801899999999999
 31
0.0
  0
LINE
  5
318
330
6F
100
AcDbEntity
  8
right_outsideCutPath
100
AcDbLine
 10
7.96555
 20
7.801899999999999
 30
0.0
 11
7.96555
 21
7.31515
 31
0.0
  0
LINE
  5
319
330
6F
100
AcDbEntity
  8
right_outsideCutPath
100
AcDbLine
 10
7.96555
 20
7.31515
 30
0.0
 11
7.768699999999999
 21
7.31515
 31
0.0
  0
LINE
  5
31A
330
6F
100
AcDbEntity
  8
right_outsideCutPath
100
AcDbLine
 10
7.768699999999999
 20
7.31515
 30
0.0
 11
7.768699999999999
 21
6.8284
 31
0.0
  0
LINE
  5
31B
330
6F
100
AcDbEntity
  8
right_outsideCutPath
100
AcDbLine
 10
7.768699999999999
 20
6.8284
 30
0.0
 11
7.96555
 21
6.8284
 31
0.0
  0
LINE
  5
31C
330
6F
100
AcDbEntity
  8
right_outsideCutPath
100
AcDbLine
 10
7.96555
 20
6.8284
 30
0.0
 11
7.96555
 21
6.341649999999999
 31
0.0
  0
LINE
  5
31D
330
6F
100
AcDbEntity
  8
right_outsideCutPath
100
AcDbLine
 10
7.96555
 20
6.341649999999999
 30
0.0
 11
7.768699999999999
 21
6.341649999999999
 31
0.0
  0
LINE
  5
31E
330
6F
100
AcDbEntity
  8
right_outsideCutPath
100
AcDbLine
 10
7.768699999999999
 20
6.341649999999999
 30
0.0
 11
7.768699999999999
 21
5.854899999999999
 31
0.0
  0
LINE
  5
31F
330
6F
100
AcDbEntity
  8
right_outsideCutPath
100
AcDbLine
 10
7.768699999999999
 20
5.854899999999999
 30
0.0
 11
7.96555
 21
5.854899999999999
 31
0.0
  0
LINE
  5
320
330
6F
100
AcDbEntity
  8
right_outsideCutPath
100
AcDbLine
 10
7.96555
 20
5.854899999999999
 30
0.0
 11
7.96555
 21
5.44685
 31
0.0
  0
LINE
  5
321
330
6F
100
AcDbEntity
  8
right_outsideCutPath
100
AcDbLine
 10
7.96555
 20
5.44685
 30
0.0
 11
8.341424999999999
 21
5.44685
 31
0.0
  0
LINE
  5
322
330
6F
100
AcDbEntity
  8
right_outsideCutPath
100
AcDbLine
 10
8.341424999999999
 20
5.44685
 30
0.0
 11
8.341424999999999
 21
5.643699999999999
 31
0.0
  0
LINE
  5
323
330
6F
100
AcDbEntity
  8
right_outsideCutPath
100
AcDbLine
 10
8.341424999999999
 20
5.643699999999999
 30
0.0
 11
8.828174999999999
 21
5.643699999999999
 31
0.0
  0
LINE
  5
324
330
6F
100
AcDbEntity
  8
right_outsideCutPath
100
AcDbLine
 10
8.828174999999999
 20
5.643699999999999
 30
0.0
 11
8.828174999999999
 21
5.44685
 31
0.0
  0
LINE
  5
325
330
6F
100
AcDbEntity
  8
right_outsideCutPath
100
AcDbLine
 10
8.828174999999999
 20
5.44685
 30
0.0
 11
9.314925
 21
5.44685
 31
0.0
  0
LINE
  5
326
330
6F
100
AcDbEntity
  8
right_outsideCutPath
100
AcDbLine
 10
9.314925
 20
5.44685
 30
0.0
 11
9.314925
 21
5.643699999999999
 31
0.0
  0
LINE
  5
327
330
6F
100
AcDbEntity
  8
right_outsideCutPath
100
AcDbLine
 10
9.314925
 20
5.643699999999999
 30
0.0
 11
9.801674999999999
 21
5.643699999999999
 31
0.0
  0
LINE
  5
328
330
6F
100
AcDbEntity
  8
right_outsideCutPath
100
AcDbLine
 10
9.801674999999999
 20
5.643699999999999
 30
0.0
 11
9.801674999999999
 21
5.44685
 31
0.0
  0
LINE
  5
329
330
6F
100
AcDbEntity
  8
right_outsideCutPath
100
AcDbLine
 10
9.801674999999999
 20
5.44685
 30
0.0
 11
10.288425
 21
5.44685
 31
0.0
  0
LINE
  5
32A
330
6F
100
AcDbEntity
  8
right_outsideCutPath
100
AcDbLine
 10
10.288425
 20
5.44685
 30
0.0
 11
10.288425
 21
5.643699999999999
 31
0.0
  0
LINE
  5
32B
330
6F
100
AcDbEntity
  8
right_outsideCutPath
100
AcDbLine
 10
10.288425
 20
5.643699999999999
 30
0.0
 11
10.775175
 21
5.643699999999999
 31
0.0
  0
LINE
  5
32C
330
6F
100
AcDbEntity
  8
right_outsideCutPath
100
AcDbLine
 10
10.775175
 20
5.643699999999999
 30
0.0
 11
10.775175
 21
5.44685
 31
0.0
  0
LINE
  5
32D
330
6F
100
AcDbEntity
  8
right_outsideCutPath
100
AcDbLine
 10
10.775175
 20
5.44685
 30
0.0
 11
11.261925
 21
5.44685
 31
0.0
  0
LINE
  5
32E
330
6F
100
AcDbEntity
  8
right_outsideCutPath
100
AcDbLine
 10
11.261925
 20
5.44685
 30
0.0
 11
11.261925
 21
5.643699999999999
 31
0.0
  0
LINE
  5
32F
330
6F
100
AcDbEntity
  8
right_outsideCutPath
100
AcDbLine
 10
11.261925
 20
5.643699999999999
 30
0.0
 11
11.748675
 21
5.643699999999999
 31
0.0
  0
LINE
  5
330
330
6F
100
AcDbEntity
  8
right_outsideCutPath
100
AcDbLine
 10
11.748675
 20
5.643699999999999
 30
0.0
 11
11.748675
 21
5.44685
 31
0.0
  0
LINE
  5
331
330
6F
100
AcDbEntity
  8
right_outsideCutPath
100
AcDbLine
 10
11.748675
 20
5.44685
 30
0.0
 11
12.235425
 21
5.44685
 31
0.0
  0
LINE
  5
332
330
6F
100
AcDbEntity
  8
right_outsideCutPath
100
AcDbLine
 10
12.235425
 20
5.44685
 30
0.0
 11
12.235425
 21
5.643699999999999
 31
0.0
  0
LINE
  5
333
330
6F
100
AcDbEntity
  8
right_outsideCutPath
100
AcDbLine
 10
12.235425
 20
5.643699999999999
 30
0.0
 11
12.722175
 21
5.643699999999999
 31
0.0
  0
LINE
  5
334
330
6F
100
AcDbEntity
  8
right_outsideCutPath
100
AcDbLine
 10
12.722175
 20
5.643699999999999
 30
0.0
 11
12.722175
 21
5.44685
 31
0.0
  0
LINE
  5
335
330
6F
100
AcDbEntity
  8
right_outsideCutPath
100
AcDbLine
 10
12.722175
 20
5.44685
 30
0.0
 11
13.208925
 21
5.44685
 31
0.0
  0
LINE
  5
336
330
6F
100
AcDbEntity
  8
right_outsideCutPath
100
AcDbLine
 10
13.208925
 20
5.44685
 30
0.0
 11
13.208925
 21
5.643699999999999
 31
0.0
  0
LINE
  5
337
330
6F
100
AcDbEntity
  8
right_outsideCutPath
100
AcDbLine
 10
13.208925
 20
5.643699999999999
 30
0.0
 11
13.695675
 21
5.643699999999999
 31
0.0
  0
LINE
  5
338
330
6F
100
AcDbEntity
  8
right_outsideCutPath
100
AcDbLine
 10
13.695675
 20
5.643699999999999
 30
0.0
 11
13.695675
 21
5.44685
 31
0.0
  0
LINE
  5
339
330
6F
100
AcDbEntity
  8
right_outsideCutPath
100
AcDbLine
 10
13.695675
 20
5.44685
 30
0.0
 11
14.182425
 21
5.44685
 31
0.0
  0
LINE
  5
33A
330
6F
100
AcDbEntity
  8
right_outsideCutPath
100
AcDbLine
 10
14.182425
 20
5.44685
 30
0.0
 11
14.182425
 21
5.643699999999999
 31
0.0
  0
LINE
  5
33B
330
6F
100
AcDbEntity
  8
right_outsideCutPath
100
AcDbLine
 10
14.182425
 20
5.643699999999999
 30
0.0
 11
14.669175
 21
5.643699999999999
 31
0.0
  0
LINE
  5
33C
330
6F
100
AcDbEntity
  8
right_outsideCutPath
100
AcDbLine
 10
14.669175
 20
5.643699999999999
 30
0.0
 11
14.669175
 21
5.44685
 31
0.0
  0
LINE
  5
33D
330
6F
100
AcDbEntity
  8
right_outsideCutPath
100
AcDbLine
 10
14.669175
 20
5.44685
 30
0.0
 11
15.155925
 21
5.44685
 31
0.0
  0
LINE
  5
33E
330
6F
100
AcDbEntity
  8
right_outsideCutPath
100
AcDbLine
 10
15.155925
 20
5.44685
 30
0.0
 11
15.155925
 21
5.643699999999999
 31
0.0
  0
LINE
  5
33F
330
6F
100
AcDbEntity
  8
right_outsideCutPath
100
AcDbLine
 10
15.155925
 20
5.643699999999999
 30
0.0
 11
15.642675
 21
5.643699999999999
 31
0.0
  0
LINE
  5
340
330
6F
100
AcDbEntity
  8
right_outsideCutPath
100
AcDbLine
 10
15.642675
 20
5.643699999999999
 30
0.0
 11
15.642675
 21
5.44685
 31
0.0
  0
LINE
  5
341
330
6F
100
AcDbEntity
  8
right_outsideCutPath
100
AcDbLine
 10
15.642675
 20
5.44685
 30
0.0
 11
16.129425
 21
5.44685
 31
0.0
  0
LINE
  5
342
330
6F
100
AcDbEntity
  8
right_outsideCutPath
100
AcDbLine
 10
16.129425
 20
5.44685
 30
0.0
 11
16.129425
 21
5.643699999999999
 31
0.0
  0
LINE
  5
343
330
6F
100
AcDbEntity
  8
right_outsideCutPath
100
AcDbLine
 10
16.129425
 20
5.643699999999999
 30
0.0
 11
16.616175
 21
5.643699999999999
 31
0.0
  0
LINE
  5
344
330
6F
100
AcDbEntity
  8
right_outsideCutPath
100
AcDbLine
 10
16.616175
 20
5.643699999999999
 30
0.0
 11
16.616175
 21
5.44685
 31
0.0
  0
LINE
  5
345
330
6F
100
AcDbEntity
  8
right_outsideCutPath
100
AcDbLine
 10
16.616175
 20
5.44685
 30
0.0
 11
17.102925
 21
5.44685
 31
0.0
  0
LINE
  5
346
330
6F
100
AcDbEntity
  8
right_outsideCutPath
100
AcDbLine
 10
17.102925
 20
5.44685
 30
0.0
 11
17.102925
 21
5.643699999999999
 31
0.0
  0
LINE
  5
347
330
6F
100
AcDbEntity
  8
right_outsideCutPath
100
AcDbLine
 10
17.102925
 20
5.643699999999999
 30
0.0
 11
17.589675
 21
5.643699999999999
 31
0.0
  0
LINE
  5
348
330
6F
100
AcDbEntity
  8
right_outsideCutPath
100
AcDbLine
 10
17.589675
 20
5.643699999999999
 30
0.0
 11
17.589675
 21
5.44685
 31
0.0
  0
LINE
  5
349
330
6F
100
AcDbEntity
  8
right_outsideCutPath
100
AcDbLine
 10
17.589675
 20
5.44685
 30
0.0
 11
17.96555
 21
5.44685
 31
0.0
  0
LINE
  5
34A
330
6F
100
AcDbEntity
  8
right_outsideCutPath
100
AcDbLine
 10
17.96555
 20
5.44685
 30
0.0
 11
17.96555
 21
5.854899999999999
 31
0.0
  0
LINE
  5
34B
330
6F
100
AcDbEntity
  8
right_outsideCutPath
100
AcDbLine
 10
17.96555
 20
5.854899999999999
 30
0.0
 11
18.1624
 21
5.854899999999999
 31
0.0
  0
LINE
  5
34C
330
6F
100
AcDbEntity
  8
right_outsideCutPath
100
AcDbLine
 10
18.1624
 20
5.854899999999999
 30
0.0
 11
18.1624
 21
6.341649999999999
 31
0.0
  0
LINE
  5
34D
330
6F
100
AcDbEntity
  8
right_outsideCutPath
100
AcDbLine
 10
18.1624
 20
6.341649999999999
 30
0.0
 11
17.96555
 21
6.341649999999999
 31
0.0
  0
LINE
  5
34E
330
6F
100
AcDbEntity
  8
right_outsideCutPath
100
AcDbLine
 10
17.96555
 20
6.341649999999999
 30
0.0
 11
17.96555
 21
6.8284
 31
0.0
  0
LINE
  5
34F
330
6F
100
AcDbEntity
  8
right_outsideCutPath
100
AcDbLine
 10
17.96555
 20
6.8284
 30
0.0
 11
18.1624
 21
6.8284
 31
0.0
  0
LINE
  5
350
330
6F
100
AcDbEntity
  8
right_outsideCutPath
100
AcDbLine
 10
18.1624
 20
6.8284
 30
0.0
 11
18.1624
 21
7.31515
 31
0.0
  0
LINE
  5
351
330
6F
100
AcDbEntity
  8
right_outsideCutPath
100
AcDbLine
 10
18.1624
 20
7.31515
 30
0.0
 11
17.96555
 21
7.31515
 31
0.0
  0
LINE
  5
352
330
6F
100
AcDbEntity
  8
right_outsideCutPath
100
AcDbLine
 10
17.96555
 20
7.31515
 30
0.0
 11
17.96555
 21
7.801899999999999
 31
0.0
  0
LINE
  5
353
330
6F
100
AcDbEntity
  8
right_outsideCutPath
100
AcDbLine
 10
17.96555
 20
7.801899999999999
 30
0.0
 11
18.1624
 21
7.801899999999999
 31
0.0
  0
LINE
  5
354
330
6F
100
AcDbEntity
  8
right_outsideCutPath
100
AcDbLine
 10
18.1624
 20
7.801899999999999
 30
0.0
 11
18.1624
 21
8.28865
 31
0.0
  0
LINE
  5
355
330
6F
100
AcDbEntity
  8
right_outsideCutPath
100
AcDbLine
 10
18.1624
 20
8.28865
 30
0.0
 11
17.96555
 21
8.28865
 31
0.0
  0
LINE
  5
356
330
6F
100
AcDbEntity
  8
right_outsideCutPath
100
AcDbLine
 10
17.96555
 20
8.28865
 30
0.0
 11
17.96555
 21
8.775399999999999
 31
0.0
  0
LINE
  5
357
330
6F
100
AcDbEntity
  8
right_outsideCutPath
100
AcDbLine
 10
17.96555
 20
8.775399999999999
 30
0.0
 11
18.1624
 21
8.775399999999999
 31
0.0
  0
LINE
  5
358
330
6F
100
AcDbEntity
  8
right_outsideCutPath
100
AcDbLine
 10
18.1624
 20
8.775399999999999
 30
0.0
 11
18.1624
 21
9.26215
 31
0.0
  0
LINE
  5
359
330
6F
100
AcDbEntity
  8
right_outsideCutPath
100
AcDbLine
 10
18.1624
 20
9.26215
 30
0.0
 11
17.96555
 21
9.26215
 31
0.0
  0
LINE
  5
35A
330
6F
100
AcDbEntity
  8
right_outsideCutPath
100
AcDbLine
 10
17.96555
 20
9.26215
 30
0.0
 11
17.96555
 21
9.7489
 31
0.0
  0
LINE
  5
35B
330
6F
100
AcDbEntity
  8
right_outsideCutPath
100
AcDbLine
 10
17.96555
 20
9.7489
 30
0.0
 11
18.1624
 21
9.7489
 31
0.0
  0
LINE
  5
35C
330
6F
100
AcDbEntity
  8
right_outsideCutPath
100
AcDbLine
 10
18.1624
 20
9.7489
 30
0.0
 11
18.1624
 21
10.23565
 31
0.0
  0
LINE
  5
35D
330
6F
100
AcDbEntity
  8
right_outsideCutPath
100
AcDbLine
 10
18.1624
 20
10.23565
 30
0.0
 11
17.96555
 21
10.23565
 31
0.0
  0
LINE
  5
35E
330
6F
100
AcDbEntity
  8
right_outsideCutPath
100
AcDbLine
 10
17.96555
 20
10.23565
 30
0.0
 11
17.96555
 21
10.6437
 31
0.0
  0
LINE
  5
35F
330
6F
100
AcDbEntity
  8
right_outsideCutPath
100
AcDbLine
 10
17.96555
 20
10.6437
 30
0.0
 11
13.43240995935344
 21
10.6437
 31
0.0
  0
LINE
  5
43D
330
6F
100
AcDbEntity
  8
bottom_outsideCutPath
100
AcDbLine
 10
18.48425
 20
10.32185
 30
0.0
 11
18.48425
 21
9.945975
 31
0.0
  0
LINE
  5
43E
330
6F
100
AcDbEntity
  8
bottom_outsideCutPath
100
AcDbLine
 10
18.48425
 20
9.945975
 30
0.0
 11
18.2874
 21
9.945975
 31
0.0
  0
LINE
  5
43F
330
6F
100
AcDbEntity
  8
bottom_outsideCutPath
100
AcDbLine
 10
18.2874
 20
9.945975
 30
0.0
 11
18.2874
 21
9.459224999999999
 31
0.0
  0
LINE
  5
440
330
6F
100
AcDbEntity
  8
bottom_outsideCutPath
100
AcDbLine
 10
18.2874
 20
9.459224999999999
 30
0.0
 11
18.48425
 21
9.459224999999999
 31
0.0
  0
LINE
  5
441
330
6F
100
AcDbEntity
  8
bottom_outsideCutPath
100
AcDbLine
 10
18.48425
 20
9.459224999999999
 30
0.0
 11
18.48425
 21
8.972474999999999
 31
0.0
  0
LINE
  5
442
330
6F
100
AcDbEntity
  8
bottom_outsideCutPath
100
AcDbLine
 10
18.48425
 20
8.972474999999999
 30
0.0
 11
18.2874
 21
8.972474999999999
 31
0.0
  0
LINE
  5
443
330
6F
100
AcDbEntity
  8
bottom_outsideCutPath
100
AcDbLine
 10
18.2874
 20
8.972474999999999
 30
0.0
 11
18.2874
 21
8.485725
 31
0.0
  0
LINE
  5
444
330
6F
100
AcDbEntity
  8
bottom_outsideCutPath
100
AcDbLine
 10
18.2874
 20
8.485725
 30
0.0
 11
18.48425
 21
8.485725
 31
0.0
  0
LINE
  5
445
330
6F
100
AcDbEntity
  8
bottom_outsideCutPath
100
AcDbLine
 10
18.48425
 20
8.485725
 30
0.0
 11
18.48425
 21
7.998974999999999
 31
0.0
  0
LINE
  5
446
330
6F
100
AcDbEntity
  8
bottom_outsideCutPath
100
AcDbLine
 10
18.48425
 20
7.998974999999999
 30
0.0
 11
18.2874
 21
7.998974999999999
 31
0.0
  0
LINE
  5
447
330
6F
100
AcDbEntity
  8
bottom_outsideCutPath
100
AcDbLine
 10
18.2874
 20
7.998974999999999
 30
0.0
 11
18.2874
 21
7.512224999999999
 31
0.0
  0
LINE
  5
448
330
6F
100
AcDbEntity
  8
bottom_outsideCutPath
100
AcDbLine
 10
18.2874
 20
7.512224999999999
 30
0.0
 11
18.48425
 21
7.512224999999999
 31
0.0
  0
LINE
  5
449
330
6F
100
AcDbEntity
  8
bottom_outsideCutPath
100
AcDbLine
 10
18.48425
 20
7.512224999999999
 30
0.0
 11
18.48425
 21
7.025475
 31
0.0
  0
LINE
  5
44A
330
6F
100
AcDbEntity
  8
bottom_outsideCutPath
100
AcDbLine
 10
18.48425
 20
7.025475
 30
0.0
 11
18.2874
 21
7.025475
 31
0.0
  0
LINE
  5
44B
330
6F
100
AcDbEntity
  8
bottom_outsideCutPath
100
AcDbLine
 10
18.2874
 20
7.025475
 30
0.0
 11
18.2874
 21
6.538725
 31
0.0
  0
LINE
  5
44C
330
6F
100
AcDbEntity
  8
bottom_outsideCutPath
100
AcDbLine
 10
18.2874
 20
6.538725
 30
0.0
 11
18.48425
 21
6.538725
 31
0.0
  0
LINE
  5
44D
330
6F
100
AcDbEntity
  8
bottom_outsideCutPath
100
AcDbLine
 10
18.48425
 20
6.538725
 30
0.0
 11
18.48425
 21
6.051974999999999
 31
0.0
  0
LINE
  5
44E
330
6F
100
AcDbEntity
  8
bottom_outsideCutPath
100
AcDbLine
 10
18.48425
 20
6.051974999999999
 30
0.0
 11
18.2874
 21
6.051974999999999
 31
0.0
  0
LINE
  5
44F
330
6F
100
AcDbEntity
  8
bottom_outsideCutPath
100
AcDbLine
 10
18.2874
 20
6.051974999999999
 30
0.0
 11
18.2874
 21
5.565224999999999
 31
0.0
  0
LINE
  5
450
330
6F
100
AcDbEntity
  8
bottom_outsideCutPath
100
AcDbLine
 10
18.2874
 20
5.565224999999999
 30
0.0
 11
18.48425
 21
5.565224999999999
 31
0.0
  0
LINE
  5
451
330
6F
100
AcDbEntity
  8
bottom_outsideCutPath
100
AcDbLine
 10
18.48425
 20
5.565224999999999
 30
0.0
 11
18.48425
 21
5.078475
 31
0.0
  0
LINE
  5
452
330
6F
100
AcDbEntity
  8
bottom_outsideCutPath
100
AcDbLine
 10
18.48425
 20
5.078475
 30
0.0
 11
18.2874
 21
5.078475
 31
0.0
  0
LINE
  5
453
330
6F
100
AcDbEntity
  8
bottom_outsideCutPath
100
AcDbLine
 10
18.2874
 20
5.078475
 30
0.0
 11
18.2874
 21
4.591725
 31
0.0
  0
LINE
  5
454
330
6F
100
AcDbEntity
  8
bottom_outsideCutPath
100
AcDbLine
 10
18.2874
 20
4.591725
 30
0.0
 11
18.48425
 21
4.591725
 31
0.0
  0
LINE
  5
455
330
6F
100
AcDbEntity
  8
bottom_outsideCutPath
100
AcDbLine
 10
18.48425
 20
4.591725
 30
0.0
 11
18.48425
 21
4.104974999999999
 31
0.0
  0
LINE
  5
456
330
6F
100
AcDbEntity
  8
bottom_outsideCutPath
100
AcDbLine
 10
18.48425
 20
4.104974999999999
 30
0.0
 11
18.2874
 21
4.104974999999999
 31
0.0
  0
LINE
  5
457
330
6F
100
AcDbEntity
  8
bottom_outsideCutPath
100
AcDbLine
 10
18.2874
 20
4.104974999999999
 30
0.0
 11
18.2874
 21
3.618224999999999
 31
0.0
  0
LINE
  5
458
330
6F
100
AcDbEntity
  8
bottom_outsideCutPath
100
AcDbLine
 10
18.2874
 20
3.618224999999999
 30
0.0
 11
18.48425
 21
3.618224999999999
 31
0.0
  0
LINE
  5
459
330
6F
100
AcDbEntity
  8
bottom_outsideCutPath
100
AcDbLine
 10
18.48425
 20
3.618224999999999
 30
0.0
 11
18.48425
 21
3.131475
 31
0.0
  0
LINE
  5
45A
330
6F
100
AcDbEntity
  8
bottom_outsideCutPath
100
AcDbLine
 10
18.48425
 20
3.131475
 30
0.0
 11
18.2874
 21
3.131475
 31
0.0
  0
LINE
  5
45B
330
6F
100
AcDbEntity
  8
bottom_outsideCutPath
100
AcDbLine
 10
18.2874
 20
3.131475
 30
0.0
 11
18.2874
 21
2.644725
 31
0.0
  0
LINE
  5
45C
330
6F
100
AcDbEntity
  8
bottom_outsideCutPath
100
AcDbLine
 10
18.2874
 20
2.644725
 30
0.0
 11
18.48425
 21
2.644725
 31
0.0
  0
LINE
  5
45D
330
6F
100
AcDbEntity
  8
bottom_outsideCutPath
100
AcDbLine
 10
18.48425
 20
2.644725
 30
0.0
 11
18.48425
 21
2.157974999999999
 31
0.0
  0
LINE
  5
45E
330
6F
100
AcDbEntity
  8
bottom_outsideCutPath
100
AcDbLine
 10
18.48425
 20
2.157974999999999
 30
0.0
 11
18.2874
 21
2.157974999999999
 31
0.0
  0
LINE
  5
45F
330
6F
100
AcDbEntity
  8
bottom_outsideCutPath
100
AcDbLine
 10
18.2874
 20
2.157974999999999
 30
0.0
 11
18.2874
 21
1.671224999999999
 31
0.0
  0
LINE
  5
460
330
6F
100
AcDbEntity
  8
bottom_outsideCutPath
100
AcDbLine
 10
18.2874
 20
1.671224999999999
 30
0.0
 11
18.48425
 21
1.671224999999999
 31
0.0
  0
LINE
  5
461
330
6F
100
AcDbEntity
  8
bottom_outsideCutPath
100
AcDbLine
 10
18.48425
 20
1.671224999999999
 30
0.0
 11
18.48425
 21
1.184474999999999
 31
0.0
  0
LINE
  5
462
330
6F
100
AcDbEntity
  8
bottom_outsideCutPath
100
AcDbLine
 10
18.48425
 20
1.184474999999999
 30
0.0
 11
18.2874
 21
1.184474999999999
 31
0.0
  0
LINE
  5
463
330
6F
100
AcDbEntity
  8
bottom_outsideCutPath
100
AcDbLine
 10
18.2874
 20
1.184474999999999
 30
0.0
 11
18.2874
 21
0.6977250000000001
 31
0.0
  0
LINE
  5
464
330
6F
100
AcDbEntity
  8
bottom_outsideCutPath
100
AcDbLine
 10
18.2874
 20
0.6977250000000001
 30
0.0
 11
18.48425
 21
0.6977250000000001
 31
0.0
  0
LINE
  5
465
330
6F
100
AcDbEntity
  8
bottom_outsideCutPath
100
AcDbLine
 10
18.48425
 20
0.6977250000000001
 30
0.0
 11
18.48425
 21
0.32185
 31
0.0
  0
LINE
  5
466
330
6F
100
AcDbEntity
  8
bottom_outsideCutPath
100
AcDbLine
 10
18.48425
 20
0.32185
 30
0.0
 11
18.945375
 21
0.32185
 31
0.0
  0
LINE
  5
467
330
6F
100
AcDbEntity
  8
bottom_outsideCutPath
100
AcDbLine
 10
18.945375
 20
0.32185
 30
0.0
 11
18.945375
 21
0.125
 31
0.0
  0
LINE
  5
468
330
6F
100
AcDbEntity
  8
bottom_outsideCutPath
100
AcDbLine
 10
18.945375
 20
0.125
 30
0.0
 11
19.432125
 21
0.125
 31
0.0
  0
LINE
  5
469
330
6F
100
AcDbEntity
  8
bottom_outsideCutPath
100
AcDbLine
 10
19.432125
 20
0.125
 30
0.0
 11
19.432125
 21
0.32185
 31
0.0
  0
LINE
  5
46A
330
6F
100
AcDbEntity
  8
bottom_outsideCutPath
100
AcDbLine
 10
19.432125
 20
0.32185
 30
0.0
 11
19.918875
 21
0.32185
 31
0.0
  0
LINE
  5
46B
330
6F
100
AcDbEntity
  8
bottom_outsideCutPath
100
AcDbLine
 10
19.918875
 20
0.32185
 30
0.0
 11
19.918875
 21
0.125
 31
0.0
  0
LINE
  5
46C
330
6F
100
AcDbEntity
  8
bottom_outsideCutPath
100
AcDbLine
 10
19.918875
 20
0.125
 30
0.0
 11
20.405625
 21
0.125
 31
0.0
  0
LINE
  5
46D
330
6F
100
AcDbEntity
  8
bottom_outsideCutPath
100
AcDbLine
 10
20.405625
 20
0.125
 30
0.0
 11
20.405625
 21
0.32185
 31
0.0
  0
LINE
  5
46E
330
6F
100
AcDbEntity
  8
bottom_outsideCutPath
100
AcDbLine
 10
20.405625
 20
0.32185
 30
0.0
 11
20.892375
 21
0.32185
 31
0.0
  0
LINE
  5
46F
330
6F
100
AcDbEntity
  8
bottom_outsideCutPath
100
AcDbLine
 10
20.892375
 20
0.32185
 30
0.0
 11
20.892375
 21
0.125
 31
0.0
  0
LINE
  5
470
330
6F
100
AcDbEntity
  8
bottom_outsideCutPath
100
AcDbLine
 10
20.892375
 20
0.125
 30
0.0
 11
21.379125
 21
0.125
 31
0.0
  0
LINE
  5
471
330
6F
100
AcDbEntity
  8
bottom_outsideCutPath
100
AcDbLine
 10
21.379125
 20
0.125
 30
0.0
 11
21.379125
 21
0.32185
 31
0.0
  0
LINE
  5
472
330
6F
100
AcDbEntity
  8
bottom_outsideCutPath
100
AcDbLine
 10
21.379125
 20
0.32185
 30
0.0
 11
21.865875
 21
0.32185
 31
0.0
  0
LINE
  5
473
330
6F
100
AcDbEntity
  8
bottom_outsideCutPath
100
AcDbLine
 10
21.865875
 20
0.32185
 30
0.0
 11
21.865875
 21
0.125
 31
0.0
  0
LINE
  5
474
330
6F
100
AcDbEntity
  8
bottom_outsideCutPath
100
AcDbLine
 10
21.865875
 20
0.125
 30
0.0
 11
22.352625
 21
0.125
 31
0.0
  0
LINE
  5
475
330
6F
100
AcDbEntity
  8
bottom_outsideCutPath
100
AcDbLine
 10
22.352625
 20
0.125
 30
0.0
 11
22.352625
 21
0.32185
 31
0.0
  0
LINE
  5
476
330
6F
100
AcDbEntity
  8
bottom_outsideCutPath
100
AcDbLine
 10
22.352625
 20
0.32185
 30
0.0
 11
22.839375
 21
0.32185
 31
0.0
  0
LINE
  5
477
330
6F
100
AcDbEntity
  8
bottom_outsideCutPath
100
AcDbLine
 10
22.839375
 20
0.32185
 30
0.0
 11
22.839375
 21
0.125
 31
0.0
  0
LINE
  5
478
330
6F
100
AcDbEntity
  8
bottom_outsideCutPath
100
AcDbLine
 10
22.839375
 20
0.125
 30
0.0
 11
23.326125
 21
0.125
 31
0.0
  0
LINE
  5
479
330
6F
100
AcDbEntity
  8
bottom_outsideCutPath
100
AcDbLine
 10
23.326125
 20
0.125
 30
0.0
 11
23.326125
 21
0.32185
 31
0.0
  0
LINE
  5
47A
330
6F
100
AcDbEntity
  8
bottom_outsideCutPath
100
AcDbLine
 10
23.326125
 20
0.32185
 30
0.0
 11
23.812875
 21
0.32185
 31
0.0
  0
LINE
  5
47B
330
6F
100
AcDbEntity
  8
bottom_outsideCutPath
100
AcDbLine
 10
23.812875
 20
0.32185
 30
0.0
 11
23.812875
 21
0.125
 31
0.0
  0
LINE
  5
47C
330
6F
100
AcDbEntity
  8
bottom_outsideCutPath
100
AcDbLine
 10
23.812875
 20
0.125
 30
0.0
 11
24.299625
 21
0.125
 31
0.0
  0
LINE
  5
47D
330
6F
100
AcDbEntity
  8
bottom_outsideCutPath
100
AcDbLine
 10
24.299625
 20
0.125
 30
0.0
 11
24.299625
 21
0.32185
 31
0.0
  0
LINE
  5
47E
330
6F
100
AcDbEntity
  8
bottom_outsideCutPath
100
AcDbLine
 10
24.299625
 20
0.32185
 30
0.0
 11
24.786375
 21
0.32185
 31
0.0
  0
LINE
  5
47F
330
6F
100
AcDbEntity
  8
bottom_outsideCutPath
100
AcDbLine
 10
24.786375
 20
0.32185
 30
0.0
 11
24.786375
 21
0.125
 31
0.0
  0
LINE
  5
480
330
6F
100
AcDbEntity
  8
bottom_outsideCutPath
100
AcDbLine
 10
24.786375
 20
0.125
 30
0.0
 11
25.273125
 21
0.125
 31
0.0
  0
LINE
  5
481
330
6F
100
AcDbEntity
  8
bottom_outsideCutPath
100
AcDbLine
 10
25.273125
 20
0.125
 30
0.0
 11
25.273125
 21
0.32185
 31
0.0
  0
LINE
  5
482
330
6F
100
AcDbEntity
  8
bottom_outsideCutPath
100
AcDbLine
 10
25.273125
 20
0.32185
 30
0.0
 11
25.73425
 21
0.32185
 31
0.0
  0
LINE
  5
483
330
6F
100
AcDbEntity
  8
bottom_outsideCutPath
100
AcDbLine
 10
25.73425
 20
0.32185
 30
0.0
 11
25.73425
 21
0.6977250000000001
 31
0.0
  0
LINE
  5
484
330
6F
100
AcDbEntity
  8
bottom_outsideCutPath
100
AcDbLine
 10
25.73425
 20
0.6977250000000001
 30
0.0
 11
25.9311
 21
0.6977250000000001
 31
0.0
  0
LINE
  5
485
330
6F
100
AcDbEntity
  8
bottom_outsideCutPath
100
AcDbLine
 10
25.9311
 20
0.6977250000000001
 30
0.0
 11
25.9311
 21
1.184474999999999
 31
0.0
  0
LINE
  5
486
330
6F
100
AcDbEntity
  8
bottom_outsideCutPath
100
AcDbLine
 10
25.9311
 20
1.184474999999999
 30
0.0
 11
25.73425
 21
1.184474999999999
 31
0.0
  0
LINE
  5
487
330
6F
100
AcDbEntity
  8
bottom_outsideCutPath
100
AcDbLine
 10
25.73425
 20
1.184474999999999
 30
0.0
 11
25.73425
 21
1.671224999999999
 31
0.0
  0
LINE
  5
488
330
6F
100
AcDbEntity
  8
bottom_outsideCutPath
100
AcDbLine
 10
25.73425
 20
1.671224999999999
 30
0.0
 11
25.9311
 21
1.671224999999999
 31
0.0
  0
LINE
  5
489
330
6F
100
AcDbEntity
  8
bottom_outsideCutPath
100
AcDbLine
 10
25.9311
 20
1.671224999999999
 30
0.0
 11
25.9311
 21
2.157974999999999
 31
0.0
  0
LINE
  5
48A
330
6F
100
AcDbEntity
  8
bottom_outsideCutPath
100
AcDbLine
 10
25.9311
 20
2.157974999999999
 30
0.0
 11
25.73425
 21
2.157974999999999
 31
0.0
  0
LINE
  5
48B
330
6F
100
AcDbEntity
  8
bottom_outsideCutPath
100
AcDbLine
 10
25.73425
 20
2.157974999999999
 30
0.0
 11
25.73425
 21
2.644725
 31
0.0
  0
LINE
  5
48C
330
6F
100
AcDbEntity
  8
bottom_outsideCutPath
100
AcDbLine
 10
25.73425
 20
2.644725
 30
0.0
 11
25.9311
 21
2.644725
 31
0.0
  0
LINE
  5
48D
330
6F
100
AcDbEntity
  8
bottom_outsideCutPath
100
AcDbLine
 10
25.9311
 20
2.644725
 30
0.0
 11
25.9311
 21
3.131475
 31
0.0
  0
LINE
  5
48E
330
6F
100
AcDbEntity
  8
bottom_outsideCutPath
100
AcDbLine
 10
25.9311
 20
3.131475
 30
0.0
 11
25.73425
 21
3.131475
 31
0.0
  0
LINE
  5
48F
330
6F
100
AcDbEntity
  8
bottom_outsideCutPath
100
AcDbLine
 10
25.73425
 20
3.131475
 30
0.0
 11
25.73425
 21
3.618224999999999
 31
0.0
  0
LINE
  5
490
330
6F
100
AcDbEntity
  8
bottom_outsideCutPath
100
AcDbLine
 10
25.73425
 20
3.618224999999999
 30
0.0
 11
25.9311
 21
3.618224999999999
 31
0.0
  0
LINE
  5
491
330
6F
100
AcDbEntity
  8
bottom_outsideCutPath
100
AcDbLine
 10
25.9311
 20
3.618224999999999
 30
0.0
 11
25.9311
 21
4.104974999999999
 31
0.0
  0
LINE
  5
492
330
6F
100
AcDbEntity
  8
bottom_outsideCutPath
100
AcDbLine
 10
25.9311
 20
4.104974999999999
 30
0.0
 11
25.73425
 21
4.104974999999999
 31
0.0
  0
LINE
  5
493
330
6F
100
AcDbEntity
  8
bottom_outsideCutPath
100
AcDbLine
 10
25.73425
 20
4.104974999999999
 30
0.0
 11
25.73425
 21
4.591725
 31
0.0
  0
LINE
  5
494
330
6F
100
AcDbEntity
  8
bottom_outsideCutPath
100
AcDbLine
 10
25.73425
 20
4.591725
 30
0.0
 11
25.9311
 21
4.591725
 31
0.0
  0
LINE
  5
495
330
6F
100
AcDbEntity
  8
bottom_outsideCutPath
100
AcDbLine
 10
25.9311
 20
4.591725
 30
0.0
 11
25.9311
 21
5.078475
 31
0.0
  0
LINE
  5
496
330
6F
100
AcDbEntity
  8
bottom_outsideCutPath
100
AcDbLine
 10
25.9311
 20
5.078475
 30
0.0
 11
25.73425
 21
5.078475
 31
0.0
  0
LINE
  5
497
330
6F
100
AcDbEntity
  8
bottom_outsideCutPath
100
AcDbLine
 10
25.73425
 20
5.078475
 30
0.0
 11
25.73425
 21
5.565224999999999
 31
0.0
  0
LINE
  5
498
330
6F
100
AcDbEntity
  8
bottom_outsideCutPath
100
AcDbLine
 10
25.73425
 20
5.565224999999999
 30
0.0
 11
25.9311
 21
5.565224999999999
 31
0.0
  0
LINE
  5
499
330
6F
100
AcDbEntity
  8
bottom_outsideCutPath
100
AcDbLine
 10
25.9311
 20
5.565224999999999
 30
0.0
 11
25.9311
 21
6.051974999999999
 31
0.0
  0
LINE
  5
49A
330
6F
100
AcDbEntity
  8
bottom_outsideCutPath
100
AcDbLine
 10
25.9311
 20
6.051974999999999
 30
0.0
 11
25.73425
 21
6.051974999999999
 31
0.0
  0
LINE
  5
49B
330
6F
100
AcDbEntity
  8
bottom_outsideCutPath
100
AcDbLine
 10
25.73425
 20
6.051974999999999
 30
0.0
 11
25.73425
 21
6.538725
 31
0.0
  0
LINE
  5
49C
330
6F
100
AcDbEntity
  8
bottom_outsideCutPath
100
AcDbLine
 10
25.73425
 20
6.538725
 30
0.0
 11
25.9311
 21
6.538725
 31
0.0
  0
LINE
  5
49D
330
6F
100
AcDbEntity
  8
bottom_outsideCutPath
100
AcDbLine
 10
25.9311
 20
6.538725
 30
0.0
 11
25.9311
 21
7.025475
 31
0.0
  0
LINE
  5
49E
330
6F
100
AcDbEntity
  8
bottom_outsideCutPath
100
AcDbLine
 10
25.9311
 20
7.025475
 30
0.0
 11
25.73425
 21
7.025475
 31
0.0
  0
LINE
  5
49F
330
6F
100
AcDbEntity
  8
bottom_outsideCutPath
100
AcDbLine
 10
25.73425
 20
7.025475
 30
0.0
 11
25.73425
 21
7.512224999999999
 31
0.0
  0
LINE
  5
4A0
330
6F
100
AcDbEntity
  8
bottom_outsideCutPath
100
AcDbLine
 10
25.73425
 20
7.512224999999999
 30
0.0
 11
25.9311
 21
7.512224999999999
 31
0.0
  0
LINE
  5
4A1
330
6F
100
AcDbEntity
  8
bottom_outsideCutPath
100
AcDbLine
 10
25.9311
 20
7.512224999999999
 30
0.0
 11
25.9311
 21
7.998974999999999
 31
0.0
  0
LINE
  5
4A2
330
6F
100
AcDbEntity
  8
bottom_outsideCutPath
100
AcDbLine
 10
25.9311
 20
7.998974999999999
 30
0.0
 11
25.73425
 21
7.998974999999999
 31
0.0
  0
LINE
  5
4A3
330
6F
100
AcDbEntity
  8
bottom_outsideCutPath
100
AcDbLine
 10
25.73425
 20
7.998974999999999
 30
0.0
 11
25.73425
 21
8.485725
 31
0.0
  0
LINE
  5
4A4
330
6F
100
AcDbEntity
  8
bottom_outsideCutPath
100
AcDbLine
 10
25.73425
 20
8.485725
 30
0.0
 11
25.9311
 21
8.485725
 31
0.0
  0
LINE
  5
4A5
330
6F
100
AcDbEntity
  8
bottom_outsideCutPath
100
AcDbLine
 10
25.9311
 20
8.485725
 30
0.0
 11
25.9311
 21
8.972474999999999
 31
0.0
  0
LINE
  5
4A6
330
6F
100
AcDbEntity
  8
bottom_outsideCutPath
100
AcDbLine
 10
25.9311
 20
8.972474999999999
 30
0.0
 11
25.73425
 21
8.972474999999999
 31
0.0
  0
LINE
  5
4A7
330
6F
100
AcDbEntity
  8
bottom_outsideCutPath
100
AcDbLine
 10
25.73425
 20
8.972474999999999
 30
0.0
 11
25.73425
 21
9.459224999999999
 31
0.0
  0
LINE
  5
4A8
330
6F
100
AcDbEntity
  8
bottom_outsideCutPath
100
AcDbLine
 10
25.73425
 20
9.459224999999999
 30
0.0
 11
25.9311
 21
9.459224999999999
 31
0.0
  0
LINE
  5
4A9
330
6F
100
AcDbEntity
  8
bottom_outsideCutPath
100
AcDbLine
 10
25.9311
 20
9.459224999999999
 30
0.0
 11
25.9311
 21
9.945975
 31
0.0
  0
LINE
  5
4AA
330
6F
100
AcDbEntity
  8
bottom_outsideCutPath
100
AcDbLine
 10
25.9311
 20
9.945975
 30
0.0
 11
25.73425
 21
9.945975
 31
0.0
  0
LINE
  5
4AB
330
6F
100
AcDbEntity
  8
bottom_outsideCutPath
100
AcDbLine
 10
25.73425
 20
9.945975
 30
0.0
 11
25.73425
 21
10.32185
 31
0.0
  0
LINE
  5
4AC
330
6F
100
AcDbEntity
  8
bottom_outsideCutPath
100
AcDbLine
 10
25.73425
 20
10.32185
 30
0.0
 11
25.273125
 21
10.32185
 31
0.0
  0
LINE
  5
4AD
330
6F
100
AcDbEntity
  8
bottom_outsideCutPath
100
AcDbLine
 10
25.273125
 20
10.32185
 30
0.0
 11
25.273125
 21
10.5187
 31
0.0
  0
LINE
  5
4AE
330
6F
100
AcDbEntity
  8
bottom_outsideCutPath
100
AcDbLine
 10
25.273125
 20
10.5187
 30
0.0
 11
24.786375
 21
10.5187
 31
0.0
  0
LINE
  5
4AF
330
6F
100
AcDbEntity
  8
bottom_outsideCutPath
100
AcDbLine
 10
24.786375
 20
10.5187
 30
0.0
 11
24.786375
 21
10.32185
 31
0.0
  0
LINE
  5
4B0
330
6F
100
AcDbEntity
  8
bottom_outsideCutPath
100
AcDbLine
 10
24.786375
 20
10.32185
 30
0.0
 11
24.299625
 21
10.32185
 31
0.0
  0
LINE
  5
4B1
330
6F
100
AcDbEntity
  8
bottom_outsideCutPath
100
AcDbLine
 10
24.299625
 20
10.32185
 30
0.0
 11
24.299625
 21
10.5187
 31
0.0
  0
LINE
  5
4B2
330
6F
100
AcDbEntity
  8
bottom_outsideCutPath
100
AcDbLine
 10
24.299625
 20
10.5187
 30
0.0
 11
23.812875
 21
10.5187
 31
0.0
  0
LINE
  5
4B3
330
6F
100
AcDbEntity
  8
bottom_outsideCutPath
100
AcDbLine
 10
23.812875
 20
10.5187
 30
0.0
 11
23.812875
 21
10.32185
 31
0.0
  0
LINE
  5
4B4
330
6F
100
AcDbEntity
  8
bottom_outsideCutPath
100
AcDbLine
 10
23.812875
 20
10.32185
 30
0.0
 11
23.326125
 21
10.32185
 31
0.0
  0
LINE
  5
4B5
330
6F
100
AcDbEntity
  8
bottom_outsideCutPath
100
AcDbLine
 10
23.326125
 20
10.32185
 30
0.0
 11
23.326125
 21
10.5187
 31
0.0
  0
LINE
  5
4B6
330
6F
100
AcDbEntity
  8
bottom_outsideCutPath
100
AcDbLine
 10
23.326125
 20
10.5187
 30
0.0
 11
22.839375
 21
10.5187
 31
0.0
  0
LINE
  5
4B7
330
6F
100
AcDbEntity
  8
bottom_outsideCutPath
100
AcDbLine
 10
22.839375
 20
10.5187
 30
0.0
 11
22.839375
 21
10.32185
 31
0.0
  0
LINE
  5
4B8
330
6F
100
AcDbEntity
  8
bottom_outsideCutPath
100
AcDbLine
 10
22.839375
 20
10.32185
 30
0.0
 11
22.352625
 21
10.32185
 31
0.0
  0
LINE
  5
4B9
330
6F
100
AcDbEntity
  8
bottom_outsideCutPath
100
AcDbLine
 10
22.352625
 20
10.32185
 30
0.0
 11
22.352625
 21
10.5187
 31
0.0
  0
LINE
  5
4BA
330
6F
100
AcDbEntity
  8
bottom_outsideCutPath
100
AcDbLine
 10
22.352625
 20
10.5187
 30
0.0
 11
21.865875
 21
10.5187
 31
0.0
  0
LINE
  5
4BB
330
6F
100
AcDbEntity
  8
bottom_outsideCutPath
100
AcDbLine
 10
21.865875
 20
10.5187
 30
0.0
 11
21.865875
 21
10.32185
 31
0.0
  0
LINE
  5
4BC
330
6F
100
AcDbEntity
  8
bottom_outsideCutPath
100
AcDbLine
 10
21.865875
 20
10.32185
 30
0.0
 11
21.379125
 21
10.32185
 31
0.0
  0
LINE
  5
4BD
330
6F
100
AcDbEntity
  8
bottom_outsideCutPath
100
AcDbLine
 10
21.379125
 20
10.32185
 30
0.0
 11
21.379125
 21
10.5187
 31
0.0
  0
LINE
  5
4BE
330
6F
100
AcDbEntity
  8
bottom_outsideCutPath
100
AcDbLine
 10
21.379125
 20
10.5187
 30
0.0
 11
20.892375
 21
10.5187
 31
0.0
  0
LINE
  5
4BF
330
6F
100
AcDbEntity
  8
bottom_outsideCutPath
100
AcDbLine
 10
20.892375
 20
10.5187
 30
0.0
 11
20.892375
 21
10.32185
 31
0.0
  0
LINE
  5
4C0
330
6F
100
AcDbEntity
  8
bottom_outsideCutPath
100
AcDbLine
 10
20.892375
 20
10.32185
 30
0.0
 11
20.405625
 21
10.32185
 31
0.0
  0
LINE
  5
4C1
330
6F
100
AcDbEntity
  8
bottom_outsideCutPath
100
AcDbLine
 10
20.405625
 20
10.32185
 30
0.0
 11
20.405625
 21
10.5187
 31
0.0
  0
LINE
  5
4C2
330
6F
100
AcDbEntity
  8
bottom_outsideCutPath
100
AcDbLine
 10
20.405625
 20
10.5187
 30
0.0
 11
19.918875
 21
10.5187
 31
0.0
  0
LINE
  5
4C3
330
6F
100
AcDbEntity
  8
bottom_outsideCutPath
100
AcDbLine
 10
19.918875
 20
10.5187
 30
0.0
 11
19.918875
 21
10.32185
 31
0.0
  0
LINE
  5
4C4
330
6F
100
AcDbEntity
  8
bottom_outsideCutPath
100
AcDbLine
 10
19.918875
 20
10.32185
 30
0.0
 11
19.432125
 21
10.32185
 31
0.0
  0
LINE
  5
4C5
330
6F
100
AcDbEntity
  8
bottom_outsideCutPath
100
AcDbLine
 10
19.432125
 20
10.32185
 30
0.0
 11
19.432125
 21
10.5187
 31
0.0
  0
LINE
  5
4C6
330
6F
100
AcDbEntity
  8
bottom_outsideCutPath
100
AcDbLine
 10
19.432125
 20
10.5187
 30
0.0
 11
18.945375
 21
10.5187
 31
0.0
  0
LINE
  5
4C7
330
6F
100
AcDbEntity
  8
bottom_outsideCutPath
100
AcDbLine
 10
18.945375
 20
10.5187
 30
0.0
 11
18.945375
 21
10.32185
 31
0.0
  0
LINE
  5
4C8
330
6F
100
AcDbEntity
  8
bottom_outsideCutPath
100
AcDbLine
 10
18.945375
 20
10.32185
 30
0.0
 11
18.48425
 21
10.32185
 31
0.0
  0
LINE
  5
5D0
330
6F
100
AcDbEntity
  8
0
  6
Continuous
100
AcDbLine
 10
7.96555
 20
8.775399999999999
 30
0.0
 11
13.43240995935343
 21
10.6437
 31
0.0
  0
LINE
  5
5D1
330
6F
100
AcDbEntity
  8
right_outsideCutPath
100
AcDbLine
 10
7.96555
 20
3.435568697957259
 30
0.0
 11
7.96555
 21
2.948818697957261
 31
0.0
  0
LINE
  5
5D2
330
6F
100
AcDbEntity
  8
right_outsideCutPath
100
AcDbLine
 10
7.96555
 20
2.948818697957261
 30
0.0
 11
7.768699999999999
 21
2.948818697957261
 31
0.0
  0
LINE
  5
5D3
330
6F
100
AcDbEntity
  8
right_outsideCutPath
100
AcDbLine
 10
7.768699999999999
 20
2.948818697957261
 30
0.0
 11
7.768699999999999
 21
2.46206869795726
 31
0.0
  0
LINE
  5
5D4
330
6F
100
AcDbEntity
  8
right_outsideCutPath
100
AcDbLine
 10
7.768699999999999
 20
2.46206869795726
 30
0.0
 11
7.96555
 21
2.46206869795726
 31
0.0
  0
LINE
  5
5D5
330
6F
100
AcDbEntity
  8
right_outsideCutPath
100
AcDbLine
 10
7.96555
 20
2.46206869795726
 30
0.0
 11
7.96555
 21
1.97531869795726
 31
0.0
  0
LINE
  5
5D6
330
6F
100
AcDbEntity
  8
right_outsideCutPath
100
AcDbLine
 10
7.96555
 20
1.97531869795726
 30
0.0
 11
7.768699999999999
 21
1.97531869795726
 31
0.0
  0
LINE
  5
5D7
330
6F
100
AcDbEntity
  8
right_outsideCutPath
100
AcDbLine
 10
7.768699999999999
 20
1.97531869795726
 30
0.0
 11
7.768699999999999
 21
1.48856869795726
 31
0.0
  0
LINE
  5
5D8
330
6F
100
AcDbEntity
  8
right_outsideCutPath
100
AcDbLine
 10
7.768699999999999
 20
1.48856869795726
 30
0.0
 11
7.96555
 21
1.48856869795726
 31
0.0
  0
LINE
  5
5D9
330
6F
100
AcDbEntity
  8
right_outsideCutPath
100
AcDbLine
 10
7.96555
 20
1.48856869795726
 30
0.0
 11
7.96555
 21
1.00181869795726
 31
0.0
  0
LINE
  5
5DA
330
6F
100
AcDbEntity
  8
right_outsideCutPath
100
AcDbLine
 10
7.96555
 20
1.00181869795726
 30
0.0
 11
7.768699999999999
 21
1.00181869795726
 31
0.0
  0
LINE
  5
5DB
330
6F
100
AcDbEntity
  8
right_outsideCutPath
100
AcDbLine
 10
7.768699999999999
 20
1.00181869795726
 30
0.0
 11
7.768699999999999
 21
0.5150686979572603
 31
0.0
  0
LINE
  5
5DC
330
6F
100
AcDbEntity
  8
right_outsideCutPath
100
AcDbLine
 10
7.768699999999999
 20
0.5150686979572603
 30
0.0
 11
7.96555
 21
0.5150686979572603
 31
0.0
  0
LINE
  5
5DD
330
6F
100
AcDbEntity
  8
right_outsideCutPath
100
AcDbLine
 10
7.96555
 20
0.5150686979572603
 30
0.0
 11
7.96555
 21
0.1070186979572609
 31
0.0
  0
LINE
  5
5DE
330
6F
100
AcDbEntity
  8
right_outsideCutPath
100
AcDbLine
 10
7.96555
 20
0.1070186979572609
 30
0.0
 11
8.341424999999999
 21
0.1070186979572609
 31
0.0
  0
LINE
  5
5DF
330
6F
100
AcDbEntity
  8
right_outsideCutPath
100
AcDbLine
 10
8.341424999999999
 20
0.1070186979572609
 30
0.0
 11
8.341424999999999
 21
0.3038686979572605
 31
0.0
  0
LINE
  5
5E0
330
6F
100
AcDbEntity
  8
right_outsideCutPath
100
AcDbLine
 10
8.341424999999999
 20
0.3038686979572605
 30
0.0
 11
8.828174999999999
 21
0.3038686979572605
 31
0.0
  0
LINE
  5
5E1
330
6F
100
AcDbEntity
  8
right_outsideCutPath
100
AcDbLine
 10
8.828174999999999
 20
0.3038686979572605
 30
0.0
 11
8.828174999999999
 21
0.1070186979572609
 31
0.0
  0
LINE
  5
5E2
330
6F
100
AcDbEntity
  8
right_outsideCutPath
100
AcDbLine
 10
8.828174999999999
 20
0.1070186979572609
 30
0.0
 11
9.314925
 21
0.1070186979572609
 31
0.0
  0
LINE
  5
5E3
330
6F
100
AcDbEntity
  8
right_outsideCutPath
100
AcDbLine
 10
9.314925
 20
0.1070186979572609
 30
0.0
 11
9.314925
 21
0.3038686979572605
 31
0.0
  0
LINE
  5
5E4
330
6F
100
AcDbEntity
  8
right_outsideCutPath
100
AcDbLine
 10
9.314925
 20
0.3038686979572605
 30
0.0
 11
9.801674999999999
 21
0.3038686979572605
 31
0.0
  0
LINE
  5
5E5
330
6F
100
AcDbEntity
  8
right_outsideCutPath
100
AcDbLine
 10
9.801674999999999
 20
0.3038686979572605
 30
0.0
 11
9.801674999999999
 21
0.1070186979572609
 31
0.0
  0
LINE
  5
5E6
330
6F
100
AcDbEntity
  8
right_outsideCutPath
100
AcDbLine
 10
9.801674999999999
 20
0.1070186979572609
 30
0.0
 11
10.288425
 21
0.1070186979572609
 31
0.0
  0
LINE
  5
5E7
330
6F
100
AcDbEntity
  8
right_outsideCutPath
100
AcDbLine
 10
10.288425
 20
0.1070186979572609
 30
0.0
 11
10.288425
 21
0.3038686979572605
 31
0.0
  0
LINE
  5
5E8
330
6F
100
AcDbEntity
  8
right_outsideCutPath
100
AcDbLine
 10
10.288425
 20
0.3038686979572605
 30
0.0
 11
10.775175
 21
0.3038686979572605
 31
0.0
  0
LINE
  5
5E9
330
6F
100
AcDbEntity
  8
right_outsideCutPath
100
AcDbLine
 10
10.775175
 20
0.3038686979572605
 30
0.0
 11
10.775175
 21
0.1070186979572609
 31
0.0
  0
LINE
  5
5EA
330
6F
100
AcDbEntity
  8
right_outsideCutPath
100
AcDbLine
 10
10.775175
 20
0.1070186979572609
 30
0.0
 11
11.261925
 21
0.1070186979572609
 31
0.0
  0
LINE
  5
5EB
330
6F
100
AcDbEntity
  8
right_outsideCutPath
100
AcDbLine
 10
11.261925
 20
0.1070186979572609
 30
0.0
 11
11.261925
 21
0.3038686979572605
 31
0.0
  0
LINE
  5
5EC
330
6F
100
AcDbEntity
  8
right_outsideCutPath
100
AcDbLine
 10
11.261925
 20
0.3038686979572605
 30
0.0
 11
11.748675
 21
0.3038686979572605
 31
0.0
  0
LINE
  5
5ED
330
6F
100
AcDbEntity
  8
right_outsideCutPath
100
AcDbLine
 10
11.748675
 20
0.3038686979572605
 30
0.0
 11
11.748675
 21
0.1070186979572609
 31
0.0
  0
LINE
  5
5EE
330
6F
100
AcDbEntity
  8
right_outsideCutPath
100
AcDbLine
 10
11.748675
 20
0.1070186979572609
 30
0.0
 11
12.235425
 21
0.1070186979572609
 31
0.0
  0
LINE
  5
5EF
330
6F
100
AcDbEntity
  8
right_outsideCutPath
100
AcDbLine
 10
12.235425
 20
0.1070186979572609
 30
0.0
 11
12.235425
 21
0.3038686979572605
 31
0.0
  0
LINE
  5
5F0
330
6F
100
AcDbEntity
  8
right_outsideCutPath
100
AcDbLine
 10
12.235425
 20
0.3038686979572605
 30
0.0
 11
12.722175
 21
0.3038686979572605
 31
0.0
  0
LINE
  5
5F1
330
6F
100
AcDbEntity
  8
right_outsideCutPath
100
AcDbLine
 10
12.722175
 20
0.3038686979572605
 30
0.0
 11
12.722175
 21
0.1070186979572609
 31
0.0
  0
LINE
  5
5F2
330
6F
100
AcDbEntity
  8
right_outsideCutPath
100
AcDbLine
 10
12.722175
 20
0.1070186979572609
 30
0.0
 11
13.208925
 21
0.1070186979572609
 31
0.0
  0
LINE
  5
5F3
330
6F
100
AcDbEntity
  8
right_outsideCutPath
100
AcDbLine
 10
13.208925
 20
0.1070186979572609
 30
0.0
 11
13.208925
 21
0.3038686979572605
 31
0.0
  0
LINE
  5
5F4
330
6F
100
AcDbEntity
  8
right_outsideCutPath
100
AcDbLine
 10
13.208925
 20
0.3038686979572605
 30
0.0
 11
13.695675
 21
0.3038686979572605
 31
0.0
  0
LINE
  5
5F5
330
6F
100
AcDbEntity
  8
right_outsideCutPath
100
AcDbLine
 10
13.695675
 20
0.3038686979572605
 30
0.0
 11
13.695675
 21
0.1070186979572609
 31
0.0
  0
LINE
  5
5F6
330
6F
100
AcDbEntity
  8
right_outsideCutPath
100
AcDbLine
 10
13.695675
 20
0.1070186979572609
 30
0.0
 11
14.182425
 21
0.1070186979572609
 31
0.0
  0
LINE
  5
5F7
330
6F
100
AcDbEntity
  8
right_outsideCutPath
100
AcDbLine
 10
14.182425
 20
0.1070186979572609
 30
0.0
 11
14.182425
 21
0.3038686979572605
 31
0.0
  0
LINE
  5
5F8
330
6F
100
AcDbEntity
  8
right_outsideCutPath
100
AcDbLine
 10
14.182425
 20
0.3038686979572605
 30
0.0
 11
14.669175
 21
0.3038686979572605
 31
0.0
  0
LINE
  5
5F9
330
6F
100
AcDbEntity
  8
right_outsideCutPath
100
AcDbLine
 10
14.669175
 20
0.3038686979572605
 30
0.0
 11
14.669175
 21
0.1070186979572609
 31
0.0
  0
LINE
  5
5FA
330
6F
100
AcDbEntity
  8
right_outsideCutPath
100
AcDbLine
 10
14.669175
 20
0.1070186979572609
 30
0.0
 11
15.155925
 21
0.1070186979572609
 31
0.0
  0
LINE
  5
5FB
330
6F
100
AcDbEntity
  8
right_outsideCutPath
100
AcDbLine
 10
15.155925
 20
0.1070186979572609
 30
0.0
 11
15.155925
 21
0.3038686979572605
 31
0.0
  0
LINE
  5
5FC
330
6F
100
AcDbEntity
  8
right_outsideCutPath
100
AcDbLine
 10
15.155925
 20
0.3038686979572605
 30
0.0
 11
15.642675
 21
0.3038686979572605
 31
0.0
  0
LINE
  5
5FD
330
6F
100
AcDbEntity
  8
right_outsideCutPath
100
AcDbLine
 10
15.642675
 20
0.3038686979572605
 30
0.0
 11
15.642675
 21
0.1070186979572609
 31
0.0
  0
LINE
  5
5FE
330
6F
100
AcDbEntity
  8
right_outsideCutPath
100
AcDbLine
 10
15.642675
 20
0.1070186979572609
 30
0.0
 11
16.129425
 21
0.1070186979572609
 31
0.0
  0
LINE
  5
5FF
330
6F
100
AcDbEntity
  8
right_outsideCutPath
100
AcDbLine
 10
16.129425
 20
0.1070186979572609
 30
0.0
 11
16.129425
 21
0.3038686979572605
 31
0.0
  0
LINE
  5
600
330
6F
100
AcDbEntity
  8
right_outsideCutPath
100
AcDbLine
 10
16.129425
 20
0.3038686979572605
 30
0.0
 11
16.616175
 21
0.3038686979572605
 31
0.0
  0
LINE
  5
601
330
6F
100
AcDbEntity
  8
right_outsideCutPath
100
AcDbLine
 10
16.616175
 20
0.3038686979572605
 30
0.0
 11
16.616175
 21
0.1070186979572609
 31
0.0
  0
LINE
  5
602
330
6F
100
AcDbEntity
  8
right_outsideCutPath
100
AcDbLine
 10
16.616175
 20
0.1070186979572609
 30
0.0
 11
17.102925
 21
0.1070186979572609
 31
0.0
  0
LINE
  5
603
330
6F
100
AcDbEntity
  8
right_outsideCutPath
100
AcDbLine
 10
17.102925
 20
0.1070186979572609
 30
0.0
 11
17.102925
 21
0.3038686979572605
 31
0.0
  0
LINE
  5
604
330
6F
100
AcDbEntity
  8
right_outsideCutPath
100
AcDbLine
 10
17.102925
 20
0.3038686979572605
 30
0.0
 11
17.589675
 21
0.3038686979572605
 31
0.0
  0
LINE
  5
605
330
6F
100
AcDbEntity
  8
right_outsideCutPath
100
AcDbLine
 10
17.589675
 20
0.3038686979572605
 30
0.0
 11
17.589675
 21
0.1070186979572609
 31
0.0
  0
LINE
  5
606
330
6F
100
AcDbEntity
  8
right_outsideCutPath
100
AcDbLine
 10
17.589675
 20
0.1070186979572609
 30
0.0
 11
17.96555
 21
0.1070186979572609
 31
0.0
  0
LINE
  5
607
330
6F
100
AcDbEntity
  8
right_outsideCutPath
100
AcDbLine
 10
17.96555
 20
0.1070186979572609
 30
0.0
 11
17.96555
 21
0.5150686979572603
 31
0.0
  0
LINE
  5
608
330
6F
100
AcDbEntity
  8
right_outsideCutPath
100
AcDbLine
 10
17.96555
 20
0.5150686979572603
 30
0.0
 11
18.1624
 21
0.5150686979572603
 31
0.0
  0
LINE
  5
609
330
6F
100
AcDbEntity
  8
right_outsideCutPath
100
AcDbLine
 10
18.1624
 20
0.5150686979572603
 30
0.0
 11
18.1624
 21
1.00181869795726
 31
0.0
  0
LINE
  5
60A
330
6F
100
AcDbEntity
  8
right_outsideCutPath
100
AcDbLine
 10
18.1624
 20
1.00181869795726
 30
0.0
 11
17.96555
 21
1.00181869795726
 31
0.0
  0
LINE
  5
60B
330
6F
100
AcDbEntity
  8
right_outsideCutPath
100
AcDbLine
 10
17.96555
 20
1.00181869795726
 30
0.0
 11
17.96555
 21
1.48856869795726
 31
0.0
  0
LINE
  5
60C
330
6F
100
AcDbEntity
  8
right_outsideCutPath
100
AcDbLine
 10
17.96555
 20
1.48856869795726
 30
0.0
 11
18.1624
 21
1.48856869795726
 31
0.0
  0
LINE
  5
60D
330
6F
100
AcDbEntity
  8
right_outsideCutPath
100
AcDbLine
 10
18.1624
 20
1.48856869795726
 30
0.0
 11
18.1624
 21
1.97531869795726
 31
0.0
  0
LINE
  5
60E
330
6F
100
AcDbEntity
  8
right_outsideCutPath
100
AcDbLine
 10
18.1624
 20
1.97531869795726
 30
0.0
 11
17.96555
 21
1.97531869795726
 31
0.0
  0
LINE
  5
60F
330
6F
100
AcDbEntity
  8
right_outsideCutPath
100
AcDbLine
 10
17.96555
 20
1.97531869795726
 30
0.0
 11
17.96555
 21
2.46206869795726
 31
0.0
  0
LINE
  5
610
330
6F
100
AcDbEntity
  8
right_outsideCutPath
100
AcDbLine
 10
17.96555
 20
2.46206869795726
 30
0.0
 11
18.1624
 21
2.46206869795726
 31
0.0
  0
LINE
  5
611
330
6F
100
AcDbEntity
  8
right_outsideCutPath
100
AcDbLine
 10
18.1624
 20
2.46206869795726
 30
0.0
 11
18.1624
 21
2.948818697957261
 31
0.0
  0
LINE
  5
612
330
6F
100
AcDbEntity
  8
right_outsideCutPath
100
AcDbLine
 10
18.1624
 20
2.948818697957261
 30
0.0
 11
17.96555
 21
2.948818697957261
 31
0.0
  0
LINE
  5
613
330
6F
100
AcDbEntity
  8
right_outsideCutPath
100
AcDbLine
 10
17.96555
 20
2.948818697957261
 30
0.0
 11
17.96555
 21
3.435568697957259
 31
0.0
  0
LINE
  5
614
330
6F
100
AcDbEntity
  8
right_outsideCutPath
100
AcDbLine
 10
17.96555
 20
3.435568697957259
 30
0.0
 11
18.1624
 21
3.435568697957259
 31
0.0
  0
LINE
  5
615
330
6F
100
AcDbEntity
  8
right_outsideCutPath
100
AcDbLine
 10
18.1624
 20
3.435568697957259
 30
0.0
 11
18.1624
 21
3.92231869795726
 31
0.0
  0
LINE
  5
616
330
6F
100
AcDbEntity
  8
right_outsideCutPath
100
AcDbLine
 10
18.1624
 20
3.92231869795726
 30
0.0
 11
17.96555
 21
3.92231869795726
 31
0.0
  0
LINE
  5
617
330
6F
100
AcDbEntity
  8
right_outsideCutPath
100
AcDbLine
 10
17.96555
 20
3.92231869795726
 30
0.0
 11
17.96555
 21
4.409068697957261
 31
0.0
  0
LINE
  5
618
330
6F
100
AcDbEntity
  8
right_outsideCutPath
100
AcDbLine
 10
17.96555
 20
4.409068697957261
 30
0.0
 11
18.1624
 21
4.409068697957261
 31
0.0
  0
LINE
  5
619
330
6F
100
AcDbEntity
  8
right_outsideCutPath
100
AcDbLine
 10
18.1624
 20
4.409068697957261
 30
0.0
 11
18.1624
 21
4.89581869795726
 31
0.0
  0
LINE
  5
61A
330
6F
100
AcDbEntity
  8
right_outsideCutPath
100
AcDbLine
 10
18.1624
 20
4.89581869795726
 30
0.0
 11
17.96555
 21
4.89581869795726
 31
0.0
  0
LINE
  5
61B
330
6F
100
AcDbEntity
  8
right_outsideCutPath
100
AcDbLine
 10
17.96555
 20
4.89581869795726
 30
0.0
 11
17.96555
 21
5.303868697957261
 31
0.0
  0
LINE
  5
61C
330
6F
100
AcDbEntity
  8
right_outsideCutPath
100
AcDbLine
 10
17.96555
 20
5.303868697957261
 30
0.0
 11
13.43240995935344
 21
5.303868697957261
 31
0.0
  0
LINE
  5
61D
330
6F
100
AcDbEntity
  8
0
  6
Continuous
100
AcDbLine
 10
7.96555
 20
3.435568697957259
 30
0.0
 11
13.43240995935343
 21
5.303868697957261
 31
0.0
  0
ENDSEC
  0
SECTION
  2
OBJECTS
  0
DICTIONARY
  5
C
330
0
100
AcDbDictionary
281
     1
  3
ACAD_CIP_PREVIOUS_PRODUCT_INFO
350
5C8
  3
ACAD_COLOR
350
62
  3
ACAD_DETAILVIEWSTYLE
350
69
  3
ACAD_GROUP
350
D
  3
ACAD_LAYOUT
350
61
  3
ACAD_MATERIAL
350
10
  3
ACAD_MLEADERSTYLE
350
65
  3
ACAD_MLINESTYLE
350
5E
  3
ACAD_PLOTSETTINGS
350
60
  3
ACAD_PLOTSTYLENAME
350
E
  3
ACAD_SCALELIST
350
42
  3
ACAD_SECTIONVIEWSTYLE
350
67
  3
ACAD_TABLESTYLE
350
63
  3
ACAD_VISUALSTYLE
350
29
  3
ACDB_RECOMPOSE_DATA
350
64B
  3
AcDbVariableDictionary
350
63F
  0
DICTIONARY
  5
61E
330
54
100
AcDbDictionary
280
     1
281
     1
  3
ADSK_XREC_LAYER_RECONCILED
360
61F
  0
DICTIONARY
  5
620
330
75
100
AcDbDictionary
280
     1
281
     1
  3
ADSK_XREC_LAYER_RECONCILED
360
621
  0
DICTIONARY
  5
622
330
BF
100
AcDbDictionary
280
     1
281
     1
  3
ADSK_XREC_LAYER_RECONCILED
360
623
  0
DICTIONARY
  5
624
330
159
100
AcDbDictionary
280
     1
281
     1
  3
ADSK_XREC_LAYER_RECONCILED
360
625
  0
DICTIONARY
  5
626
330
1AE
100
AcDbDictionary
280
     1
281
     1
  3
ADSK_XREC_LAYER_RECONCILED
360
627
  0
DICTIONARY
  5
628
330
218
100
AcDbDictionary
280
     1
281
     1
  3
ADSK_XREC_LAYER_RECONCILED
360
629
  0
DICTIONARY
  5
62A
330
262
100
AcDbDictionary
280
     1
281
     1
  3
ADSK_XREC_LAYER_RECONCILED
360
62B
  0
DICTIONARY
  5
62C
330
30B
100
AcDbDictionary
280
     1
281
     1
  3
ADSK_XREC_LAYER_RECONCILED
360
62D
  0
DICTIONARY
  5
62E
330
360
100
AcDbDictionary
280
     1
281
     1
  3
ADSK_XREC_LAYER_RECONCILED
360
62F
  0
DICTIONARY
  5
630
330
43C
100
AcDbDictionary
280
     1
281
     1
  3
ADSK_XREC_LAYER_RECONCILED
360
631
  0
DICTIONARY
  5
632
330
4C9
100
AcDbDictionary
280
     1
281
     1
  3
ADSK_XREC_LAYER_RECONCILED
360
633
  0
XRECORD
  5
5C8
102
{ACAD_REACTORS
330
C
102
}
330
C
100
AcDbXrecord
280
     1
300
ACD
300
2023
300

  0
DICTIONARY
  5
62
102
{ACAD_REACTORS
330
C
102
}
330
C
100
AcDbDictionary
281
     1
  0
DICTIONARY
  5
69
102
{ACAD_REACTORS
330
C
102
}
330
C
100
AcDbDictionary
281
     1
  3
Imperial24
350
6A
  0
DICTIONARY
  5
D
102
{ACAD_REACTORS
330
C
102
}
330
C
100
AcDbDictionary
281
     1
  0
DICTIONARY
  5
61
102
{ACAD_REACTORS
330
C
102
}
330
C
100
AcDbDictionary
281
     1
  3
Layout1
350
6E
  3
Model
350
72
  0
DICTIONARY
  5
10
102
{ACAD_REACTORS
330
C
102
}
330
C
100
AcDbDictionary
281
     1
  3
ByBlock
350
19
  3
ByLayer
350
11
  3
Global
350
21
  0
DICTIONARY
  5
65
102
{ACAD_REACTORS
330
C
102
}
330
C
100
AcDbDictionary
281
     1
  3
Standard
350
66
  0
DICTIONARY
  5
5E
102
{ACAD_REACTORS
330
C
102
}
330
C
100
AcDbDictionary
281
     1
  3
Standard
350
5F
  0
DICTIONARY
  5
60
102
{ACAD_REACTORS
330
C
102
}
330
C
100
AcDbDictionary
281
     1
  0
ACDBDICTIONARYWDFLT
  5
E
102
{ACAD_REACTORS
330
C
102
}
330
C
100
AcDbDictionary
281
     1
  3
Normal
350
F
100
AcDbDictionaryWithDefault
340
F
  0
DICTIONARY
  5
42
102
{ACAD_REACTORS
330
C
102
}
330
C
100
AcDbDictionary
281
     1
  3
A0
350
43
  3
A1
350
44
  3
A2
350
45
  3
A3
350
46
  3
A4
350
47
  3
A5
350
48
  3
A6
350
49
  3
A7
350
4A
  3
A8
350
4B
  3
A9
350
4C
  3
B0
350
4D
  3
B1
350
4E
  3
B2
350
4F
  3
B3
350
50
  3
B4
350
51
  3
B5
350
52
  3
B6
350
53
  0
DICTIONARY
  5
67
102
{ACAD_REACTORS
330
C
102
}
330
C
100
AcDbDictionary
281
     1
  3
Imperial24
350
68
  0
DICTIONARY
  5
63
102
{ACAD_REACTORS
330
C
102
}
330
C
100
AcDbDictionary
281
     1
  3
Standard
350
64
  0
DICTIONARY
  5
29
102
{ACAD_REACTORS
330
C
102
}
330
C
100
AcDbDictionary
281
     1
  3
2dWireframe
350
2F
  3
Basic
350
2E
  3
Brighten
350
35
  3
ColorChange
350
39
  3
Conceptual
350
32
  3
Dim
350
34
  3
EdgeColorOff
350
41
  3
Facepattern
350
38
  3
Flat
350
2A
  3
FlatWithEdges
350
2B
  3
Gouraud
350
2C
  3
GouraudWithEdges
350
2D
  3
Hidden
350
31
  3
JitterOff
350
3F
  3
Linepattern
350
37
  3
OverhangOff
350
40
  3
Realistic
350
33
  3
Shaded
350
3E
  3
Shaded with edges
350
3D
  3
Shades of Gray
350
3A
  3
Sketchy
350
3B
  3
Thicken
350
36
  3
Wireframe
350
30
  3
X-Ray
350
3C
  0
XRECORD
  5
64B
102
{ACAD_REACTORS
330
C
102
}
330
C
100
AcDbXrecord
280
     1
 90
        1
330
64
  0
DICTIONARY
  5
63F
102
{ACAD_REACTORS
330
C
102
}
330
C
100
AcDbDictionary
281
     1
  3
CANNOSCALE
350
645
  3
CMLEADERSTYLE
350
641
  3
CTABLESTYLE
350
640
  3
CVIEWDETAILSTYLE
350
642
  3
CVIEWSECTIONSTYLE
350
643
  3
LAYEREVAL
350
647
  3
LAYERNOTIFY
350
648
  3
LIGHTINGUNITS
350
646
  3
MSLTSCALE
350
644
  0
XRECORD
  5
61F
102
{ACAD_REACTORS
330
61E
102
}
330
61E
100
AcDbXrecord
280
     1
290
     1
  0
XRECORD
  5
621
102
{ACAD_REACTORS
330
620
102
}
330
620
100
AcDbXrecord
280
     1
290
     1
  0
XRECORD
  5
623
102
{ACAD_REACTORS
330
622
102
}
330
622
100
AcDbXrecord
280
     1
290
     1
  0
XRECORD
  5
625
102
{ACAD_REACTORS
330
624
102
}
330
624
100
AcDbXrecord
280
     1
290
     1
  0
XRECORD
  5
627
102
{ACAD_REACTORS
330
626
102
}
330
626
100
AcDbXrecord
280
     1
290
     1
  0
XRECORD
  5
629
102
{ACAD_REACTORS
330
628
102
}
330
628
100
AcDbXrecord
280
     1
290
     1
  0
XRECORD
  5
62B
102
{ACAD_REACTORS
330
62A
102
}
330
62A
100
AcDbXrecord
280
     1
290
     1
  0
XRECORD
  5
62D
102
{ACAD_REACTORS
330
62C
102
}
330
62C
100
AcDbXrecord
280
     1
290
     1
  0
XRECORD
  5
62F
102
{ACAD_REACTORS
330
62E
102
}
330
62E
100
AcDbXrecord
280
     1
290
     1
  0
XRECORD
  5
631
102
{ACAD_REACTORS
330
630
102
}
330
630
100
AcDbXrecord
280
     1
290
     1
  0
XRECORD
  5
633
102
{ACAD_REACTORS
330
632
102
}
330
632
100
AcDbXrecord
280
     1
290
     1
  0
ACDBDETAILVIEWSTYLE
  5
6A
102
{ACAD_REACTORS
330
69
102
}
330
69
100
AcDbModelDocViewStyle
 70
     0
  3
Imperial24
290
     0
300
Imperial24
 90
        0
100
AcDbDetailViewStyle
 70
     0
 71
     0
 90
        3
 71
     1
340
55
 62
   256
 40
0.24
340
0
 62
   256
 40
0.24
300

 40
0.36
280
     3
 71
     2
340
5C
 90
       25
 62
   256
 71
     3
340
55
 62
   256
 40
0.24
 90
        1
 40
0.75
 90
        1
300
%<\AcVar ViewType \f "%tc1">% %<\AcVar ViewDetailId>%\PSCALE %<\AcVar ViewScale \f "%sn">%
 71
     4
340
5C
 90
       25
 62
   256
340
5C
 90
       25
 62
   256
280
     0
  0
LAYOUT
  5
6E
102
{ACAD_REACTORS
330
61
102
}
330
61
100
AcDbPlotSettings
  1

  2
HP Photosmart 7960 series
  4

  6

 40
0.0
 41
0.0
 42
0.0
 43
0.0
 44
0.0
 45
0.0
 46
0.0
 47
0.0
 48
0.0
 49
0.0
140
0.0
141
0.0
142
1.0
143
1.0
 70
   688
 72
     0
 73
     0
 74
     5
  7

 75
    16
147
1.0
 76
     0
 77
     2
 78
   300
148
0.0
149
0.0
100
AcDbLayout
  1
Layout1
 70
     1
 71
     1
 10
0.0
 20
0.0
 11
12.0
 21
9.0
 12
0.0
 22
0.0
 32
0.0
 14
1.000000000000000E+20
 24
1.000000000000000E+20
 34
1.000000000000000E+20
 15
-1.000000000000000E+20
 25
-1.000000000000000E+20
 35
-1.000000000000000E+20
146
0.0
 13
0.0
 23
0.0
 33
0.0
 16
1.0
 26
0.0
 36
0.0
 17
0.0
 27
1.0
 37
0.0
 76
     0
330
6B
  0
LAYOUT
  5
72
102
{ACAD_REACTORS
330
61
102
}
330
61
100
AcDbPlotSettings
  1

  2
HP Photosmart 7960 series
  4

  6

 40
0.0
 41
0.0
 42
0.0
 43
0.0
 44
0.0
 45
0.0
 46
0.0
 47
0.0
 48
0.0
 49
0.0
140
0.0
141
0.0
142
1.0
143
1.0
 70
  1712
 72
     0
 73
     0
 74
     0
  7

 75
     0
147
1.0
 76
     0
 77
     2
 78
   300
148
0.0
149
0.0
100
AcDbLayout
  1
Model
 70
     1
 71
     0
 10
0.0
 20
0.0
 11
12.0
 21
9.0
 12
0.0
 22
0.0
 32
0.0
 14
0.0
 24
0.0
 34
0.0
 15
0.0
 25
0.0
 35
0.0
146
0.0
 13
0.0
 23
0.0
 33
0.0
 16
1.0
 26
0.0
 36
0.0
 17
0.0
 27
1.0
 37
0.0
 76
     0
330
6F
331
74
  0
MATERIAL
  5
19
102
{ACAD_XDICTIONARY
360
1A
102
}
102
{ACAD_REACTORS
330
10
102
}
330
10
100
AcDbMaterial
  1
ByBlock
 72
     0
 43
0.0208333333333333
 43
0.0
 43
0.0
 43
0.0
 43
0.0
 43
0.0208333333333333
 43
0.0
 43
0.0
 43
0.0
 43
0.0
 43
1.0
 43
0.0
 43
0.0
 43
0.0
 43
0.0
 43
1.0
 77
     0
 47
0.0208333333333333
 47
0.0
 47
0.0
 47
0.0
 47
0.0
 47
0.0208333333333333
 47
0.0
 47
0.0
 47
0.0
 47
0.0
 47
1.0
 47
0.0
 47
0.0
 47
0.0
 47
0.0
 47
1.0
171
     0
 49
0.0208333333333333
 49
0.0
 49
0.0
 49
0.0
 49
0.0
 49
0.0208333333333333
 49
0.0
 49
0.0
 49
0.0
 49
0.0
 49
1.0
 49
0.0
 49
0.0
 49
0.0
 49
0.0
 49
1.0
175
     0
142
0.0208333333333333
142
0.0
142
0.0
142
0.0
142
0.0
142
0.0208333333333333
142
0.0
142
0.0
142
0.0
142
0.0
142
1.0
142
0.0
142
0.0
142
0.0
142
0.0
142
1.0
179
     0
144
0.0208333333333333
144
0.0
144
0.0
144
0.0
144
0.0
144
0.0208333333333333
144
0.0
144
0.0
144
0.0
144
0.0
144
1.0
144
0.0
144
0.0
144
0.0
144
0.0
144
1.0
147
0.0208333333333333
147
0.0
147
0.0
147
0.0
147
0.0
147
0.0208333333333333
147
0.0
147
0.0
147
0.0
147
0.0
147
1.0
147
0.0
147
0.0
147
0.0
147
0.0
147
1.0
  0
MATERIAL
  5
11
102
{ACAD_XDICTIONARY
360
12
102
}
102
{ACAD_REACTORS
330
10
102
}
330
10
100
AcDbMaterial
  1
ByLayer
 72
     0
 43
0.0208333333333333
 43
0.0
 43
0.0
 43
0.0
 43
0.0
 43
0.0208333333333333
 43
0.0
 43
0.0
 43
0.0
 43
0.0
 43
1.0
 43
0.0
 43
0.0
 43
0.0
 43
0.0
 43
1.0
 77
     0
 47
0.0208333333333333
 47
0.0
 47
0.0
 47
0.0
 47
0.0
 47
0.0208333333333333
 47
0.0
 47
0.0
 47
0.0
 47
0.0
 47
1.0
 47
0.0
 47
0.0
 47
0.0
 47
0.0
 47
1.0
171
     0
 49
0.0208333333333333
 49
0.0
 49
0.0
 49
0.0
 49
0.0
 49
0.0208333333333333
 49
0.0
 49
0.0
 49
0.0
 49
0.0
 49
1.0
 49
0.0
 49
0.0
 49
0.0
 49
0.0
 49
1.0
175
     0
142
0.0208333333333333
142
0.0
142
0.0
142
0.0
142
0.0
142
0.0208333333333333
142
0.0
142
0.0
142
0.0
142
0.0
142
1.0
142
0.0
142
0.0
142
0.0
142
0.0
142
1.0
179
     0
144
0.0208333333333333
144
0.0
144
0.0
144
0.0
144
0.0
144
0.0208333333333333
144
0.0
144
0.0
144
0.0
144
0.0
144
1.0
144
0.0
144
0.0
144
0.0
144
0.0
144
1.0
147
0.0208333333333333
147
0.0
147
0.0
147
0.0
147
0.0
147
0.0208333333333333
147
0.0
147
0.0
147
0.0
147
0.0
147
1.0
147
0.0
147
0.0
147
0.0
147
0.0
147
1.0
  0
MATERIAL
  5
21
102
{ACAD_XDICTIONARY
360
22
102
}
102
{ACAD_REACTORS
330
10
102
}
330
10
100
AcDbMaterial
  1
Global
 72
     0
 43
0.0208333333333333
 43
0.0
 43
0.0
 43
0.0
 43
0.0
 43
0.0208333333333333
 43
0.0
 43
0.0
 43
0.0
 43
0.0
 43
1.0
 43
0.0
 43
0.0
 43
0.0
 43
0.0
 43
1.0
 77
     0
 47
0.0208333333333333
 47
0.0
 47
0.0
 47
0.0
 47
0.0
 47
0.0208333333333333
 47
0.0
 47
0.0
 47
0.0
 47
0.0
 47
1.0
 47
0.0
 47
0.0
 47
0.0
 47
0.0
 47
1.0
171
     0
 49
0.0208333333333333
 49
0.0
 49
0.0
 49
0.0
 49
0.0
 49
0.0208333333333333
 49
0.0
 49
0.0
 49
0.0
 49
0.0
 49
1.0
 49
0.0
 49
0.0
 49
0.0
 49
0.0
 49
1.0
175
     0
142
0.0208333333333333
142
0.0
142
0.0
142
0.0
142
0.0
142
0.0208333333333333
142
0.0
142
0.0
142
0.0
142
0.0
142
1.0
142
0.0
142
0.0
142
0.0
142
0.0
142
1.0
179
     0
144
0.0208333333333333
144
0.0
144
0.0
144
0.0
144
0.0
144
0.0208333333333333
144
0.0
144
0.0
144
0.0
144
0.0
144
1.0
144
0.0
144
0.0
144
0.0
144
0.0
144
1.0
147
0.0208333333333333
147
0.0
147
0.0
147
0.0
147
0.0
147
0.0208333333333333
147
0.0
147
0.0
147
0.0
147
0.0
147
1.0
147
0.0
147
0.0
147
0.0
147
0.0
147
1.0
  0
MLEADERSTYLE
  5
66
102
{ACAD_REACTORS
330
65
102
}
330
65
100
AcDbMLeaderStyle
179
     2
170
     2
171
     1
172
     0
 90
        2
 40
0.0
 41
0.0
173
     1
 91
-1056964608
340
5A
 92
       -2
290
     1
 42
0.09
291
     1
 43
0.36
  3
Standard
 44
0.18
300

342
55
174
     1
178
     6
175
     1
176
     0
 93
-1056964608
 45
0.18
292
     0
297
     0
 46
0.18
 94
-1056964608
 47
1.0
 49
1.0
140
1.0
293
     1
141
0.0
294
     1
177
     0
142
1.0
295
     0
296
     0
143
0.125
271
     0
272
     9
273
     9
298
     0
  0
MLINESTYLE
  5
5F
102
{ACAD_REACTORS
330
5E
102
}
330
5E
100
AcDbMlineStyle
  2
STANDARD
 70
     0
  3

 62
   256
 51
90.0
 52
90.0
 71
     2
 49
0.5
 62
   256
  6
BYLAYER
 49
-0.5
 62
   256
  6
BYLAYER
  0
ACDBPLACEHOLDER
  5
F
102
{ACAD_REACTORS
330
E
102
}
330
E
  0
SCALE
  5
43
102
{ACAD_REACTORS
330
42
102
}
330
42
100
AcDbScale
 70
     0
300
1:1
140
1.0
141
1.0
290
     1
  0
SCALE
  5
44
102
{ACAD_REACTORS
330
42
102
}
330
42
100
AcDbScale
 70
     0
300
1/128" = 1'-0"
140
0.0078125
141
12.0
290
     0
  0
SCALE
  5
45
102
{ACAD_REACTORS
330
42
102
}
330
42
100
AcDbScale
 70
     0
300
1/64" = 1'-0"
140
0.015625
141
12.0
290
     0
  0
SCALE
  5
46
102
{ACAD_REACTORS
330
42
102
}
330
42
100
AcDbScale
 70
     0
300
1/32" = 1'-0"
140
0.03125
141
12.0
290
     0
  0
SCALE
  5
47
102
{ACAD_REACTORS
330
42
102
}
330
42
100
AcDbScale
 70
     0
300
1/16" = 1'-0"
140
0.0625
141
12.0
290
     0
  0
SCALE
  5
48
102
{ACAD_REACTORS
330
42
102
}
330
42
100
AcDbScale
 70
     0
300
3/32" = 1'-0"
140
0.09375
141
12.0
290
     0
  0
SCALE
  5
49
102
{ACAD_REACTORS
330
42
102
}
330
42
100
AcDbScale
 70
     0
300
1/8" = 1'-0"
140
0.125
141
12.0
290
     0
  0
SCALE
  5
4A
102
{ACAD_REACTORS
330
42
102
}
330
42
100
AcDbScale
 70
     0
300
3/16" = 1'-0"
140
0.1875
141
12.0
290
     0
  0
SCALE
  5
4B
102
{ACAD_REACTORS
330
42
102
}
330
42
100
AcDbScale
 70
     0
300
1/4" = 1'-0"
140
0.25
141
12.0
290
     0
  0
SCALE
  5
4C
102
{ACAD_REACTORS
330
42
102
}
330
42
100
AcDbScale
 70
     0
300
3/8" = 1'-0"
140
0.375
141
12.0
290
     0
  0
SCALE
  5
4D
102
{ACAD_REACTORS
330
42
102
}
330
42
100
AcDbScale
 70
     0
300
1/2" = 1'-0"
140
0.5
141
12.0
290
     0
  0
SCALE
  5
4E
102
{ACAD_REACTORS
330
42
102
}
330
42
100
AcDbScale
 70
     0
300
3/4" = 1'-0"
140
0.75
141
12.0
290
     0
  0
SCALE
  5
4F
102
{ACAD_REACTORS
330
42
102
}
330
42
100
AcDbScale
 70
     0
300
1" = 1'-0"
140
1.0
141
12.0
290
     0
  0
SCALE
  5
50
102
{ACAD_REACTORS
330
42
102
}
330
42
100
AcDbScale
 70
     0
300
1-1/2" = 1'-0"
140
1.5
141
12.0
290
     0
  0
SCALE
  5
51
102
{ACAD_REACTORS
330
42
102
}
330
42
100
AcDbScale
 70
     0
300
3" = 1'-0"
140
3.0
141
12.0
290
     0
  0
SCALE
  5
52
102
{ACAD_REACTORS
330
42
102
}
330
42
100
AcDbScale
 70
     0
300
6" = 1'-0"
140
6.0
141
12.0
290
     0
  0
SCALE
  5
53
102
{ACAD_REACTORS
330
42
102
}
330
42
100
AcDbScale
 70
     0
300
1'-0" = 1'-0"
140
12.0
141
12.0
290
     0
  0
ACDBSECTIONVIEWSTYLE
  5
68
102
{ACAD_REACTORS
330
67
102
}
330
67
100
AcDbModelDocViewStyle
 70
     0
  3
Imperial24
290
     0
300
Imperial24
 90
        0
100
AcDbSectionViewStyle
 70
     0
 71
     0
 90
       78
 71
     1
340
55
 62
   256
 40
0.24
340
0
340
0
 62
   256
 40
0.24
300
I, O, Q, S, X, Z
 40
0.48
 90
        3
 40
0.18
 90
        1
 71
     2
340
5C
 90
       25
 62
   256
340
5C
 90
       50
 62
   256
 40
0.24
 40
0.0
 40
0.24
 71
     3
340
55
 62
   256
 40
0.24
 90
        1
 40
0.75
 90
        1
300
%<\AcVar ViewType \f "%tc1">% %<\AcVar ViewSectionStartId>%-%<\AcVar ViewSectionEndId>%\PSCALE %<\AcVar ViewScale \f "%sn">%
 71
     4
 62
   256
 62
   257
300
ANSI31
 40
1.0
 90
        0
290
     0
290
     0
 90
        6
 40
0.0
 40
1.570796326794896
 40
0.2617993877991494
 40
1.308996938995747
 40
-0.2617993877991494
 40
1.832595714594046
  0
TABLESTYLE
  5
64
102
{ACAD_XDICTIONARY
360
649
102
}
102
{ACAD_REACTORS
330
63
102
}
330
63
100
AcDbTableStyle
280
     0
  3
Standard
 70
     0
 71
     0
 40
0.06
 41
0.06
280
     0
281
     0
  7
Standard
140
0.18
170
     2
 62
     0
 63
     7
283
     0
 90
      512
 91
        0
  1

274
    -2
284
     1
 64
     0
275
    -2
285
     1
 65
     0
276
    -2
286
     1
 66
     0
277
    -2
287
     1
 67
     0
278
    -2
288
     1
 68
     0
279
    -2
289
     1
 69
     0
  7
Standard
140
0.25
170
     5
 62
     0
 63
     7
283
     0
 90
      512
 91
        0
  1

274
    -2
284
     1
 64
     0
275
    -2
285
     1
 65
     0
276
    -2
286
     1
 66
     0
277
    -2
287
     1
 67
     0
278
    -2
288
     1
 68
     0
279
    -2
289
     1
 69
     0
  7
Standard
140
0.18
170
     5
 62
     0
 63
     7
283
     0
 90
      512
 91
        0
  1

274
    -2
284
     1
 64
     0
275
    -2
285
     1
 65
     0
276
    -2
286
     1
 66
     0
277
    -2
287
     1
 67
     0
278
    -2
288
     1
 68
     0
279
    -2
289
     1
 69
     0
  0
VISUALSTYLE
  5
2F
102
{ACAD_REACTORS
330
29
102
}
330
29
100
AcDbVisualStyle
  2
2dWireframe
 70
     4
177
     3
291
     0
 70
    58
 90
        0
176
     1
 90
        2
176
     1
 90
        0
176
     1
 90
        0
176
     1
 40
0.6
176
     1
 40
30.0
176
     1
 62
     7
420
 16777215
176
     1
 90
        1
176
     1
 90
        4
176
     1
 62
     7
176
     1
 62
   257
176
     1
 90
        1
176
     1
 90
        1
176
     1
 40
1.0
176
     1
 90
        0
176
     1
 62
   257
176
     1
 40
1.0
176
     1
 90
        1
176
     1
 90
        6
176
     1
 90
        2
176
     1
 62
     7
176
     1
 90
        5
176
     1
 90
        0
176
     1
 90
        0
176
     1
290
     0
176
     1
 90
        1
176
     1
 40
0.0
176
     1
 90
        0
176
     1
290
     1
176
     1
290
     1
176
     1
290
     0
176
     1
290
     0
176
     1
290
     0
176
     1
290
     0
176
     1
290
     0
176
     1
290
     0
176
     1
290
     0
176
     1
 90
       50
176
     1
 40
0.0
176
     1
 40
1.0
176
     1
 90
        0
176
     1
 62
    18
420
        0
176
     1
 90
       50
176
     1
 90
        3
176
     1
 62
     5
420
      255
176
     1
290
     0
176
     1
 90
       50
176
     1
 90
       50
176
     1
 90
       50
176
     1
290
     0
176
     1
 90
       50
176
     1
 62
   256
176
     0
 40
1.0
176
     0
 90
        2
176
     1
  1
strokes_ogs.tif
176
     1
290
     0
176
     1
 40
1.0
176
     1
 40
1.0
176
     1
  0
VISUALSTYLE
  5
2E
102
{ACAD_REACTORS
330
29
102
}
330
29
100
AcDbVisualStyle
  2
Basic
 70
     7
177
     3
291
     1
 70
    58
 90
        1
176
     1
 90
        0
176
     1
 90
        1
176
     1
 90
        0
176
     1
 40
0.6
176
     1
 40
30.0
176
     1
 62
     7
420
 16777215
176
     1
 90
        0
176
     1
 90
        4
176
     1
 62
     7
176
     1
 62
   257
176
     1
 90
        1
176
     1
 90
        1
176
     1
 40
1.0
176
     1
 90
        8
176
     1
 62
     7
176
     1
 40
1.0
176
     1
 90
        1
176
     1
 90
        6
176
     1
 90
        2
176
     1
 62
     7
176
     1
 90
        5
176
     1
 90
        0
176
     1
 90
        0
176
     1
290
     0
176
     1
 90
        1
176
     1
 40
0.0
176
     1
 90
        0
176
     1
290
     0
176
     1
290
     1
176
     1
290
     1
176
     1
290
     0
176
     1
290
     0
176
     1
290
     0
176
     1
290
     0
176
     1
290
     0
176
     1
290
     0
176
     1
 90
       50
176
     1
 40
0.0
176
     1
 40
1.0
176
     1
 90
        0
176
     1
 62
    18
420
        0
176
     1
 90
       50
176
     1
 90
        3
176
     1
 62
     5
420
      255
176
     1
290
     0
176
     1
 90
       50
176
     1
 90
       50
176
     1
 90
       50
176
     1
290
     0
176
     1
 90
       50
176
     1
 62
   256
176
     0
 40
1.0
176
     0
 90
        2
176
     1
  1
strokes_ogs.tif
176
     1
290
     0
176
     1
 40
1.0
176
     1
 40
1.0
176
     1
  0
VISUALSTYLE
  5
35
102
{ACAD_REACTORS
330
29
102
}
330
29
100
AcDbVisualStyle
  2
Brighten
 70
    12
177
     3
291
     1
 70
    58
 90
        2
176
     1
 90
        2
176
     1
 90
        0
176
     1
 90
        0
176
     1
 40
0.6
176
     1
 40
30.0
176
     1
 62
     7
420
 16777215
176
     1
 90
        1
176
     1
 90
        4
176
     1
 62
     7
176
     1
 62
   257
176
     1
 90
        1
176
     1
 90
        1
176
     1
 40
1.0
176
     1
 90
        8
176
     1
 62
     7
176
     1
 40
1.0
176
     1
 90
        1
176
     1
 90
        6
176
     1
 90
        2
176
     1
 62
     7
176
     1
 90
        5
176
     1
 90
        0
176
     1
 90
        0
176
     1
290
     0
176
     1
 90
        1
176
     1
 40
50.0
176
     1
 90
        0
176
     1
290
     0
176
     1
290
     1
176
     1
290
     1
176
     1
290
     0
176
     1
290
     0
176
     1
290
     0
176
     1
290
     0
176
     1
290
     0
176
     1
290
     0
176
     1
 90
       50
176
     1
 40
0.0
176
     1
 40
1.0
176
     1
 90
        0
176
     1
 62
    18
420
        0
176
     1
 90
       50
176
     1
 90
        3
176
     1
 62
     5
420
      255
176
     1
290
     0
176
     1
 90
       50
176
     1
 90
       50
176
     1
 90
       50
176
     1
290
     0
176
     1
 90
       50
176
     1
 62
   256
176
     0
 40
1.0
176
     0
 90
        2
176
     1
  1
strokes_ogs.tif
176
     1
290
     0
176
     1
 40
1.0
176
     1
 40
1.0
176
     1
  0
VISUALSTYLE
  5
39
102
{ACAD_REACTORS
330
29
102
}
330
29
100
AcDbVisualStyle
  2
ColorChange
 70
    16
177
     3
291
     1
 70
    58
 90
        2
176
     1
 90
        2
176
     1
 90
        3
176
     1
 90
        0
176
     1
 40
0.6
176
     1
 40
30.0
176
     1
 62
     8
420
  8421504
176
     1
 90
        1
176
     1
 90
        4
176
     1
 62
     7
176
     1
 62
   257
176
     1
 90
        1
176
     1
 90
        1
176
     1
 40
1.0
176
     1
 90
        8
176
     1
 62
     8
420
  8421504
176
     1
 40
1.0
176
     1
 90
        1
176
     1
 90
        6
176
     1
 90
        2
176
     1
 62
     7
176
     1
 90
        5
176
     1
 90
        0
176
     1
 90
        0
176
     1
290
     0
176
     1
 90
        1
176
     1
 40
0.0
176
     1
 90
        0
176
     1
290
     0
176
     1
290
     1
176
     1
290
     1
176
     1
290
     0
176
     1
290
     0
176
     1
290
     0
176
     1
290
     0
176
     1
290
     0
176
     1
290
     0
176
     1
 90
       50
176
     1
 40
0.0
176
     1
 40
1.0
176
     1
 90
        0
176
     1
 62
    18
420
        0
176
     1
 90
       50
176
     1
 90
        3
176
     1
 62
     5
420
      255
176
     1
290
     0
176
     1
 90
       50
176
     1
 90
       50
176
     1
 90
       50
176
     1
290
     0
176
     1
 90
       50
176
     1
 62
   256
176
     0
 40
1.0
176
     0
 90
        2
176
     1
  1
strokes_ogs.tif
176
     1
290
     0
176
     1
 40
1.0
176
     1
 40
1.0
176
     1
  0
VISUALSTYLE
  5
32
102
{ACAD_REACTORS
330
29
102
}
330
29
100
AcDbVisualStyle
  2
Conceptual
 70
     9
177
     3
291
     0
 70
    58
 90
        3
176
     1
 90
        2
176
     1
 90
        0
176
     1
 90
        0
176
     1
 40
0.6
176
     1
 40
30.0
176
     1
 62
     7
420
 16777215
176
     1
 90
        2
176
     1
 90
        2
176
     1
 62
     7
176
     1
 62
   257
176
     1
 90
        1
176
     1
 90
        1
176
     1
 40
179.0
176
     1
 90
        8
176
     1
 62
     7
176
     1
 40
1.0
176
     1
 90
        1
176
     1
 90
        6
176
     1
 90
        2
176
     1
 62
     7
176
     1
 90
        3
176
     1
 90
        0
176
     1
 90
        0
176
     1
290
     0
176
     1
 90
        1
176
     1
 40
0.0
176
     1
 90
        0
176
     1
290
     0
176
     1
290
     1
176
     1
290
     1
176
     1
290
     0
176
     1
290
     0
176
     1
290
     0
176
     1
290
     0
176
     1
290
     0
176
     1
290
     0
176
     1
 90
       50
176
     1
 40
0.0
176
     1
 40
1.0
176
     1
 90
        0
176
     1
 62
    18
420
        0
176
     1
 90
       50
176
     1
 90
        3
176
     1
 62
     5
420
      255
176
     1
290
     0
176
     1
 90
       50
176
     1
 90
       50
176
     1
 90
       50
176
     1
290
     0
176
     1
 90
       50
176
     1
 62
   256
176
     0
 40
1.0
176
     0
 90
        2
176
     1
  1
strokes_ogs.tif
176
     1
290
     0
176
     1
 40
1.0
176
     1
 40
1.0
176
     1
  0
VISUALSTYLE
  5
34
102
{ACAD_REACTORS
330
29
102
}
330
29
100
AcDbVisualStyle
  2
Dim
 70
    11
177
     3
291
     1
 70
    58
 90
        2
176
     1
 90
        2
176
     1
 90
        0
176
     1
 90
        0
176
     1
 40
0.6
176
     1
 40
30.0
176
     1
 62
     7
420
 16777215
176
     1
 90
        1
176
     1
 90
        4
176
     1
 62
     7
176
     1
 62
   257
176
     1
 90
        1
176
     1
 90
        1
176
     1
 40
1.0
176
     1
 90
        8
176
     1
 62
     7
176
     1
 40
1.0
176
     1
 90
        1
176
     1
 90
        6
176
     1
 90
        2
176
     1
 62
     7
176
     1
 90
        5
176
     1
 90
        0
176
     1
 90
        0
176
     1
290
     0
176
     1
 90
        1
176
     1
 40
-50.0
176
     1
 90
        0
176
     1
290
     0
176
     1
290
     1
176
     1
290
     1
176
     1
290
     0
176
     1
290
     0
176
     1
290
     0
176
     1
290
     0
176
     1
290
     0
176
     1
290
     0
176
     1
 90
       50
176
     1
 40
0.0
176
     1
 40
1.0
176
     1
 90
        0
176
     1
 62
    18
420
        0
176
     1
 90
       50
176
     1
 90
        3
176
     1
 62
     5
420
      255
176
     1
290
     0
176
     1
 90
       50
176
     1
 90
       50
176
     1
 90
       50
176
     1
290
     0
176
     1
 90
       50
176
     1
 62
   256
176
     0
 40
1.0
176
     0
 90
        2
176
     1
  1
strokes_ogs.tif
176
     1
290
     0
176
     1
 40
1.0
176
     1
 40
1.0
176
     1
  0
VISUALSTYLE
  5
41
102
{ACAD_REACTORS
330
29
102
}
330
29
100
AcDbVisualStyle
  2
EdgeColorOff
 70
    22
177
     3
291
     1
 70
    58
 90
        2
176
     0
 90
        2
176
     0
 90
        0
176
     0
 90
        0
176
     0
 40
0.6
176
     0
 40
30.0
176
     0
 62
     7
420
 16777215
176
     0
 90
        1
176
     0
 90
        4
176
     0
 62
     7
176
     0
 62
   257
176
     0
 90
        1
176
     0
 90
        1
176
     0
 40
1.0
176
     0
 90
        8
176
     2
 62
     7
176
     0
 40
1.0
176
     0
 90
        1
176
     0
 90
        6
176
     0
 90
        2
176
     0
 62
     7
176
     0
 90
        5
176
     0
 90
        0
176
     0
 90
        0
176
     0
290
     0
176
     0
 90
        1
176
     0
 40
0.0
176
     0
 90
        0
176
     0
290
     0
176
     1
290
     1
176
     1
290
     1
176
     1
290
     0
176
     1
290
     0
176
     1
290
     0
176
     1
290
     0
176
     1
290
     0
176
     1
290
     0
176
     1
 90
       50
176
     0
 40
0.0
176
     0
 40
1.0
176
     0
 90
        0
176
     0
 62
    18
420
        0
176
     0
 90
       50
176
     0
 90
        3
176
     0
 62
     5
420
      255
176
     0
290
     0
176
     1
 90
       50
176
     0
 90
       50
176
     0
 90
       50
176
     0
290
     0
176
     1
 90
       50
176
     0
 62
   256
176
     0
 40
1.0
176
     0
 90
        2
176
     0
  1
strokes_ogs.tif
176
     0
290
     0
176
     1
 40
1.0
176
     0
 40
1.0
176
     0
  0
VISUALSTYLE
  5
38
102
{ACAD_REACTORS
330
29
102
}
330
29
100
AcDbVisualStyle
  2
Facepattern
 70
    15
177
     3
291
     1
 70
    58
 90
        2
176
     1
 90
        2
176
     1
 90
        0
176
     1
 90
        0
176
     1
 40
0.6
176
     1
 40
30.0
176
     1
 62
     7
420
 16777215
176
     1
 90
        1
176
     1
 90
        4
176
     1
 62
     7
176
     1
 62
   257
176
     1
 90
        1
176
     1
 90
        1
176
     1
 40
1.0
176
     1
 90
        8
176
     1
 62
     7
176
     1
 40
1.0
176
     1
 90
        1
176
     1
 90
        6
176
     1
 90
        2
176
     1
 62
     7
176
     1
 90
        5
176
     1
 90
        0
176
     1
 90
        0
176
     1
290
     0
176
     1
 90
        1
176
     1
 40
0.0
176
     1
 90
        0
176
     1
290
     0
176
     1
290
     1
176
     1
290
     1
176
     1
290
     0
176
     1
290
     0
176
     1
290
     0
176
     1
290
     0
176
     1
290
     0
176
     1
290
     0
176
     1
 90
       50
176
     1
 40
0.0
176
     1
 40
1.0
176
     1
 90
        0
176
     1
 62
    18
420
        0
176
     1
 90
       50
176
     1
 90
        3
176
     1
 62
     5
420
      255
176
     1
290
     0
176
     1
 90
       50
176
     1
 90
       50
176
     1
 90
       50
176
     1
290
     0
176
     1
 90
       50
176
     1
 62
   256
176
     0
 40
1.0
176
     0
 90
        2
176
     1
  1
strokes_ogs.tif
176
     1
290
     0
176
     1
 40
1.0
176
     1
 40
1.0
176
     1
  0
VISUALSTYLE
  5
2A
102
{ACAD_REACTORS
330
29
102
}
330
29
100
AcDbVisualStyle
  2
Flat
 70
     0
177
     3
291
     1
 70
    58
 90
        2
176
     1
 90
        1
176
     1
 90
        1
176
     1
 90
        2
176
     1
 40
0.6
176
     1
 40
30.0
176
     1
 62
     7
420
 16777215
176
     1
 90
        0
176
     1
 90
        0
176
     1
 62
     7
176
     1
 62
   257
176
     1
 90
        1
176
     1
 90
        1
176
     1
 40
1.0
176
     1
 90
        8
176
     1
 62
     7
176
     1
 40
1.0
176
     1
 90
        1
176
     1
 90
        6
176
     1
 90
        2
176
     1
 62
     7
176
     1
 90
        5
176
     1
 90
        0
176
     1
 90
        0
176
     1
290
     0
176
     1
 90
       13
176
     1
 40
0.0
176
     1
 90
        0
176
     1
290
     0
176
     1
290
     1
176
     1
290
     1
176
     1
290
     0
176
     1
290
     0
176
     1
290
     0
176
     1
290
     0
176
     1
290
     0
176
     1
290
     0
176
     1
 90
       50
176
     1
 40
0.0
176
     1
 40
1.0
176
     1
 90
        0
176
     1
 62
    18
420
        0
176
     1
 90
       50
176
     1
 90
        3
176
     1
 62
     5
420
      255
176
     1
290
     0
176
     1
 90
       50
176
     1
 90
       50
176
     1
 90
       50
176
     1
290
     0
176
     1
 90
       50
176
     1
 62
   256
176
     0
 40
1.0
176
     0
 90
        2
176
     1
  1
strokes_ogs.tif
176
     1
290
     0
176
     1
 40
1.0
176
     1
 40
1.0
176
     1
  0
VISUALSTYLE
  5
2B
102
{ACAD_REACTORS
330
29
102
}
330
29
100
AcDbVisualStyle
  2
FlatWithEdges
 70
     1
177
     3
291
     1
 70
    58
 90
        2
176
     1
 90
        1
176
     1
 90
        1
176
     1
 90
        2
176
     1
 40
0.6
176
     1
 40
30.0
176
     1
 62
     7
420
 16777215
176
     1
 90
        1
176
     1
 90
        0
176
     1
 62
     7
176
     1
 62
   257
176
     1
 90
        1
176
     1
 90
        1
176
     1
 40
1.0
176
     1
 90
        0
176
     1
 62
   257
176
     1
 40
1.0
176
     1
 90
        1
176
     1
 90
        6
176
     1
 90
        2
176
     1
 62
     7
176
     1
 90
        5
176
     1
 90
        0
176
     1
 90
        0
176
     1
290
     0
176
     1
 90
       13
176
     1
 40
0.0
176
     1
 90
        0
176
     1
290
     0
176
     1
290
     1
176
     1
290
     1
176
     1
290
     0
176
     1
290
     0
176
     1
290
     0
176
     1
290
     0
176
     1
290
     0
176
     1
290
     0
176
     1
 90
       50
176
     1
 40
0.0
176
     1
 40
1.0
176
     1
 90
        0
176
     1
 62
    18
420
        0
176
     1
 90
       50
176
     1
 90
        3
176
     1
 62
     5
420
      255
176
     1
290
     0
176
     1
 90
       50
176
     1
 90
       50
176
     1
 90
       50
176
     1
290
     0
176
     1
 90
       50
176
     1
 62
   256
176
     0
 40
1.0
176
     0
 90
        2
176
     1
  1
strokes_ogs.tif
176
     1
290
     0
176
     1
 40
1.0
176
     1
 40
1.0
176
     1
  0
VISUALSTYLE
  5
2C
102
{ACAD_REACTORS
330
29
102
}
330
29
100
AcDbVisualStyle
  2
Gouraud
 70
     2
177
     3
291
     1
 70
    58
 90
        2
176
     1
 90
        2
176
     1
 90
        1
176
     1
 90
        2
176
     1
 40
0.6
176
     1
 40
30.0
176
     1
 62
     7
420
 16777215
176
     1
 90
        0
176
     1
 90
        0
176
     1
 62
     7
176
     1
 62
   257
176
     1
 90
        1
176
     1
 90
        1
176
     1
 40
1.0
176
     1
 90
        0
176
     1
 62
     7
176
     1
 40
1.0
176
     1
 90
        1
176
     1
 90
        6
176
     1
 90
        2
176
     1
 62
     7
176
     1
 90
        5
176
     1
 90
        0
176
     1
 90
        0
176
     1
290
     0
176
     1
 90
       13
176
     1
 40
0.0
176
     1
 90
        0
176
     1
290
     0
176
     1
290
     1
176
     1
290
     1
176
     1
290
     0
176
     1
290
     0
176
     1
290
     0
176
     1
290
     0
176
     1
290
     0
176
     1
290
     0
176
     1
 90
       50
176
     1
 40
0.0
176
     1
 40
1.0
176
     1
 90
        0
176
     1
 62
    18
420
        0
176
     1
 90
       50
176
     1
 90
        3
176
     1
 62
     5
420
      255
176
     1
290
     0
176
     1
 90
       50
176
     1
 90
       50
176
     1
 90
       50
176
     1
290
     0
176
     1
 90
       50
176
     1
 62
   256
176
     0
 40
1.0
176
     0
 90
        2
176
     1
  1
strokes_ogs.tif
176
     1
290
     0
176
     1
 40
1.0
176
     1
 40
1.0
176
     1
  0
VISUALSTYLE
  5
2D
102
{ACAD_REACTORS
330
29
102
}
330
29
100
AcDbVisualStyle
  2
GouraudWithEdges
 70
     3
177
     3
291
     1
 70
    58
 90
        2
176
     1
 90
        2
176
     1
 90
        1
176
     1
 90
        2
176
     1
 40
0.6
176
     1
 40
30.0
176
     1
 62
     7
420
 16777215
176
     1
 90
        1
176
     1
 90
        0
176
     1
 62
     7
176
     1
 62
   257
176
     1
 90
        1
176
     1
 90
        1
176
     1
 40
1.0
176
     1
 90
        0
176
     1
 62
   257
176
     1
 40
1.0
176
     1
 90
        1
176
     1
 90
        6
176
     1
 90
        2
176
     1
 62
     7
176
     1
 90
        5
176
     1
 90
        0
176
     1
 90
        0
176
     1
290
     0
176
     1
 90
       13
176
     1
 40
0.0
176
     1
 90
        0
176
     1
290
     0
176
     1
290
     1
176
     1
290
     1
176
     1
290
     0
176
     1
290
     0
176
     1
290
     0
176
     1
290
     0
176
     1
290
     0
176
     1
290
     0
176
     1
 90
       50
176
     1
 40
0.0
176
     1
 40
1.0
176
     1
 90
        0
176
     1
 62
    18
420
        0
176
     1
 90
       50
176
     1
 90
        3
176
     1
 62
     5
420
      255
176
     1
290
     0
176
     1
 90
       50
176
     1
 90
       50
176
     1
 90
       50
176
     1
290
     0
176
     1
 90
       50
176
     1
 62
   256
176
     0
 40
1.0
176
     0
 90
        2
176
     1
  1
strokes_ogs.tif
176
     1
290
     0
176
     1
 40
1.0
176
     1
 40
1.0
176
     1
  0
VISUALSTYLE
  5
31
102
{ACAD_REACTORS
330
29
102
}
330
29
100
AcDbVisualStyle
  2
Hidden
 70
     6
177
     3
291
     0
 70
    58
 90
        1
176
     1
 90
        2
176
     1
 90
        2
176
     1
 90
        0
176
     1
 40
0.6
176
     1
 40
30.0
176
     1
 62
     7
420
 16777215
176
     1
 90
        2
176
     1
 90
        2
176
     1
 62
     7
176
     1
 62
   257
176
     1
 90
        2
176
     1
 90
        1
176
     1
 40
40.0
176
     1
 90
        0
176
     1
 62
   257
176
     1
 40
1.0
176
     1
 90
        1
176
     1
 90
        6
176
     1
 90
        2
176
     1
 62
     7
176
     1
 90
        3
176
     1
 90
        0
176
     1
 90
        0
176
     1
290
     0
176
     1
 90
        1
176
     1
 40
0.0
176
     1
 90
        0
176
     1
290
     0
176
     1
290
     1
176
     1
290
     1
176
     1
290
     0
176
     1
290
     0
176
     1
290
     0
176
     1
290
     0
176
     1
290
     0
176
     1
290
     0
176
     1
 90
       50
176
     1
 40
0.0
176
     1
 40
1.0
176
     1
 90
        0
176
     1
 62
    18
420
        0
176
     1
 90
       50
176
     1
 90
        3
176
     1
 62
     5
420
      255
176
     1
290
     0
176
     1
 90
       50
176
     1
 90
       50
176
     1
 90
       50
176
     1
290
     0
176
     1
 90
       50
176
     1
 62
   256
176
     0
 40
1.0
176
     0
 90
        2
176
     1
  1
strokes_ogs.tif
176
     1
290
     0
176
     1
 40
1.0
176
     1
 40
1.0
176
     1
  0
VISUALSTYLE
  5
3F
102
{ACAD_REACTORS
330
29
102
}
330
29
100
AcDbVisualStyle
  2
JitterOff
 70
    20
177
     3
291
     1
 70
    58
 90
        2
176
     0
 90
        2
176
     0
 90
        0
176
     0
 90
        0
176
     0
 40
0.6
176
     0
 40
30.0
176
     0
 62
     7
420
 16777215
176
     0
 90
        1
176
     0
 90
        4
176
     0
 62
     7
176
     0
 62
   257
176
     0
 90
        1
176
     0
 90
        1
176
     0
 40
1.0
176
     0
 90
       10
176
     2
 62
     7
176
     0
 40
1.0
176
     0
 90
        1
176
     0
 90
        6
176
     0
 90
        2
176
     0
 62
     7
176
     0
 90
        5
176
     0
 90
        0
176
     0
 90
        0
176
     0
290
     0
176
     0
 90
        1
176
     0
 40
0.0
176
     0
 90
        0
176
     0
290
     0
176
     1
290
     1
176
     1
290
     1
176
     1
290
     0
176
     1
290
     0
176
     1
290
     0
176
     1
290
     0
176
     1
290
     0
176
     1
290
     0
176
     1
 90
       50
176
     0
 40
0.0
176
     0
 40
1.0
176
     0
 90
        0
176
     0
 62
    18
420
        0
176
     0
 90
       50
176
     0
 90
        3
176
     0
 62
     5
420
      255
176
     0
290
     0
176
     1
 90
       50
176
     0
 90
       50
176
     0
 90
       50
176
     0
290
     0
176
     1
 90
       50
176
     0
 62
   256
176
     0
 40
1.0
176
     0
 90
        2
176
     0
  1
strokes_ogs.tif
176
     0
290
     0
176
     1
 40
1.0
176
     0
 40
1.0
176
     0
  0
VISUALSTYLE
  5
37
102
{ACAD_REACTORS
330
29
102
}
330
29
100
AcDbVisualStyle
  2
Linepattern
 70
    14
177
     3
291
     1
 70
    58
 90
        2
176
     1
 90
        2
176
     1
 90
        0
176
     1
 90
        0
176
     1
 40
0.6
176
     1
 40
30.0
176
     1
 62
     7
420
 16777215
176
     1
 90
        1
176
     1
 90
        4
176
     1
 62
     7
176
     1
 62
   257
176
     1
 90
        7
176
     1
 90
        7
176
     1
 40
1.0
176
     1
 90
        8
176
     1
 62
     7
176
     1
 40
1.0
176
     1
 90
        1
176
     1
 90
        6
176
     1
 90
        2
176
     1
 62
     7
176
     1
 90
        5
176
     1
 90
        0
176
     1
 90
        0
176
     1
290
     0
176
     1
 90
        1
176
     1
 40
0.0
176
     1
 90
        0
176
     1
290
     0
176
     1
290
     1
176
     1
290
     1
176
     1
290
     0
176
     1
290
     0
176
     1
290
     0
176
     1
290
     0
176
     1
290
     0
176
     1
290
     0
176
     1
 90
       50
176
     1
 40
0.0
176
     1
 40
1.0
176
     1
 90
        0
176
     1
 62
    18
420
        0
176
     1
 90
       50
176
     1
 90
        3
176
     1
 62
     5
420
      255
176
     1
290
     0
176
     1
 90
       50
176
     1
 90
       50
176
     1
 90
       50
176
     1
290
     0
176
     1
 90
       50
176
     1
 62
   256
176
     0
 40
1.0
176
     0
 90
        2
176
     1
  1
strokes_ogs.tif
176
     1
290
     0
176
     1
 40
1.0
176
     1
 40
1.0
176
     1
  0
VISUALSTYLE
  5
40
102
{ACAD_REACTORS
330
29
102
}
330
29
100
AcDbVisualStyle
  2
OverhangOff
 70
    21
177
     3
291
     1
 70
    58
 90
        2
176
     0
 90
        2
176
     0
 90
        0
176
     0
 90
        0
176
     0
 40
0.6
176
     0
 40
30.0
176
     0
 62
     7
420
 16777215
176
     0
 90
        1
176
     0
 90
        4
176
     0
 62
     7
176
     0
 62
   257
176
     0
 90
        1
176
     0
 90
        1
176
     0
 40
1.0
176
     0
 90
        9
176
     2
 62
     7
176
     0
 40
1.0
176
     0
 90
        1
176
     0
 90
        6
176
     0
 90
        2
176
     0
 62
     7
176
     0
 90
        5
176
     0
 90
        0
176
     0
 90
        0
176
     0
290
     0
176
     0
 90
        1
176
     0
 40
0.0
176
     0
 90
        0
176
     0
290
     0
176
     1
290
     1
176
     1
290
     1
176
     1
290
     0
176
     1
290
     0
176
     1
290
     0
176
     1
290
     0
176
     1
290
     0
176
     1
290
     0
176
     1
 90
       50
176
     0
 40
0.0
176
     0
 40
1.0
176
     0
 90
        0
176
     0
 62
    18
420
        0
176
     0
 90
       50
176
     0
 90
        3
176
     0
 62
     5
420
      255
176
     0
290
     0
176
     1
 90
       50
176
     0
 90
       50
176
     0
 90
       50
176
     0
290
     0
176
     1
 90
       50
176
     0
 62
   256
176
     0
 40
1.0
176
     0
 90
        2
176
     0
  1
strokes_ogs.tif
176
     0
290
     0
176
     1
 40
1.0
176
     0
 40
1.0
176
     0
  0
VISUALSTYLE
  5
33
102
{ACAD_REACTORS
330
29
102
}
330
29
100
AcDbVisualStyle
  2
Realistic
 70
     8
177
     3
291
     0
 70
    58
 90
        2
176
     1
 90
        3
176
     1
 90
        0
176
     1
 90
        2
176
     1
 40
0.6
176
     1
 40
30.0
176
     1
 62
     7
420
 16777215
176
     1
 90
        0
176
     1
 90
        0
176
     1
 62
     7
176
     1
 62
   257
176
     1
 90
        1
176
     1
 90
        1
176
     1
 40
1.0
176
     1
 90
        8
176
     1
 62
   257
176
     1
 40
1.0
176
     1
 90
        1
176
     1
 90
        6
176
     1
 90
        2
176
     1
 62
     7
176
     1
 90
        3
176
     1
 90
        0
176
     1
 90
        0
176
     1
290
     0
176
     1
 90
       13
176
     1
 40
0.0
176
     1
 90
        0
176
     1
290
     0
176
     1
290
     1
176
     1
290
     1
176
     1
290
     0
176
     1
290
     0
176
     1
290
     0
176
     1
290
     0
176
     1
290
     0
176
     1
290
     0
176
     1
 90
       50
176
     1
 40
0.0
176
     1
 40
1.0
176
     1
 90
        0
176
     1
 62
    18
420
        0
176
     1
 90
       50
176
     1
 90
        3
176
     1
 62
     5
420
      255
176
     1
290
     0
176
     1
 90
       50
176
     1
 90
       50
176
     1
 90
       50
176
     1
290
     0
176
     1
 90
       50
176
     1
 62
   256
176
     0
 40
1.0
176
     0
 90
        2
176
     1
  1
strokes_ogs.tif
176
     1
290
     0
176
     1
 40
1.0
176
     1
 40
1.0
176
     1
  0
VISUALSTYLE
  5
3E
102
{ACAD_REACTORS
330
29
102
}
330
29
100
AcDbVisualStyle
  2
Shaded
 70
    27
177
     3
291
     0
 70
    58
 90
        2
176
     1
 90
        2
176
     1
 90
        1
176
     1
 90
        2
176
     1
 40
0.6
176
     1
 40
30.0
176
     1
 62
     7
420
 16777215
176
     1
 90
        0
176
     1
 90
        4
176
     1
 62
     7
176
     1
 62
   257
176
     1
 90
        1
176
     1
 90
        1
176
     1
 40
1.0
176
     1
 90
        8
176
     1
 62
   257
176
     1
 40
1.0
176
     1
 90
        1
176
     1
 90
        6
176
     1
 90
        2
176
     1
 62
     8
420
  7895160
176
     1
 90
        3
176
     1
 90
        0
176
     1
 90
        0
176
     1
290
     0
176
     1
 90
        5
176
     1
 40
0.0
176
     1
 90
        0
176
     1
290
     0
176
     1
290
     1
176
     1
290
     1
176
     1
290
     0
176
     1
290
     0
176
     1
290
     0
176
     1
290
     0
176
     1
290
     0
176
     1
290
     0
176
     1
 90
       50
176
     1
 40
0.0
176
     1
 40
1.0
176
     1
 90
        0
176
     1
 62
    18
420
        0
176
     1
 90
       50
176
     1
 90
        3
176
     1
 62
     5
420
      255
176
     1
290
     0
176
     1
 90
       50
176
     1
 90
       50
176
     1
 90
       50
176
     1
290
     0
176
     1
 90
       50
176
     1
 62
   256
176
     0
 40
1.0
176
     0
 90
        2
176
     1
  1
strokes_ogs.tif
176
     1
290
     0
176
     1
 40
1.0
176
     1
 40
1.0
176
     1
  0
VISUALSTYLE
  5
3D
102
{ACAD_REACTORS
330
29
102
}
330
29
100
AcDbVisualStyle
  2
Shaded with edges
 70
    26
177
     3
291
     0
 70
    58
 90
        2
176
     1
 90
        2
176
     1
 90
        1
176
     1
 90
        2
176
     1
 40
0.6
176
     1
 40
30.0
176
     1
 62
     7
420
 16777215
176
     1
 90
        1
176
     1
 90
        2
176
     1
 62
     7
176
     1
 62
   257
176
     1
 90
        2
176
     1
 90
        1
176
     1
 40
1.0
176
     1
 90
        8
176
     1
 62
   257
176
     1
 40
1.0
176
     1
 90
        1
176
     1
 90
        6
176
     1
 90
        2
176
     1
 62
     7
176
     1
 90
        3
176
     1
 90
        0
176
     1
 90
        0
176
     1
290
     0
176
     1
 90
        5
176
     1
 40
0.0
176
     1
 90
        0
176
     1
290
     0
176
     1
290
     1
176
     1
290
     1
176
     1
290
     0
176
     1
290
     0
176
     1
290
     0
176
     1
290
     0
176
     1
290
     0
176
     1
290
     0
176
     1
 90
       50
176
     1
 40
0.0
176
     1
 40
1.0
176
     1
 90
        0
176
     1
 62
    18
420
        0
176
     1
 90
       50
176
     1
 90
        3
176
     1
 62
     5
420
      255
176
     1
290
     0
176
     1
 90
       50
176
     1
 90
       50
176
     1
 90
       50
176
     1
290
     0
176
     1
 90
       50
176
     1
 62
   256
176
     0
 40
1.0
176
     0
 90
        2
176
     1
  1
strokes_ogs.tif
176
     1
290
     0
176
     1
 40
1.0
176
     1
 40
1.0
176
     1
  0
VISUALSTYLE
  5
3A
102
{ACAD_REACTORS
330
29
102
}
330
29
100
AcDbVisualStyle
  2
Shades of Gray
 70
    23
177
     3
291
     0
 70
    58
 90
        2
176
     1
 90
        2
176
     1
 90
        3
176
     1
 90
        0
176
     1
 40
0.6
176
     1
 40
30.0
176
     1
 62
     7
420
 16777215
176
     1
 90
        2
176
     1
 90
        2
176
     1
 62
     7
176
     1
 62
     7
176
     1
 90
        1
176
     1
 90
        1
176
     1
 40
40.0
176
     1
 90
        8
176
     1
 62
     7
176
     1
 40
1.0
176
     1
 90
        1
176
     1
 90
        6
176
     1
 90
        2
176
     1
 62
     7
176
     1
 90
        3
176
     1
 90
        0
176
     1
 90
        0
176
     1
290
     0
176
     1
 90
        1
176
     1
 40
0.0
176
     1
 90
        0
176
     1
290
     0
176
     1
290
     1
176
     1
290
     1
176
     1
290
     0
176
     1
290
     0
176
     1
290
     0
176
     1
290
     0
176
     1
290
     0
176
     1
290
     0
176
     1
 90
       50
176
     1
 40
0.0
176
     1
 40
1.0
176
     1
 90
        0
176
     1
 62
    18
420
        0
176
     1
 90
       50
176
     1
 90
        3
176
     1
 62
     5
420
      255
176
     1
290
     0
176
     1
 90
       50
176
     1
 90
       50
176
     1
 90
       50
176
     1
290
     0
176
     1
 90
       50
176
     1
 62
   256
176
     0
 40
1.0
176
     0
 90
        2
176
     1
  1
strokes_ogs.tif
176
     1
290
     0
176
     1
 40
1.0
176
     1
 40
1.0
176
     1
  0
VISUALSTYLE
  5
3B
102
{ACAD_REACTORS
330
29
102
}
330
29
100
AcDbVisualStyle
  2
Sketchy
 70
    24
177
     3
291
     0
 70
    58
 90
        1
176
     1
 90
        2
176
     1
 90
        2
176
     1
 90
        0
176
     1
 40
0.6
176
     1
 40
30.0
176
     1
 62
     7
420
 16777215
176
     1
 90
        2
176
     1
 90
        2
176
     1
 62
     7
176
     1
 62
     7
176
     1
 90
        1
176
     1
 90
        1
176
     1
 40
40.0
176
     1
 90
       11
176
     1
 62
     7
176
     1
 40
1.0
176
     1
 90
        1
176
     1
 90
        6
176
     1
 90
        2
176
     1
 62
     7
176
     1
 90
        6
176
     1
 90
        0
176
     1
 90
        0
176
     1
290
     0
176
     1
 90
        1
176
     1
 40
0.0
176
     1
 90
        0
176
     1
290
     0
176
     1
290
     1
176
     1
290
     1
176
     1
290
     0
176
     1
290
     0
176
     1
290
     0
176
     1
290
     0
176
     1
290
     0
176
     1
290
     0
176
     1
 90
       50
176
     1
 40
0.0
176
     1
 40
1.0
176
     1
 90
        0
176
     1
 62
    18
420
        0
176
     1
 90
       50
176
     1
 90
        3
176
     1
 62
     5
420
      255
176
     1
290
     0
176
     1
 90
       50
176
     1
 90
       50
176
     1
 90
       50
176
     1
290
     0
176
     1
 90
       50
176
     1
 62
   256
176
     0
 40
1.0
176
     0
 90
        2
176
     1
  1
strokes_ogs.tif
176
     1
290
     0
176
     1
 40
1.0
176
     1
 40
1.0
176
     1
  0
VISUALSTYLE
  5
36
102
{ACAD_REACTORS
330
29
102
}
330
29
100
AcDbVisualStyle
  2
Thicken
 70
    13
177
     3
291
     1
 70
    58
 90
        2
176
     1
 90
        2
176
     1
 90
        0
176
     1
 90
        0
176
     1
 40
0.6
176
     1
 40
30.0
176
     1
 62
     7
420
 16777215
176
     1
 90
        1
176
     1
 90
        4
176
     1
 62
     7
176
     1
 62
   257
176
     1
 90
        1
176
     1
 90
        1
176
     1
 40
1.0
176
     1
 90
       12
176
     1
 62
     7
176
     1
 40
1.0
176
     1
 90
        1
176
     1
 90
        6
176
     1
 90
        2
176
     1
 62
     7
176
     1
 90
        5
176
     1
 90
        0
176
     1
 90
        0
176
     1
290
     0
176
     1
 90
        1
176
     1
 40
0.0
176
     1
 90
        0
176
     1
290
     0
176
     1
290
     1
176
     1
290
     1
176
     1
290
     0
176
     1
290
     0
176
     1
290
     0
176
     1
290
     0
176
     1
290
     0
176
     1
290
     0
176
     1
 90
       50
176
     1
 40
0.0
176
     1
 40
1.0
176
     1
 90
        0
176
     1
 62
    18
420
        0
176
     1
 90
       50
176
     1
 90
        3
176
     1
 62
     5
420
      255
176
     1
290
     0
176
     1
 90
       50
176
     1
 90
       50
176
     1
 90
       50
176
     1
290
     0
176
     1
 90
       50
176
     1
 62
   256
176
     0
 40
1.0
176
     0
 90
        2
176
     1
  1
strokes_ogs.tif
176
     1
290
     0
176
     1
 40
1.0
176
     1
 40
1.0
176
     1
  0
VISUALSTYLE
  5
30
102
{ACAD_REACTORS
330
29
102
}
330
29
100
AcDbVisualStyle
  2
Wireframe
 70
     5
177
     3
291
     0
 70
    58
 90
        0
176
     1
 90
        2
176
     1
 90
        0
176
     1
 90
        0
176
     1
 40
0.6
176
     1
 40
30.0
176
     1
 62
     7
420
 16777215
176
     1
 90
        1
176
     1
 90
        4
176
     1
 62
     7
176
     1
 62
   257
176
     1
 90
        1
176
     1
 90
        1
176
     1
 40
1.0
176
     1
 90
        0
176
     1
 62
   257
176
     1
 40
1.0
176
     1
 90
        1
176
     1
 90
        6
176
     1
 90
        2
176
     1
 62
     7
176
     1
 90
        3
176
     1
 90
        0
176
     1
 90
        0
176
     1
290
     0
176
     1
 90
        1
176
     1
 40
0.0
176
     1
 90
        0
176
     1
290
     0
176
     1
290
     1
176
     1
290
     1
176
     1
290
     0
176
     1
290
     0
176
     1
290
     0
176
     1
290
     0
176
     1
290
     0
176
     1
290
     0
176
     1
 90
       50
176
     1
 40
0.0
176
     1
 40
1.0
176
     1
 90
        0
176
     1
 62
    18
420
        0
176
     1
 90
       50
176
     1
 90
        3
176
     1
 62
     5
420
      255
176
     1
290
     0
176
     1
 90
       50
176
     1
 90
       50
176
     1
 90
       50
176
     1
290
     0
176
     1
 90
       50
176
     1
 62
   256
176
     0
 40
1.0
176
     0
 90
        2
176
     1
  1
strokes_ogs.tif
176
     1
290
     0
176
     1
 40
1.0
176
     1
 40
1.0
176
     1
  0
VISUALSTYLE
  5
3C
102
{ACAD_REACTORS
330
29
102
}
330
29
100
AcDbVisualStyle
  2
X-Ray
 70
    25
177
     3
291
     0
 70
    58
 90
        2
176
     1
 90
        2
176
     1
 90
        1
176
     1
 90
        1
176
     1
 40
0.5
176
     1
 40
30.0
176
     1
 62
     7
420
 16777215
176
     1
 90
        1
176
     1
 90
        0
176
     1
 62
     7
176
     1
 62
   257
176
     1
 90
        1
176
     1
 90
        1
176
     1
 40
1.0
176
     1
 90
        8
176
     1
 62
     7
176
     1
 40
1.0
176
     1
 90
        1
176
     1
 90
        6
176
     1
 90
        2
176
     1
 62
     7
176
     1
 90
        3
176
     1
 90
        0
176
     1
 90
        0
176
     1
290
     0
176
     1
 90
       13
176
     1
 40
0.0
176
     1
 90
        0
176
     1
290
     0
176
     1
290
     1
176
     1
290
     1
176
     1
290
     0
176
     1
290
     0
176
     1
290
     0
176
     1
290
     0
176
     1
290
     0
176
     1
290
     0
176
     1
 90
       50
176
     1
 40
0.0
176
     1
 40
1.0
176
     1
 90
        0
176
     1
 62
    18
420
        0
176
     1
 90
       50
176
     1
 90
        3
176
     1
 62
     5
420
      255
176
     1
290
     0
176
     1
 90
       50
176
     1
 90
       50
176
     1
 90
       50
176
     1
290
     0
176
     1
 90
       50
176
     1
 62
   256
176
     0
 40
1.0
176
     0
 90
        2
176
     1
  1
strokes_ogs.tif
176
     1
290
     0
176
     1
 40
1.0
176
     1
 40
1.0
176
     1
  0
DICTIONARYVAR
  5
645
102
{ACAD_REACTORS
330
63F
102
}
330
63F
100
DictionaryVariables
280
     0
  1
1:1
  0
DICTIONARYVAR
  5
641
102
{ACAD_REACTORS
330
63F
102
}
330
63F
100
DictionaryVariables
280
     0
  1
STANDARD
  0
DICTIONARYVAR
  5
640
102
{ACAD_REACTORS
330
63F
102
}
330
63F
100
DictionaryVariables
280
     0
  1
STANDARD
  0
DICTIONARYVAR
  5
642
102
{ACAD_REACTORS
330
63F
102
}
330
63F
100
DictionaryVariables
280
     0
  1
Imperial24
  0
DICTIONARYVAR
  5
643
102
{ACAD_REACTORS
330
63F
102
}
330
63F
100
DictionaryVariables
280
     0
  1
Imperial24
  0
DICTIONARYVAR
  5
647
102
{ACAD_REACTORS
330
63F
102
}
330
63F
100
DictionaryVariables
280
     0
  1
1
  0
DICTIONARYVAR
  5
648
102
{ACAD_REACTORS
330
63F
102
}
330
63F
100
DictionaryVariables
280
     0
  1
15
  0
DICTIONARYVAR
  5
646
102
{ACAD_REACTORS
330
63F
102
}
330
63F
100
DictionaryVariables
280
     0
  1
0
  0
DICTIONARYVAR
  5
644
102
{ACAD_REACTORS
330
63F
102
}
330
63F
100
DictionaryVariables
280
     0
  1
0
  0
DICTIONARY
  5
1A
330
19
100
AcDbDictionary
280
     1
281
     1
  3
BUMPTILE
360
1C
  3
DIFFUSETILE
360
1B
  3
OPACITYTILE
360
1F
  3
REFLECTIONTILE
360
1E
  3
REFRACTIONTILE
360
20
  3
SPECULARTILE
360
1D
  0
DICTIONARY
  5
12
330
11
100
AcDbDictionary
280
     1
281
     1
  3
BUMPTILE
360
14
  3
DIFFUSETILE
360
13
  3
OPACITYTILE
360
17
  3
REFLECTIONTILE
360
16
  3
REFRACTIONTILE
360
18
  3
SPECULARTILE
360
15
  0
DICTIONARY
  5
22
330
21
100
AcDbDictionary
280
     1
281
     1
  3
BUMPTILE
360
24
  3
DIFFUSETILE
360
23
  3
OPACITYTILE
360
27
  3
REFLECTIONTILE
360
26
  3
REFRACTIONTILE
360
28
  3
SPECULARTILE
360
25
  0
DICTIONARY
  5
649
330
64
100
AcDbDictionary
280
     1
281
     1
  3
ACAD_ROUNDTRIP_2008_TABLESTYLE_CELLSTYLEMAP
360
64A
  0
XRECORD
  5
1C
102
{ACAD_REACTORS
330
1A
102
}
330
1A
100
AcDbXrecord
280
     1
270
     1
271
     1
  0
XRECORD
  5
1B
102
{ACAD_REACTORS
330
1A
102
}
330
1A
100
AcDbXrecord
280
     1
270
     1
271
     1
  0
XRECORD
  5
1F
102
{ACAD_REACTORS
330
1A
102
}
330
1A
100
AcDbXrecord
280
     1
270
     1
271
     1
  0
XRECORD
  5
1E
102
{ACAD_REACTORS
330
1A
102
}
330
1A
100
AcDbXrecord
280
     1
270
     1
271
     1
  0
XRECORD
  5
20
102
{ACAD_REACTORS
330
1A
102
}
330
1A
100
AcDbXrecord
280
     1
270
     1
271
     1
  0
XRECORD
  5
1D
102
{ACAD_REACTORS
330
1A
102
}
330
1A
100
AcDbXrecord
280
     1
270
     1
271
     1
  0
XRECORD
  5
14
102
{ACAD_REACTORS
330
12
102
}
330
12
100
AcDbXrecord
280
     1
270
     1
271
     1
  0
XRECORD
  5
13
102
{ACAD_REACTORS
330
12
102
}
330
12
100
AcDbXrecord
280
     1
270
     1
271
     1
  0
XRECORD
  5
17
102
{ACAD_REACTORS
330
12
102
}
330
12
100
AcDbXrecord
280
     1
270
     1
271
     1
  0
XRECORD
  5
16
102
{ACAD_REACTORS
330
12
102
}
330
12
100
AcDbXrecord
280
     1
270
     1
271
     1
  0
XRECORD
  5
18
102
{ACAD_REACTORS
330
12
102
}
330
12
100
AcDbXrecord
280
     1
270
     1
271
     1
  0
XRECORD
  5
15
102
{ACAD_REACTORS
330
12
102
}
330
12
100
AcDbXrecord
280
     1
270
     1
271
     1
  0
XRECORD
  5
24
102
{ACAD_REACTORS
330
22
102
}
330
22
100
AcDbXrecord
280
     1
270
     1
271
     1
  0
XRECORD
  5
23
102
{ACAD_REACTORS
330
22
102
}
330
22
100
AcDbXrecord
280
     1
270
     1
271
     1
  0
XRECORD
  5
27
102
{ACAD_REACTORS
330
22
102
}
330
22
100
AcDbXrecord
280
     1
270
     1
271
     1
  0
XRECORD
  5
26
102
{ACAD_REACTORS
330
22
102
}
330
22
100
AcDbXrecord
280
     1
270
     1
271
     1
  0
XRECORD
  5
28
102
{ACAD_REACTORS
330
22
102
}
330
22
100
AcDbXrecord
280
     1
270
     1
271
     1
  0
XRECORD
  5
25
102
{ACAD_REACTORS
330
22
102
}
330
22
100
AcDbXrecord
280
     1
270
     1
271
     1
  0
CELLSTYLEMAP
  5
64A
102
{ACAD_REACTORS
330
649
102
}
330
649
100
AcDbCellStyleMap
 90
        3
300
CELLSTYLE
  1
TABLEFORMAT_BEGIN
 90
        5
170
     1
 91
        0
 92
    32768
 62
   257
 93
        1
300
CONTENTFORMAT
  1
CONTENTFORMAT_BEGIN
 90
        0
 91
        0
 92
      512
 93
        0
300

 40
0.0
140
1.0
 94
        5
 62
     0
340
55
144
0.25
309
CONTENTFORMAT_END
171
     0
 94
        0
309
TABLEFORMAT_END
  1
CELLSTYLE_BEGIN
 90
        1
 91
        1
300
_TITLE
309
CELLSTYLE_END
300
CELLSTYLE
  1
TABLEFORMAT_BEGIN
 90
        5
170
     1
 91
        0
 92
        0
 62
   257
 93
        1
300
CONTENTFORMAT
  1
CONTENTFORMAT_BEGIN
 90
        0
 91
        0
 92
      512
 93
        0
300

 40
0.0
140
1.0
 94
        5
 62
     0
340
55
144
0.18
309
CONTENTFORMAT_END
171
     0
 94
        0
309
TABLEFORMAT_END
  1
CELLSTYLE_BEGIN
 90
        2
 91
        1
300
_HEADER
309
CELLSTYLE_END
300
CELLSTYLE
  1
TABLEFORMAT_BEGIN
 90
        5
170
     1
 91
        0
 92
        0
 62
   257
 93
        1
300
CONTENTFORMAT
  1
CONTENTFORMAT_BEGIN
 90
        0
 91
        0
 92
      512
 93
        0
300

 40
0.0
140
1.0
 94
        2
 62
     0
340
55
144
0.18
309
CONTENTFORMAT_END
171
     0
 94
        0
309
TABLEFORMAT_END
  1
CELLSTYLE_BEGIN
 90
        3
 91
        2
300
_DATA
309
CELLSTYLE_END
  0
ENDSEC
  0
EOF
